<svg width="160" height="80" viewBox="0 0 160 80" fill="none" xmlns="http://www.w3.org/2000/svg">
<path d="M25.7152 28.5699C28.1645 25.0689 30.2078 22.3722 33.19 20.4385C38.3729 17.0724 44.583 17.8905 48.2196 22.9919C51.0898 27.046 53.6732 31.2946 55.9512 35.7069C58.8782 41.34 61.5235 47.0006 64.1936 52.7548C64.4097 53.2166 64.5942 53.6924 64.7459 54.1789C58.9831 58.4953 47.6398 56.8811 42.9787 49.4301C40.3528 45.2322 38.1907 40.745 35.8519 36.3735C35.2527 35.2524 34.8026 34.0542 34.2282 32.9193C32.6074 29.7075 30.8457 26.7023 25.7152 28.5699Z" fill="url(#paint0_linear)"/>
<path d="M105.663 23.8844C106.491 23.5428 107.41 23.1985 108.015 22.9506C108.05 23.1027 108.071 23.2575 108.079 23.4133C108.059 27.5452 108.134 31.677 107.971 35.8088C107.841 39.0647 106.091 40.632 102.846 40.6596C101.702 40.661 100.563 40.5184 99.4552 40.2354C98.8505 40.0839 98.3507 39.533 97.699 39.0922L98.6296 37.4588C100.499 38.7699 102.443 39.387 104.475 38.2851C105.881 37.5221 105.906 36.0622 105.839 34.5169C105.494 34.6657 105.224 34.7676 104.964 34.8971C101.927 36.4313 98.6379 34.9384 97.8481 31.6577C97.4199 29.9559 97.4734 28.1689 98.0028 26.4957C99.052 23.1902 102.435 21.9369 105.414 23.7411C105.499 23.7844 105.582 23.8322 105.663 23.8844ZM105.85 26.1183C103.779 24.2122 101.233 24.4656 100.372 26.6114C100.02 27.4643 99.848 28.3801 99.8655 29.3021C99.8831 30.2242 100.09 31.1328 100.474 31.9717C101.245 33.6906 104.141 34.1148 105.425 32.7375C105.68 32.4255 105.822 32.0378 105.831 31.6357C105.883 29.8094 105.85 27.9749 105.85 26.1266V26.1183Z" fill="white"/>
<path d="M114.576 56.1292H112.414C112.414 54.0605 112.414 52.0552 112.414 50.0499C112.414 49.5458 112.433 49.0389 112.414 48.5349C112.334 46.5516 111.111 45.6205 109.191 46.1412C108.592 46.3037 108.04 46.6452 107.402 46.9345V56.1236H105.281C105.262 55.6691 105.226 55.2284 105.226 54.7849C105.226 52.7658 105.27 50.744 105.204 48.7249C105.174 47.7829 105.113 46.7554 104.017 46.2789C102.802 45.75 101.675 46.0227 100.615 46.6921C100.007 47.0777 99.8859 47.6892 99.8915 48.3723C99.908 50.4823 99.8915 52.5951 99.8915 54.7078C99.8915 55.1568 99.8915 55.6085 99.8915 56.1236H97.6824V44.4168C98.6544 44.0642 99.3033 44.4664 99.8501 45.2762C102.189 43.775 104.514 43.4114 106.883 45.4222C108.046 44.527 109.385 43.9513 110.986 44.0449C113.068 44.1689 114.477 45.3671 114.548 47.4716C114.651 50.3115 114.576 53.1515 114.576 56.1292Z" fill="white"/>
<path d="M145.977 44.8024L147.882 44.0146C147.935 44.6481 147.99 44.9979 147.99 45.3478C147.99 48.6973 148.012 52.0468 147.99 55.3964C147.985 56.2673 147.899 57.1359 147.733 57.9911C147.316 60.1094 145.977 61.3324 143.84 61.7015C142.251 62.0101 140.606 61.861 139.099 61.2718C137.613 60.6741 137.489 59.9854 138.613 58.6274C140.433 59.8532 142.423 60.5556 144.483 59.3188C145.892 58.4787 145.756 56.9086 145.842 55.3247C144.345 56.5257 142.766 56.826 141.076 56.3935C139.118 55.8922 137.989 54.4984 137.729 52.6033C137.498 51.1123 137.524 49.5928 137.807 48.1106C138.613 44.3672 142.018 42.9761 145.118 44.75C145.248 44.8229 145.393 44.8655 145.542 44.8746C145.691 44.8837 145.839 44.859 145.977 44.8024ZM145.795 47.2649C145.354 46.7084 144.756 46.2968 144.078 46.0836C143.4 45.8704 142.674 45.8655 141.993 46.0695C140.612 46.4193 140.06 47.6148 139.908 48.8819C139.8 49.9715 139.843 51.0707 140.035 52.1488C140.482 54.8317 143.094 55.1788 144.806 54.2064C145.251 53.9557 145.723 53.3277 145.751 52.8457C145.861 50.9726 145.795 49.0912 145.795 47.2622V47.2649Z" fill="white"/>
<path d="M81.5511 47.4633V54.5893C79.6403 56.2227 77.3263 56.7571 74.8246 56.545C71.7016 56.2696 69.6361 54.6168 68.736 51.6034C67.9555 49.0435 67.968 46.3083 68.7719 43.7556C70.39 38.5082 76.7354 38.0565 79.7977 40.0783C80.2174 40.3538 80.6481 40.6292 81.0816 40.9047L80.0545 42.9045C79.6292 42.5932 79.342 42.3921 79.0687 42.18C75.6944 39.5715 71.4116 41.2407 70.6827 45.4359C70.3481 47.151 70.4057 48.9192 70.8511 50.609C71.9391 54.5094 75.8214 55.9225 79.3172 53.6059V49.2895H75.9291L75.8407 47.4633H81.5511Z" fill="white"/>
<path d="M73.7505 19.108C73.8296 18.8878 73.9636 18.6913 74.14 18.5371C74.3163 18.3828 74.5291 18.276 74.7583 18.2265C76.0754 17.9511 76.5173 18.3174 77.0474 19.7581L82.6418 34.9742H80.2726L78.6158 30.6936H71.8452L70.2077 35.043H67.9214L73.7505 19.108ZM72.4526 28.658H77.9752L75.2139 20.8323L72.4526 28.658Z" fill="white"/>
<path d="M91.5248 48.4714C91.4862 46.5625 90.9947 46.0777 89.3876 45.951C87.9434 45.8353 86.7009 46.3504 85.3727 47.1135L84.6962 45.4304C85.2013 45.0953 85.7301 44.797 86.2784 44.5379C87.7561 44.0036 89.3504 43.8743 90.8952 44.1633C92.7232 44.4581 93.7007 45.6012 93.8167 47.6258C93.9188 49.408 93.8636 51.2067 93.8747 52.9861C93.8747 53.5371 93.8747 54.0714 93.8747 54.5948L94.9985 55.3027C94.9985 55.5782 94.9985 55.8344 94.9985 56.0465C94.2198 56.7764 92.5134 56.3054 91.5745 55.1264C91.0082 55.6272 90.3416 56.0021 89.6189 56.2262C88.8962 56.4504 88.134 56.5187 87.3829 56.4266C85.7979 56.2806 84.6851 55.4708 84.2737 54.132C83.7849 52.5399 84.2102 51.0359 85.4445 50.0415C86.7561 48.9838 88.3328 48.6973 89.9509 48.5541C90.4534 48.5017 90.956 48.499 91.5248 48.4714ZM91.6767 50.1242C90.4452 50.2647 89.4345 50.3032 88.4653 50.5181C87.8964 50.6715 87.3709 50.9543 86.93 51.3444C86.259 51.8953 86.2149 52.7217 86.5048 53.4847C86.7947 54.2477 87.4022 54.6802 88.2223 54.5535C89.074 54.4626 89.9066 54.2415 90.6909 53.8979C91.1355 53.6748 91.5193 53.0385 91.6353 52.5206C91.8009 51.8513 91.6822 51.102 91.6822 50.1324L91.6767 50.1242Z" fill="white"/>
<path d="M111.682 23.1654C113.369 23.0332 113.828 23.4133 113.839 24.9118C113.855 26.7904 113.839 28.669 113.839 30.5476C113.864 33.3159 115.656 34.3792 118.157 33.1479C119.033 32.7182 119.447 32.0984 119.422 31.0875C119.37 28.8839 119.403 26.6802 119.403 24.4903C119.403 24.0441 119.403 23.5979 119.403 23.1709C121.029 23.0359 121.648 23.4464 121.664 24.741C121.706 28.1236 121.678 31.5089 121.678 34.9934H119.552L119.259 34.28C118.666 34.7542 117.981 35.0999 117.247 35.2953C116.513 35.4907 115.746 35.5314 114.996 35.4149C112.963 35.1615 111.784 34.0817 111.718 32.0323C111.616 29.1097 111.682 26.1816 111.682 23.1654Z" fill="white"/>
<path d="M134.352 56.1512H132.168C132.168 55.2091 132.168 54.3056 132.168 53.3966C132.168 51.6558 132.168 49.9121 132.124 48.163C132.08 46.8023 131.447 46.1109 130.097 46.0475C129.32 46.0278 128.546 46.1501 127.814 46.4084C126.9 46.7169 126.505 47.4413 126.527 48.4495C126.571 50.5099 126.527 52.5813 126.527 54.6362C126.527 55.0879 126.527 55.5424 126.527 56.0878H124.439V44.3066C124.863 44.2031 125.309 44.2495 125.702 44.4379C126.095 44.6263 126.41 44.9451 126.593 45.3396C127.793 44.4009 129.3 43.943 130.821 44.056C132.798 44.1717 134.22 45.2707 134.325 47.2485C134.468 50.1628 134.352 53.0909 134.352 56.1512Z" fill="white"/>
<path d="M92.1709 34.258C91.5439 34.7581 90.817 35.1191 90.0389 35.3167C89.2609 35.5143 88.4495 35.544 87.659 35.4039C85.8034 35.1284 84.6768 34.1368 84.6216 32.2665C84.5139 29.253 84.594 26.234 84.594 23.2315C86.1348 22.9561 86.7229 23.4106 86.7423 24.8595C86.7699 26.7877 86.7975 28.7158 86.7423 30.644C86.6622 33.2746 87.9683 34.0817 90.7517 33.2691C91.9915 32.9083 92.3145 32.316 92.3173 31.0131C92.3173 28.4101 92.3173 25.8098 92.3173 23.226C93.8222 23.0084 94.4766 23.3996 94.4904 24.6033C94.5318 28.0355 94.5042 31.4676 94.5042 34.9962H92.4554L92.1709 34.258Z" fill="white"/>
<path d="M124.304 33.9164L124.92 32.5392C125.914 32.9 126.836 33.2443 127.764 33.5638C127.983 33.6335 128.213 33.667 128.443 33.663C129.733 33.663 130.597 33.0846 130.743 32.137C130.901 31.104 130.373 30.4843 128.99 30.0849C128.242 29.87 127.468 29.7213 126.742 29.4486C125.193 28.8673 124.392 27.6912 124.45 26.2092C124.506 24.8099 125.367 23.7301 126.916 23.2426C128.414 22.7417 130.047 22.8253 131.486 23.4767C131.991 23.7053 132.403 24.1378 132.894 24.5041L132.171 26.1569L131.193 25.4985C130.688 25.1337 130.101 24.8972 129.483 24.8094C128.865 24.7216 128.235 24.7851 127.648 24.9944C127.253 25.1294 126.761 25.6666 126.748 26.0329C126.769 26.2882 126.844 26.5362 126.967 26.7611C127.09 26.9859 127.259 27.1826 127.463 27.3386C127.918 27.6774 128.567 27.76 129.12 27.9528C129.776 28.1407 130.422 28.366 131.053 28.6277C133.405 29.7516 133.734 32.7595 131.71 34.4123C130.1 35.7344 126.463 35.8226 124.807 34.5665C124.617 34.3673 124.449 34.1495 124.304 33.9164Z" fill="white"/>
<path d="M12 54.3497C15.6891 47.5928 19.2373 40.7477 23.1362 34.1147C24.8593 31.1812 27.3334 31.3382 29.5976 34.0376C30.1798 34.7477 30.693 35.5114 31.1301 36.3184C32.9636 39.6238 34.7612 42.9734 36.4649 46.1108C31.108 55.7627 22.0621 59.7541 12 54.3497Z" fill="url(#paint1_linear)"/>
<path d="M141.612 25.0881H137.809C137.809 26.1541 137.809 27.1403 137.809 28.1181C137.809 29.2199 137.809 30.3218 137.809 31.4236C137.809 32.1893 137.912 32.9413 138.638 33.3352C139.466 33.776 140.239 33.5088 140.943 32.9744L141.476 32.5777C142.611 33.8476 142.476 34.5886 140.982 35.1312C140.378 35.3446 139.743 35.4591 139.102 35.47C136.862 35.5141 135.653 34.3682 135.631 32.1508C135.598 28.2944 135.631 24.4546 135.631 20.6065C135.631 20.2952 135.631 19.9867 135.631 19.6864C137.288 19.5267 137.776 19.9206 137.82 21.375C137.837 21.9259 137.82 22.4548 137.82 23.1048H141.534L141.612 25.0881Z" fill="white"/>
<path d="M120.562 54.8124C121.568 55.3083 121.568 55.3083 121.601 56.1897C121.076 56.2849 120.544 56.3364 120.01 56.344C118.997 56.2806 118.317 55.7049 118.304 54.6912C118.248 51.2205 118.282 47.747 118.282 44.2873C119.886 44.0945 120.427 44.5187 120.438 45.9924C120.46 48.4219 120.438 50.8542 120.438 53.2837C120.449 53.7878 120.518 54.2836 120.562 54.8124Z" fill="white"/>
<path d="M120.667 40.4916C120.673 40.6752 120.641 40.8581 120.572 41.0286C120.503 41.199 120.4 41.3532 120.268 41.4813C120.135 41.6094 119.978 41.7086 119.805 41.7725C119.633 41.8364 119.448 41.8636 119.265 41.8523C119.079 41.8553 118.895 41.8211 118.724 41.7516C118.552 41.6822 118.396 41.579 118.265 41.4482C118.134 41.3173 118.031 41.1616 117.962 40.9901C117.893 40.8187 117.859 40.6351 117.862 40.4503C117.864 40.2665 117.903 40.085 117.975 39.916C118.048 39.7471 118.153 39.594 118.284 39.4656C118.416 39.3372 118.572 39.236 118.743 39.1677C118.914 39.0994 119.097 39.0653 119.281 39.0675C119.465 39.0697 119.647 39.108 119.817 39.1803C119.986 39.2526 120.14 39.3575 120.268 39.489C120.397 39.6205 120.498 39.776 120.567 39.9466C120.635 40.1172 120.67 40.2996 120.667 40.4833V40.4916Z" fill="#787878"/>
<defs>
<linearGradient id="paint0_linear" x1="37.4783" y1="45.3286" x2="55.1799" y2="32.9035" gradientUnits="userSpaceOnUse">
<stop stop-color="#EE838C"/>
<stop offset="1" stop-color="#FFC475"/>
</linearGradient>
<linearGradient id="paint1_linear" x1="10.959" y1="52.5509" x2="33.105" y2="39.7341" gradientUnits="userSpaceOnUse">
<stop stop-color="#EA0D8D"/>
<stop offset="0.76" stop-color="#EE838C"/>
</linearGradient>
</defs>
</svg>
