<svg width="160" height="80" viewBox="0 0 160 80" fill="none" xmlns="http://www.w3.org/2000/svg">
<path d="M82.2885 33.5525H80.0431V32.8677C80.0431 32.5041 79.879 32.3134 79.4989 32.3134H70.1889C69.7917 32.3134 69.6189 32.4959 69.6276 32.8938C69.6276 33.761 69.6276 34.6269 69.6276 35.5463C69.6276 36.135 69.7658 36.2736 70.3531 36.2736H79.0585C79.484 36.253 79.9104 36.2859 80.3281 36.3696C80.8882 36.5 81.3871 36.8183 81.7422 37.2725C82.0972 37.7267 82.2869 38.288 82.2799 38.8657C82.2799 39.8962 82.2799 40.9199 82.2799 41.9504C82.2819 42.6063 82.0376 43.2375 81.5958 43.7192C81.1538 44.2008 80.5469 44.4986 79.8963 44.5507C79.3953 44.5507 78.8944 44.5507 78.4021 44.5507C75.7508 44.5507 73.1081 44.4903 70.4567 44.5507C70.0065 44.6042 69.55 44.548 69.1263 44.3861C68.7026 44.2241 68.3243 43.9607 68.0239 43.6204C67.7234 43.2801 67.5097 42.8711 67.4008 42.4293C67.2921 41.9874 67.2916 41.5264 67.3995 41.0845H69.6362V41.8036C69.6265 41.8749 69.6331 41.9463 69.6556 42.0149C69.6779 42.0821 69.7157 42.1439 69.7658 42.196C69.8157 42.2468 69.8768 42.2852 69.9442 42.3085C70.0116 42.3332 70.0835 42.3401 70.1545 42.3319H79.5076C79.5822 42.3428 79.6583 42.3346 79.7295 42.3113C79.8009 42.2866 79.8655 42.2454 79.9184 42.1919C79.9712 42.1384 80.0107 42.0725 80.0339 41.9998C80.0571 41.9284 80.0632 41.8516 80.0516 41.7775V39.125C80.0516 38.5446 79.9222 38.4238 79.3435 38.4238H70.1976C69.8389 38.4554 69.4778 38.4101 69.137 38.2935C68.7963 38.1782 68.4835 37.9916 68.2186 37.7459C67.9537 37.5017 67.7425 37.2039 67.5985 36.8732C67.4545 36.5425 67.3808 36.1844 67.3822 35.8235C67.326 34.7559 67.326 33.6856 67.3822 32.6166C67.4197 31.9525 67.7091 31.3295 68.191 30.8725C68.6729 30.417 69.3106 30.1631 69.973 30.1645C73.1858 30.1645 76.4014 30.1645 79.6198 30.1645C79.9711 30.1562 80.3201 30.2221 80.6457 30.3538C80.9713 30.4856 81.2666 30.6832 81.5138 30.9343C81.761 31.184 81.9548 31.4832 82.0836 31.8111C82.2123 32.1391 82.2733 32.4904 82.2626 32.8417L82.2885 33.5525Z" fill="#F1F1F1"/>
<path d="M50.9298 44.526H48.7361V39.5517H38.312V44.5082H36.0752C36.0752 44.3435 36.0752 44.1884 36.0752 44.0402C36.0752 40.3572 36.0752 36.6742 36.0752 32.9912C36.0436 32.607 36.0958 32.2228 36.2279 31.8619C36.3601 31.501 36.5693 31.173 36.8407 30.9013C37.1119 30.6296 37.4391 30.4211 37.7991 30.2893C38.1591 30.1576 38.5435 30.1068 38.9252 30.1397H48.1315C48.5108 30.1041 48.8929 30.1548 49.2508 30.2838C49.6087 30.4142 49.9337 30.6228 50.2024 30.8931C50.4713 31.1634 50.6773 31.49 50.8061 31.8495C50.9347 32.209 50.9829 32.5933 50.9471 32.9734C50.9471 36.677 50.9471 40.3751 50.9471 44.0663C50.9471 44.2049 50.9384 44.3531 50.9298 44.526ZM38.3034 37.315H48.6669C48.6669 37.1682 48.6669 37.0378 48.6669 36.9171V33.0173C48.6669 32.4451 48.5462 32.3229 47.9675 32.3229H38.7525C38.6914 32.3174 38.6298 32.3257 38.5723 32.3476C38.5146 32.3682 38.4625 32.4025 38.4195 32.4464C38.3767 32.4903 38.3439 32.5439 38.3238 32.6015C38.3037 32.6591 38.2968 32.7222 38.3034 32.7826C38.2947 34.2824 38.3034 35.7727 38.3034 37.315Z" fill="#F1F1F1"/>
<path d="M91.0628 44.5424C89.5256 44.5424 87.9883 44.5424 86.4597 44.5424C86.0836 44.5617 85.7076 44.5013 85.356 44.3654C85.0043 44.231 84.6844 44.0238 84.4165 43.7589C84.1485 43.4927 83.9385 43.1744 83.7996 42.8231C83.6607 42.4718 83.5961 42.0958 83.6097 41.7171C83.6787 38.7627 83.6097 35.807 83.6097 32.8512C83.5924 32.4903 83.6507 32.1281 83.7808 31.7905C83.9111 31.4516 84.1102 31.1456 84.3655 30.889C84.6208 30.6323 84.9268 30.4334 85.2636 30.3016C85.6004 30.1713 85.9607 30.1137 86.3214 30.1301H95.761C96.1269 30.1095 96.4931 30.1658 96.8356 30.2962C97.178 30.4279 97.4889 30.6296 97.7478 30.8903C98.0065 31.151 98.2072 31.4639 98.3366 31.807C98.4662 32.1514 98.5213 32.5191 98.4987 32.8869V41.8131C98.5172 42.1754 98.4599 42.5377 98.3303 42.878C98.2006 43.2169 98.0017 43.5243 97.7461 43.7822C97.4907 44.0388 97.1843 44.2392 96.847 44.3709C96.5094 44.5013 96.1483 44.5603 95.7869 44.5424C94.2237 44.5521 92.6433 44.5424 91.0628 44.5424ZM91.0628 42.3757H95.6314C96.141 42.3757 96.262 42.255 96.2706 41.7528V32.9294C96.2706 32.445 96.141 32.3229 95.6574 32.3229H86.477C85.9673 32.3229 85.855 32.4354 85.855 32.9651V41.7431C85.855 42.255 85.976 42.3757 86.4942 42.3757H91.0628Z" fill="#F1F1F1"/>
<path d="M112.611 41.4921V30.1645H114.813V44.5342C113.949 44.5342 113.086 44.5342 112.265 44.5342C112.144 44.5342 112.015 44.3696 111.92 44.2475C108.788 40.6481 105.656 37.0461 102.524 33.4413L102.213 33.0941V44.5082H99.9931V30.1384C100.624 30.1384 101.263 30.1384 101.893 30.1384C102.121 30.1164 102.35 30.1562 102.558 30.2523C102.766 30.347 102.945 30.4965 103.076 30.6845C106.142 34.2468 109.234 37.7912 112.317 41.3452C112.379 41.4221 112.431 41.5058 112.473 41.5963L112.611 41.4921Z" fill="#F1F1F1"/>
<path d="M6.21956 44.5164H4V30.2001H4.4491H16.0909C16.4559 30.1754 16.8217 30.2303 17.1644 30.3579C17.507 30.4869 17.8187 30.6859 18.079 30.9439C18.3392 31.2019 18.5421 31.512 18.6742 31.855C18.8064 32.1967 18.865 32.5631 18.846 32.9295C18.846 34.1892 18.846 35.4461 18.846 36.7003C18.8612 37.0639 18.8 37.4276 18.666 37.7665C18.5322 38.1054 18.3288 38.4128 18.0689 38.6681C17.8091 38.9233 17.4986 39.1209 17.158 39.2471C16.8172 39.3734 16.4536 39.4269 16.0909 39.4036H6.21956V44.5164ZM11.4014 32.3833H6.80684C6.34047 32.3833 6.20228 32.5219 6.20228 32.9995C6.20228 34.2043 6.20228 35.4173 6.20228 36.6303C6.20228 37.1243 6.34909 37.2807 6.82409 37.2807H15.996C16.4882 37.2807 16.6177 37.1504 16.6177 36.6386V32.9995C16.6177 32.4451 16.5055 32.3408 15.9354 32.3408L11.4014 32.3833Z" fill="#F1F1F1"/>
<path d="M60.343 44.5178H58.1236V43.2169C58.1236 42.0217 58.1236 40.8251 58.1236 39.6203C58.1361 39.3047 58.0313 38.996 57.8298 38.7545C55.7514 36.0444 53.6758 33.326 51.6031 30.5981C51.4994 30.4691 51.4044 30.3305 51.2489 30.1219C52.1125 30.1219 52.9762 30.1219 53.7448 30.1219C53.8657 30.1219 54.0039 30.2783 54.0989 30.3909L58.9699 36.3449L59.2204 36.6481L59.5053 36.327C61.1116 34.3511 62.7267 32.3751 64.3244 30.3909C64.3925 30.2934 64.485 30.2152 64.5926 30.1644C64.7003 30.115 64.8193 30.0945 64.9377 30.1041C65.6631 30.1041 66.3798 30.1041 67.2003 30.1041L66.8808 30.5638C64.7908 33.2945 62.7181 36.0238 60.6194 38.7545C60.4203 38.9974 60.3187 39.3061 60.3344 39.6203C60.3344 41.0763 60.3344 42.5322 60.3344 43.9538L60.343 44.5178Z" fill="#F1F1F1"/>
<path d="M19.9593 30.1302H22.1358V42.3593H34.7793V44.5164H19.9593V30.1302Z" fill="#F1F1F1"/>
<path d="M68.8759 54.0752H68.2886V53.6251C68.2886 52.7579 68.2886 51.796 68.2886 50.8862C68.2886 50.2275 67.995 50.019 67.3387 50.019H67.0795C66.2159 50.1754 66.1727 50.2536 66.1727 51.103V53.9888H65.5941V53.1833C65.5941 52.316 65.5941 51.527 65.5941 50.7037C65.5941 50.1672 65.335 49.9243 64.8168 49.9847C64.4237 50.0423 64.0402 50.1534 63.6768 50.314C63.5732 50.314 63.4955 50.5829 63.4955 50.7298C63.4955 51.6574 63.4955 52.585 63.4955 53.5126V53.997H62.9599V49.6032L63.6078 49.8721C64.0785 49.7473 64.5576 49.654 65.0413 49.595C65.3243 49.595 65.5998 49.6855 65.8272 49.8543C65.9014 49.9119 65.9926 49.9435 66.0863 49.9435C66.1801 49.9435 66.2712 49.9119 66.3455 49.8543C66.8691 49.5565 67.4847 49.4632 68.0727 49.595C68.2735 49.6169 68.4603 49.7088 68.6007 49.8543C68.7413 49.9997 68.8264 50.1905 68.8413 50.3922C68.8931 50.9013 68.919 51.4145 68.919 51.9263C68.8844 52.6536 68.8759 53.3383 68.8759 54.0752Z" fill="#F1F1F1"/>
<path d="M56.8027 54.1274C56.2273 54.1589 55.6509 54.1589 55.0755 54.1274C54.7329 54.1301 54.4025 54.0011 54.1531 53.7651C53.9037 53.5291 53.7547 53.2066 53.7368 52.8622C53.6634 52.2008 53.6634 51.5311 53.7368 50.8697C53.7614 50.5555 53.8982 50.2619 54.1223 50.0423C54.3461 49.8228 54.6418 49.691 54.9546 49.6732C55.7405 49.6046 56.5351 49.6732 57.3641 49.6732C57.3641 49.8557 57.3641 49.9943 57.3641 50.1329V54.1891C57.3641 55.3418 56.915 55.8179 55.7751 55.844C55.2395 55.844 54.7041 55.7836 54.16 55.7658C53.8923 55.7658 53.8145 55.6272 53.901 55.3418C54.255 55.3418 54.6177 55.3418 54.9805 55.3939C55.2364 55.4104 55.4932 55.4104 55.7492 55.3939C56.6818 55.2979 56.8977 54.9603 56.8027 54.1274ZM56.8027 50.0725C56.2673 50.0725 55.7837 50.0725 55.3087 50.0725C55.0323 50.0725 54.7668 50.1809 54.5697 50.3757C54.3726 50.5706 54.2595 50.8341 54.255 51.1126C54.2119 51.6396 54.2119 52.1706 54.255 52.6975C54.254 52.9363 54.3423 53.1668 54.502 53.3438C54.6619 53.5195 54.882 53.6292 55.1187 53.6512C55.6002 53.6745 56.083 53.654 56.5609 53.5908C56.6146 53.5744 56.663 53.5442 56.7009 53.503C56.7389 53.4618 56.7651 53.4111 56.7768 53.3562C56.8373 52.2996 56.8287 51.2251 56.8287 50.0725H56.8027Z" fill="#F1F1F1"/>
<path d="M80.0513 49.6567V51.5202C80.0513 52.4478 80.0513 53.374 80.0513 54.3016C80.0819 54.502 80.066 54.7078 80.0048 54.9013C79.9436 55.0948 79.8386 55.2704 79.6982 55.4173C79.5578 55.5627 79.3856 55.6739 79.1951 55.7425C79.0048 55.8111 78.8012 55.833 78.6004 55.8097C78.0061 55.8248 77.4115 55.796 76.8213 55.7233C76.709 55.7233 76.6054 55.5504 76.5017 55.4543L76.5796 55.324L77.6764 55.3761C77.9638 55.3967 78.2525 55.3967 78.54 55.3761C79.3 55.2814 79.559 54.8739 79.4036 54.1466C78.8282 54.1782 78.2516 54.1782 77.6764 54.1466C77.3269 54.1466 76.9909 54.0107 76.7384 53.7692C76.4857 53.5263 76.3359 53.1957 76.3204 52.8457C76.247 52.1953 76.247 51.538 76.3204 50.8876C76.3469 50.5761 76.4847 50.2838 76.7084 50.0656C76.9322 49.8475 77.2267 49.7171 77.5382 49.7006C78.3931 49.6046 79.1877 49.6567 80.0513 49.6567ZM79.464 50.0725C78.9199 50.0725 78.4364 50.0725 77.9613 50.0725C77.6849 50.0752 77.4204 50.1864 77.2249 50.3826C77.0294 50.5788 76.9186 50.8437 76.9163 51.1209C76.8774 51.6354 76.8774 52.15 76.9163 52.6646C76.9087 52.9075 76.9939 53.1435 77.1544 53.326C77.315 53.5071 77.5387 53.621 77.78 53.643C78.2728 53.6732 78.7673 53.6567 79.2568 53.5909C79.3091 53.5716 79.3554 53.5387 79.3917 53.4975C79.4281 53.455 79.4529 53.4029 79.464 53.348C79.4727 52.2914 79.464 51.2251 79.464 50.0725Z" fill="#F1F1F1"/>
<path d="M41.87 49.6568V55.7233H41.3173V53.9902C40.8053 54.0725 40.2892 54.1274 39.7714 54.1549C39.5787 54.185 39.3817 54.1727 39.1941 54.1192C39.0066 54.0643 38.8328 53.971 38.685 53.8434C38.5371 53.7157 38.4187 53.5566 38.3378 53.3782C38.2571 53.2012 38.2158 53.0063 38.2169 52.8115C38.1392 52.161 38.1392 51.5038 38.2169 50.852C38.2374 50.5432 38.3697 50.2509 38.5892 50.0327C38.8086 49.8146 39.1 49.6842 39.4087 49.665C40.2723 49.6046 41.0237 49.6568 41.87 49.6568ZM41.3 50.0643H40.2118C40.0825 50.0547 39.9527 50.0547 39.8232 50.0643C39.2273 50.1164 38.8818 50.3675 38.8128 50.9302C38.7444 51.5065 38.7444 52.0883 38.8128 52.6633C38.8991 53.3741 39.2532 53.6513 39.9701 53.6348C40.3517 53.6115 40.7304 53.5538 41.1014 53.4619C41.1555 53.444 41.2043 53.4139 41.2436 53.3727C41.2828 53.3315 41.3111 53.2821 41.3259 53.2273C41.3 52.231 41.3 51.1813 41.3 50.0643Z" fill="#F1F1F1"/>
<path d="M48.1661 52.0567C48.1056 53.1915 48.5374 53.669 49.5824 53.7034C50.1611 53.7034 50.7483 53.7034 51.3702 53.7034C51.4479 53.9106 51.3702 54.067 51.0592 54.0752C50.3516 54.115 49.6423 54.115 48.9347 54.0752C48.6153 54.067 48.3102 53.9407 48.0765 53.7226C47.8428 53.5044 47.6965 53.208 47.6651 52.8882C47.5788 52.2268 47.5788 51.5572 47.6651 50.8958C47.7164 50.5514 47.8815 50.2358 48.1338 49.9984C48.3861 49.761 48.7109 49.6155 49.0556 49.5867C49.397 49.4811 49.7603 49.4728 50.1066 49.5593C50.4528 49.6471 50.7687 49.8268 51.0202 50.0821C51.2716 50.3359 51.4493 50.6543 51.5338 51.0015C51.6184 51.35 51.6066 51.715 51.4996 52.0567H48.1661ZM50.9124 51.597C50.9728 50.904 50.7656 50.3922 50.2905 50.1932C50.0177 50.0533 49.7113 49.9929 49.4061 50.019C49.1007 50.045 48.8089 50.1562 48.5633 50.3401C48.3856 50.4896 48.2567 50.69 48.1935 50.9136C48.1304 51.1387 48.1359 51.3761 48.2092 51.597H50.9124Z" fill="#F1F1F1"/>
<path d="M61.2418 51.4584C61.2418 51.2073 61.2418 51.0262 61.2418 50.8437C61.2418 50.3319 61.0172 50.1068 60.5076 50.0725C59.9981 50.0382 59.264 50.0725 58.4954 50.0725C58.6335 49.9078 58.7113 49.7171 58.8063 49.7171C59.5252 49.6691 60.2464 49.6691 60.9653 49.7171C61.0841 49.7171 61.2015 49.7404 61.3104 49.7884C61.4194 49.8351 61.5174 49.9051 61.5985 49.9915C61.6795 50.0794 61.7418 50.1823 61.7815 50.2934C61.8211 50.406 61.8373 50.5253 61.8289 50.6447C61.8722 51.7795 61.8289 52.924 61.8289 54.1109C61.6044 54.1109 61.3454 54.2838 61.2591 53.868C60.623 54.1946 59.8984 54.3044 59.1949 54.1809C58.9448 54.1425 58.7178 54.0121 58.5581 53.8145C58.3985 53.6169 58.3177 53.3686 58.3312 53.1147C58.2709 52.3257 58.4695 51.8756 59.0654 51.7013C59.4938 51.6039 59.9304 51.5463 60.3695 51.5284C60.6027 51.442 60.8963 51.4584 61.2418 51.4584ZM61.2418 51.8317C60.5768 51.8838 59.9808 51.8921 59.3936 51.9881C58.9617 52.0567 58.8149 52.36 58.8236 52.8979C58.8322 53.4344 59.0049 53.6348 59.454 53.7212C60.0147 53.8145 60.5905 53.7143 61.0863 53.4344C61.1274 53.4111 61.1623 53.3768 61.1878 53.3356C61.2134 53.2945 61.2289 53.2492 61.2331 53.2011C61.2504 52.7757 61.2504 52.3517 61.2504 51.8317H61.2418Z" fill="#F1F1F1"/>
<path d="M102.36 51.8577V51.5984C102.349 51.2265 102.44 50.8601 102.624 50.5377C102.808 50.2152 103.076 49.9503 103.4 49.7706C103.724 49.5922 104.091 49.5057 104.46 49.5222C104.83 49.5387 105.188 49.6581 105.495 49.8653C105.712 49.9778 105.897 50.1425 106.034 50.3456C106.172 50.5486 106.256 50.7819 106.281 51.0262C106.344 51.4914 106.364 51.9606 106.341 52.4299C106.229 53.7473 105.391 54.3716 104.001 54.163C103.559 54.1383 103.144 53.9462 102.84 53.6238C102.537 53.3013 102.368 52.8732 102.368 52.4299C102.368 52.2392 102.368 52.0567 102.368 51.8756L102.36 51.8577ZM102.938 51.8577C102.966 52.1953 103.015 52.5315 103.085 52.8636C103.249 53.4522 103.69 53.6869 104.467 53.669C105.244 53.6526 105.633 53.374 105.702 52.8032C105.771 52.1829 105.771 51.5586 105.702 50.9397C105.682 50.716 105.585 50.5061 105.427 50.3483C105.269 50.1891 105.061 50.0917 104.838 50.0725C103.776 49.8996 102.956 50.1246 102.93 51.5119L102.938 51.8577Z" fill="#F1F1F1"/>
<path d="M90.2421 51.9099V52.0403C90.2421 53.7034 89.3352 54.4238 87.6511 54.1288C87.2911 54.0958 86.9541 53.9366 86.7009 53.6773C86.4476 53.4193 86.2946 53.0777 86.2693 52.7154C86.2051 52.1404 86.2051 51.5586 86.2693 50.9823C86.3001 50.6502 86.4425 50.3401 86.6734 50.1C86.9043 49.8598 87.2095 49.7075 87.5388 49.665C87.8225 49.6046 88.1128 49.5813 88.4024 49.5963C88.8606 49.5963 89.3 49.7789 89.6239 50.1041C89.9478 50.4279 90.1298 50.8698 90.1298 51.3294C90.1298 51.5106 90.1298 51.7013 90.1298 51.8838L90.2421 51.9099ZM89.6548 51.9099C89.6349 51.5957 89.5974 51.2828 89.5425 50.974C89.3871 50.3318 88.9811 50.0643 88.1952 50.1068C87.4094 50.1507 86.9688 50.3758 86.8825 51.0344C86.8092 51.6396 86.8092 52.2502 86.8825 52.854C86.9125 53.0735 87.0131 53.2766 87.169 53.4331C87.325 53.5895 87.5277 53.691 87.7461 53.7212C87.9649 53.8063 88.2019 53.8324 88.434 53.7994C88.6661 53.7651 88.8857 53.6718 89.0714 53.5277C89.2573 53.385 89.403 53.1957 89.4946 52.9789C89.5861 52.762 89.6205 52.5246 89.5944 52.2914L89.6548 51.9099Z" fill="#F1F1F1"/>
<path d="M72.2963 54.0766H71.7436V49.6993C71.9853 49.6993 72.2877 49.5346 72.3221 49.8982C72.9074 49.7555 73.5018 49.654 74.1012 49.595C74.2721 49.5648 74.4475 49.5744 74.614 49.6238C74.7804 49.6732 74.9333 49.761 75.0604 49.879C75.1876 49.9971 75.2858 50.1439 75.3471 50.3072C75.4085 50.4691 75.4313 50.6447 75.414 50.8176C75.4745 51.8921 75.414 52.9844 75.414 54.0849H74.8526V53.0529C74.8526 52.3517 74.8526 51.6492 74.8526 50.9562C74.8526 50.2632 74.49 49.9861 73.8249 50.089C73.408 50.1603 72.9955 50.255 72.5899 50.3758C72.3481 50.4279 72.2963 50.5747 72.2963 50.8094C72.2963 51.7535 72.2963 52.6976 72.2963 53.643V54.0766Z" fill="#F1F1F1"/>
<path d="M110.97 54.0753H110.4V53.6156C110.4 52.7497 110.4 51.8825 110.4 51.0166C110.4 50.1494 110.037 50.0025 109.303 50.0629H109.001C107.93 50.2276 107.852 50.3222 107.852 51.3885V54.0409H107.282V49.7075C107.533 49.7075 107.835 49.5085 107.878 49.9161C108.431 49.7665 108.994 49.6595 109.562 49.595C109.743 49.5538 109.931 49.5566 110.111 49.6032C110.29 49.6499 110.456 49.7391 110.595 49.8626C110.733 49.9861 110.84 50.1411 110.907 50.314C110.974 50.4883 110.998 50.6749 110.979 50.8602C111.004 51.9181 110.97 52.9747 110.97 54.0753Z" fill="#F1F1F1"/>
<path d="M26.9725 49.7089H27.5252C27.5252 50.4704 27.5252 51.2073 27.5252 51.9442C27.5079 52.2735 27.5079 52.6029 27.5252 52.9322C27.5858 53.4605 27.8534 53.7377 28.3888 53.6951C28.9041 53.6251 29.4125 53.5126 29.9088 53.3562C30.0039 53.3562 30.0903 53.0969 30.0989 52.9583C30.0989 51.9099 30.0989 50.8697 30.0989 49.8296C30.0948 49.7898 30.0948 49.7487 30.0989 49.7089H30.6171V54.0409C30.3666 54.0409 30.0384 54.2578 30.0384 53.8159C29.4703 53.9614 28.8933 54.0684 28.3112 54.137C28.1338 54.1768 27.9495 54.174 27.7731 54.1301C27.5969 54.0848 27.4335 53.9998 27.2964 53.879C27.1593 53.7596 27.0522 53.6087 26.984 53.4399C26.9157 53.2711 26.8881 53.0886 26.9035 52.9061C26.9208 51.866 26.9725 50.8176 26.9725 49.7089Z" fill="#F1F1F1"/>
<path d="M96.0287 49.7007H96.5297V54.1548L95.8301 53.8694C95.317 54.0053 94.7946 54.1041 94.267 54.1631C94.0899 54.2001 93.9068 54.196 93.7321 54.1494C93.5574 54.1027 93.3958 54.0163 93.2608 53.8955C93.1256 53.7748 93.0203 53.6238 92.9536 53.455C92.8869 53.2862 92.8605 53.1051 92.8765 52.924C92.8247 51.8674 92.8765 50.8176 92.8765 49.7007H93.4119V50.2111C93.4119 51.0084 93.4119 51.8152 93.4119 52.6125C93.4119 53.4097 93.7314 53.7912 94.621 53.7295H94.7419C95.8474 53.6087 95.9856 53.4523 95.9856 52.3518C95.9856 51.5284 95.9856 50.7051 95.9856 49.8736C95.9923 49.8146 96.0069 49.7555 96.0287 49.7007Z" fill="#F1F1F1"/>
<path d="M43.0013 49.7007H43.5022C43.5022 49.8475 43.5022 50.0039 43.5022 50.1507C43.5022 50.9658 43.5022 51.7795 43.5022 52.5946C43.5022 53.4097 43.8304 53.7912 44.7113 53.6952C45.1031 53.6361 45.4861 53.5291 45.8513 53.3754C45.9143 53.3301 45.9665 53.2725 46.004 53.2053C46.0413 53.1367 46.063 53.0626 46.0672 52.9844C46.0672 52.0581 46.0672 51.1305 46.0672 50.2029V49.7089H46.62V54.0423C46.3437 54.0423 46.0499 54.1809 46.0241 53.8434C45.4289 53.9778 44.8262 54.0766 44.2191 54.137C44.061 54.159 43.9002 54.1452 43.7477 54.0986C43.5954 54.0506 43.4551 53.971 43.3366 53.8639C43.2183 53.7569 43.1246 53.6252 43.0623 53.477C42.9998 53.3301 42.9702 53.171 42.9754 53.0104C42.9667 51.9442 43.0013 50.8176 43.0013 49.7007Z" fill="#F1F1F1"/>
<path d="M32.3534 54.067H31.8265V49.621L32.4915 49.89C33.0385 49.7473 33.5959 49.6485 34.1584 49.595C34.3302 49.5634 34.507 49.573 34.6749 49.621C34.8427 49.6691 34.997 49.7569 35.1259 49.8749C35.2548 49.9929 35.3544 50.1397 35.4174 50.303C35.4803 50.4663 35.5046 50.6433 35.4884 50.8176C35.5316 51.8838 35.4884 52.95 35.4884 54.0409H34.927V52.7854C34.927 52.161 34.927 51.5284 34.927 50.9041C34.927 50.2797 34.5729 50.0368 33.9165 50.0368H33.571C32.4571 50.2015 32.3706 50.2975 32.3706 51.4159L32.3534 54.067Z" fill="#F1F1F1"/>
<path d="M85.5526 50.0725C84.7926 50.0725 84.1966 50.0725 83.6093 50.0725C83.2984 50.0725 83.0048 50.1672 82.9444 50.5404C82.9162 50.69 82.9436 50.845 83.0216 50.9754C83.0995 51.1071 83.2227 51.2046 83.3676 51.2512C83.9548 51.5284 84.5767 51.7534 85.1466 52.0567C85.3857 52.1774 85.5682 52.3874 85.6554 52.6413C85.7424 52.8965 85.7273 53.1737 85.613 53.4179C85.5538 53.6059 85.44 53.772 85.2863 53.8955C85.1325 54.019 84.9457 54.0944 84.7494 54.1109C84.0591 54.1534 83.3669 54.1534 82.6767 54.1109C82.573 54.1109 82.478 53.9119 82.3744 53.798L82.4608 53.6951C82.9789 53.6951 83.497 53.7555 84.0153 53.7637C84.2392 53.7829 84.4646 53.7473 84.6717 53.6594C84.7738 53.6073 84.8647 53.5359 84.9388 53.4481C85.0129 53.3603 85.0689 53.2588 85.1035 53.149C85.1032 53.0282 85.0777 52.9088 85.0286 52.7977C84.9796 52.6879 84.9079 52.5877 84.8184 52.5068C84.5274 52.3311 84.2174 52.1884 83.8944 52.0828C83.5297 51.9318 83.1749 51.7589 82.8322 51.5627C82.6466 51.4488 82.5043 51.2759 82.4275 51.0728C82.3509 50.8684 82.3444 50.6447 82.4089 50.4361C82.4474 50.2536 82.5441 50.0876 82.6842 49.9641C82.8242 49.8406 83.0003 49.7665 83.1862 49.7514C83.8764 49.7075 84.5687 49.7075 85.2589 49.7514C85.328 49.691 85.4144 49.8982 85.5526 50.0725Z" fill="#F1F1F1"/>
<path d="M114.83 50.0629C114.252 50.0629 113.673 50.0629 113.103 50.0629C112.784 50.0629 112.455 50.1411 112.386 50.5308C112.317 50.9205 112.55 51.1456 112.879 51.2842C113.354 51.501 113.854 51.6752 114.33 51.8907C114.513 51.9524 114.678 52.0567 114.811 52.1981C114.943 52.3394 115.039 52.5109 115.09 52.6976C115.138 52.8485 115.152 53.0104 115.13 53.1682C115.108 53.326 115.05 53.4756 114.961 53.6087C114.871 53.7404 114.754 53.8502 114.616 53.9298C114.478 54.0094 114.324 54.056 114.165 54.067C113.476 54.1233 112.783 54.1233 112.093 54.067C111.799 54.067 111.825 53.8502 111.877 53.6416C112.421 53.6416 112.939 53.702 113.466 53.7116C113.663 53.7322 113.862 53.702 114.044 53.6252C114.243 53.503 114.485 53.2958 114.502 53.0955C114.501 52.9706 114.473 52.8457 114.419 52.7319C114.365 52.618 114.288 52.5178 114.191 52.4368C113.873 52.2516 113.538 52.0979 113.189 51.9785C112.873 51.8482 112.565 51.7 112.265 51.5353C112.08 51.4255 111.936 51.2567 111.853 51.0578C111.771 50.8574 111.755 50.6365 111.808 50.4265C111.838 50.2331 111.934 50.056 112.078 49.9229C112.223 49.7912 112.407 49.7116 112.602 49.6993C113.293 49.6595 113.985 49.6595 114.675 49.6993C114.77 49.6993 114.856 49.8886 114.951 49.9929L114.83 50.0629Z" fill="#F1F1F1"/>
<path d="M98.1966 50.1672L97.1775 50.0711V49.6814H98.1966V48.5466H98.7666V49.6553H100.123V50.1411H98.7666C98.7666 51.2416 98.7666 52.2817 98.7666 53.3136C98.7625 53.3713 98.7712 53.4303 98.792 53.4838C98.813 53.5387 98.8456 53.5881 98.8877 53.6293C98.9297 53.6691 98.9801 53.7006 99.0353 53.7184C99.0906 53.7376 99.1492 53.7445 99.2071 53.7377H100.071C100.166 53.9545 100.148 54.1109 99.8548 54.1274C99.7714 54.1232 99.6878 54.1232 99.6043 54.1274C98.5075 54.2495 98.1707 53.9545 98.1707 52.8443L98.1966 50.1672Z" fill="#F1F1F1"/>
<path d="M91.2269 47.8715H91.7537V54.0587H91.2269V47.8715Z" fill="#F1F1F1"/>
<path d="M100.856 49.7007H101.4V54.0341H100.856V49.7007Z" fill="#F1F1F1"/>
<path d="M70.0158 49.7007H70.5339V54.0341H70.0158V49.7007Z" fill="#F1F1F1"/>
<path d="M36.6453 49.7007H37.198V54.0341H36.6453V49.7007Z" fill="#F1F1F1"/>
<path d="M37.1894 48.7991H36.6453V47.8797H37.1894V48.7991Z" fill="#F1F1F1"/>
<path d="M101.392 48.8155H100.865V47.8715H101.392V48.8155Z" fill="#F1F1F1"/>
<path d="M70.0251 47.8618H70.5519V48.7977H70.0251V47.8618Z" fill="#F1F1F1"/>
<path d="M144.634 35.2952C145.194 35.4461 145.73 35.6712 146.231 35.9621C149.445 37.418 152.64 38.8835 155.845 40.3559H156V40.4437C154.964 40.7977 154.004 41.3096 153.012 41.761L144.954 45.444C144.853 45.4934 144.75 45.5333 144.643 45.5648V45.5127C144.643 45.0104 144.643 44.5164 144.643 44.0142C144.643 41.09 144.643 38.17 144.643 35.2513L144.634 35.2952Z" fill="#FEE702"/>
<path d="M144.634 35.2952L144.436 35.3734L135.575 39.4296L133.398 40.4176L139.159 43.018L144.626 45.5044V45.5566L139.03 48.1569L133.804 50.5487C133.666 50.6488 133.501 50.7065 133.329 50.7133V30.1302C133.963 30.314 134.576 30.5693 135.152 30.8931C138.201 32.2708 141.241 33.6746 144.271 35.0701C144.418 35.1305 144.573 35.1387 144.634 35.2952Z" fill="#01AEEE"/>
<path d="M133.347 30.1301L133.148 30.1905L122.387 35.1222C122.301 35.1222 122.188 35.1744 122.18 35.3048H122.076C122.076 35.2087 122.076 35.1058 122.076 35.0097V25.2259C122.076 25.1298 122.076 25.0255 122.145 24.913L123.441 25.503L133.044 29.9051C133.13 29.9572 133.285 30.0176 133.347 30.1301Z" fill="#EB038D"/>
<path d="M133.338 50.7394C132.55 51.1839 131.733 51.5778 130.894 51.9181L122.482 55.7754C122.025 55.9826 122.025 55.9826 122.025 55.4721V45.938C122.025 45.7994 122.025 45.6526 122.025 45.514H122.137C122.206 45.6608 122.353 45.6869 122.482 45.7473L127.517 48.0622L133.338 50.7394Z" fill="#FBB043"/>
<path d="M122.171 45.5648H122.059C122.059 42.1946 122.059 38.8314 122.059 35.4598C122.056 35.42 122.056 35.3789 122.059 35.3391H122.163L122.361 35.4173L133.338 40.4176V40.5041L132.983 40.6427L122.171 45.5648Z" fill="#EC1D25"/>
</svg>
