<svg width="162" height="80" viewBox="0 0 162 80" fill="none" xmlns="http://www.w3.org/2000/svg">
<g filter="url(#filter0_d)">
<path d="M64.2645 43.1808C64.2645 44.6316 65.4075 45.7724 66.8284 45.7724C67.1408 45.7724 67.4514 45.7039 68.2133 45.4264L69.2859 48.0882C68.2477 48.5027 67.5561 48.6415 66.8284 48.6415C66.1096 48.6428 65.3975 48.5025 64.7331 48.2285C64.0687 47.9546 63.4651 47.5524 62.9568 47.0451C62.4485 46.5377 62.0455 45.9352 61.7711 45.2721C61.4966 44.609 61.356 43.8983 61.3574 43.1808V25.5175H64.2662V29.9419H69.2859V32.8109H64.2662V43.1808H64.2645ZM71.2029 43.1808V34.3303C71.2029 31.2882 73.6604 28.8679 76.6739 28.8679C79.6875 28.8679 82.145 31.2882 82.145 34.3303V43.1791C82.1463 43.8965 82.0057 44.6072 81.7313 45.2704C81.4568 45.9335 81.0539 46.536 80.5456 47.0434C80.0373 47.5507 79.4336 47.9529 78.7692 48.2268C78.1048 48.5008 77.3928 48.6411 76.6739 48.6397C75.9551 48.6411 75.243 48.5008 74.5786 48.2268C73.9142 47.9529 73.3106 47.5507 72.8023 47.0434C72.294 46.536 71.891 45.9335 71.6166 45.2704C71.3421 44.6072 71.2015 43.8965 71.2029 43.1791V43.1808ZM76.6739 31.737C75.289 31.737 74.1117 32.912 74.1117 34.3303V43.1791C74.1117 44.5956 75.289 45.7707 76.6739 45.7707C78.0932 45.7707 79.2361 44.6299 79.2361 43.1791V34.3303C79.2361 32.8778 78.0932 31.737 76.6739 31.737ZM98.6045 33.7445C98.6045 32.6722 97.7052 31.7404 96.5966 31.7404C95.524 31.7404 94.5887 32.6722 94.5887 33.7445V48.2612H91.7142V33.7445C91.7142 32.6722 90.8132 31.7404 89.7063 31.7404C88.632 31.7404 87.6984 32.6722 87.6984 33.7445V48.2612H84.8239V33.7445C84.823 33.1042 84.9486 32.47 85.1936 31.8783C85.4387 31.2865 85.7982 30.7488 86.2518 30.296C86.7053 29.8432 87.2439 29.4841 87.8367 29.2393C88.4294 28.9946 89.0648 28.8689 89.7063 28.8696C90.349 28.8646 90.9862 28.9875 91.5808 29.231C92.1754 29.4745 92.7155 29.8338 93.1694 30.2879C93.6144 29.8318 94.1477 29.4708 94.7369 29.227C95.3261 28.9831 95.9588 28.8616 96.5966 28.8696C97.2408 28.8651 97.8797 28.9878 98.4762 29.2308C99.0727 29.4738 99.6152 29.8321 100.072 30.2852C100.53 30.7384 100.892 31.2773 101.14 31.871C101.388 32.4647 101.515 33.1014 101.515 33.7445V48.2612H98.6045V33.7445ZM116.995 34.3303C116.995 33.9943 116.929 33.6614 116.801 33.3508C116.672 33.0403 116.484 32.7581 116.246 32.5205C116.008 32.2829 115.725 32.0945 115.414 31.9662C115.103 31.8379 114.769 31.7723 114.432 31.7729C113.047 31.7729 111.87 32.9137 111.87 34.332V48.2612H108.96V21.9221H111.87V29.5273C112.655 29.0963 113.536 28.87 114.432 28.8696C115.151 28.8682 115.864 29.0086 116.528 29.2827C117.193 29.5567 117.796 29.9591 118.305 30.4666C118.813 30.9741 119.216 31.5768 119.49 32.2402C119.765 32.9035 119.905 33.6144 119.903 34.332V48.2612H116.995V34.3303ZM122.485 43.1808V34.3303C122.483 33.6126 122.623 32.9018 122.898 32.2384C123.172 31.5751 123.575 30.9724 124.083 30.4649C124.592 29.9573 125.195 29.555 125.86 29.281C126.524 29.0069 127.237 28.8665 127.956 28.8679C128.675 28.8665 129.387 29.0069 130.051 29.281C130.716 29.555 131.32 29.9573 131.828 30.4649C132.336 30.9724 132.739 31.5751 133.013 32.2384C133.288 32.9018 133.428 33.6126 133.427 34.3303V43.1791C133.428 43.8965 133.287 44.6072 133.013 45.2704C132.738 45.9335 132.336 46.536 131.827 47.0434C131.319 47.5507 130.715 47.9529 130.051 48.2268C129.386 48.5008 128.674 48.6411 127.956 48.6397C127.237 48.6411 126.525 48.5008 125.86 48.2268C125.196 47.9529 124.592 47.5507 124.084 47.0434C123.576 46.536 123.173 45.9335 122.898 45.2704C122.624 44.6072 122.483 43.8965 122.485 43.1791V43.1808ZM127.956 31.737C126.571 31.737 125.393 32.912 125.393 34.3303V43.1791C125.393 44.5956 126.571 45.7707 127.956 45.7707C129.375 45.7707 130.518 44.6299 130.518 43.1791V34.3303C130.518 32.8778 129.375 31.737 127.956 31.737ZM141.472 31.7387C140.087 31.7387 138.91 32.9137 138.91 34.332V48.2612H136.033V34.3303C136.028 33.6145 136.165 32.9047 136.436 32.2418C136.706 31.579 137.106 30.9763 137.612 30.4684C138.117 29.9606 138.718 29.5577 139.38 29.283C140.043 29.0083 140.753 28.8672 141.47 28.8679C143.375 28.8679 145.177 29.8699 146.353 31.8757L143.893 33.3265C143.202 32.2217 142.405 31.737 141.47 31.737L141.472 31.7387ZM85.579 62.0294V56.9918C85.579 55.8133 86.5263 54.8678 87.707 54.8678C88.5582 54.8678 89.3253 55.3765 89.7269 56.2878L88.7899 56.6886C88.5582 56.1405 88.1446 55.887 87.707 55.887C87.4119 55.8856 87.1283 56.0012 86.9185 56.2083C86.7087 56.4155 86.5899 56.6973 86.588 56.9918V62.0294C86.5912 62.3248 86.71 62.6072 86.9191 62.8163C87.1282 63.0253 87.411 63.1443 87.707 63.1479C88.0029 63.1443 88.2857 63.0253 88.4948 62.8163C88.7039 62.6072 88.8228 62.3248 88.8259 62.0294V60.9366H87.2076V59.9174H89.835V62.0294C89.835 63.2079 88.886 64.1534 87.707 64.1534C86.5263 64.1534 85.579 63.2079 85.579 62.0294ZM97.6091 61.1918H95.3833V64.0335H94.3725V57.0158C94.3725 55.839 95.3215 54.8918 96.5005 54.8918C97.6812 54.8918 98.6302 55.839 98.6302 57.0158V64.0335H97.6091V61.1918ZM96.5022 55.899C96.2058 55.9003 95.922 56.0184 95.7125 56.2276C95.5029 56.4367 95.3846 56.72 95.3833 57.0158V60.1846H97.6091V57.0158C97.6105 56.7212 97.4947 56.4382 97.2871 56.2288C97.0796 56.0194 96.7973 55.9008 96.5022 55.899ZM107.729 58.0606L106.318 62.115H105.759L104.359 58.0606V64.0335H103.35V54.9757H104.371L106.039 59.8318L107.717 54.9757H108.738V64.0335H107.729V58.0606ZM114.199 54.9757H115.208V64.0335H114.199V54.9757ZM121.608 57.951V64.0318H120.586V54.9757H121.582L123.833 61.0822V54.9757H124.843V64.0335H123.845L121.608 57.951ZM129.512 62.0294V56.9918C129.512 55.8133 130.463 54.8678 131.642 54.8678C132.493 54.8678 133.26 55.3765 133.662 56.2878L132.725 56.6886C132.493 56.1405 132.079 55.887 131.644 55.887C131.497 55.8861 131.352 55.9139 131.217 55.969C131.081 56.024 130.958 56.1051 130.854 56.2077C130.75 56.3103 130.667 56.4324 130.61 56.5669C130.554 56.7014 130.524 56.8458 130.523 56.9918V62.0294C130.526 62.3248 130.645 62.6072 130.854 62.8163C131.063 63.0253 131.346 63.1443 131.642 63.1479C131.938 63.1443 132.221 63.0253 132.43 62.8163C132.639 62.6072 132.758 62.3248 132.761 62.0294V60.9366H131.144V59.9174H133.77V62.0294C133.77 63.2079 132.823 64.1534 131.642 64.1534C130.463 64.1534 129.514 63.2079 129.514 62.0294" fill="white"/>
<path d="M11.126 22.8419C1.67005 32.2149 1.61857 47.4613 11.0093 56.8976C10.2023 56.0447 9.76108 54.9109 9.7797 53.738C9.79833 52.565 10.2753 51.4457 11.109 50.6188C11.9426 49.7919 13.067 49.3227 14.2422 49.3114C15.4175 49.3001 16.5507 49.7475 17.4002 50.5582C14.5751 47.7191 12.9956 43.8762 13.0093 39.8748C13.0161 37.8935 13.4138 35.933 14.1797 34.1051C14.9456 32.2772 16.0647 30.6178 17.4731 29.2216C18.8815 27.8254 20.5517 26.7198 22.3882 25.9678C24.2248 25.2158 26.1917 24.8323 28.1768 24.839C32.1857 24.8527 36.0251 26.4553 38.8502 29.2944L38.8519 29.2978C39.6939 30.1442 40.8383 30.622 42.0333 30.6261C43.2283 30.6303 44.376 30.1605 45.2239 29.3201C46.0719 28.4797 46.5506 27.3374 46.5548 26.1447C46.559 24.952 46.0883 23.8065 45.2463 22.9601C43.0064 20.703 40.3399 18.912 37.4014 17.6912C34.4628 16.4704 31.3107 15.844 28.1278 15.8482C21.9806 15.8482 15.8316 18.1778 11.126 22.8419Z" fill="url(#paint0_linear)"/>
<path d="M45.224 29.3184C44.3768 30.1584 43.23 30.6283 42.0358 30.6248C40.8416 30.6213 39.6976 30.1446 38.8554 29.2995C40.2542 30.7053 41.362 32.3723 42.1154 34.2054C42.8688 36.0384 43.253 38.0016 43.2463 39.9829C43.2395 41.9642 42.8418 43.9248 42.0759 45.7526C41.31 47.5805 40.1909 49.2399 38.7825 50.6361C37.374 52.0323 35.7039 53.138 33.8673 53.8899C32.0308 54.6419 30.0639 55.0254 28.0788 55.0187C24.0698 55.005 20.2305 53.4024 17.4054 50.5633L17.4037 50.5599C17.3882 50.5445 17.371 50.5325 17.3573 50.5171C17.2616 50.4233 17.162 50.3335 17.0587 50.2482L17.0501 50.2413C16.9361 50.1481 16.8176 50.0607 16.6949 49.9792L16.6726 49.9655C16.5559 49.8886 16.4356 49.8171 16.3122 49.7514L16.283 49.7377C15.6406 49.4051 14.9276 49.2315 14.2039 49.2315C13.4803 49.2315 12.7672 49.4051 12.1248 49.7377C12.0802 49.7617 12.039 49.7891 11.9944 49.8148C11.6423 50.0114 11.3185 50.2545 11.0316 50.5376C10.1839 51.3782 9.70532 52.5204 9.70114 53.713C9.69695 54.9057 10.1675 56.0511 11.0093 56.8976C20.4 66.3356 35.6754 66.387 45.1296 57.0141C54.5838 47.6411 54.637 32.3947 45.2463 22.9584C46.0881 23.8049 46.5587 24.9504 46.5545 26.143C46.5503 27.3357 46.0717 28.4778 45.224 29.3184Z" fill="url(#paint1_linear)"/>
<path d="M155.071 34.4382C155.071 32.9943 153.869 31.7952 152.457 31.7952C151.01 31.7952 149.845 32.96 149.845 34.4382V48.6415H146.878V34.4382C146.878 31.3379 149.385 28.8713 152.457 28.8713C155.529 28.8713 158 31.3379 158 34.4382V48.6415H155.071V34.4382Z" fill="white"/>
</g>
<defs>
<filter id="filter0_d" x="-3" y="0" width="168" height="88" filterUnits="userSpaceOnUse" color-interpolation-filters="sRGB">
<feFlood flood-opacity="0" result="BackgroundImageFix"/>
<feColorMatrix in="SourceAlpha" type="matrix" values="0 0 0 0 0 0 0 0 0 0 0 0 0 0 0 0 0 0 127 0"/>
<feOffset dy="4"/>
<feGaussianBlur stdDeviation="2"/>
<feColorMatrix type="matrix" values="0 0 0 0 0 0 0 0 0 0 0 0 0 0 0 0 0 0 0.25 0"/>
<feBlend mode="normal" in2="BackgroundImageFix" result="effect1_dropShadow"/>
<feBlend mode="normal" in="SourceGraphic" in2="effect1_dropShadow" result="shape"/>
</filter>
<linearGradient id="paint0_linear" x1="4.00057" y1="36.3738" x2="46.554" y2="36.3738" gradientUnits="userSpaceOnUse">
<stop stop-color="#223B86"/>
<stop offset="0.29" stop-color="#26B1E7"/>
<stop offset="1" stop-color="#C7E3F8"/>
</linearGradient>
<linearGradient id="paint1_linear" x1="9.69991" y1="43.484" x2="52.255" y2="43.484" gradientUnits="userSpaceOnUse">
<stop stop-color="#C7E3F8"/>
<stop offset="0.677" stop-color="#26B1E7"/>
<stop offset="1" stop-color="#223B86"/>
</linearGradient>
</defs>
</svg>
