<svg width="160" height="80" viewBox="0 0 160 80" fill="none" xmlns="http://www.w3.org/2000/svg">
<path d="M99.4132 39.6566C99.0736 39.1019 98.6033 38.6529 98.0548 38.3095C97.4539 37.9397 96.7486 37.7812 96.0433 37.7812C95.3118 37.7548 94.6065 37.9397 93.9796 38.3095C93.431 38.6529 92.9869 39.1019 92.6473 39.6302C92.3077 40.2114 92.0465 40.8453 91.9158 41.5057C91.7852 42.2189 91.7068 42.9585 91.7068 43.6982C91.7068 44.4378 91.7852 45.151 91.942 45.8642C92.0726 46.5246 92.3338 47.1585 92.6734 47.7397C93.9273 49.5095 96.2523 50.0642 98.1331 49.0604C98.6817 48.7434 99.1258 48.2944 99.4654 47.7661C99.8311 47.1849 100.066 46.551 100.197 45.8906C100.327 45.1774 100.406 44.4378 100.406 43.7246C100.406 42.9849 100.327 42.2717 100.171 41.5585C100.04 40.8717 99.7789 40.2378 99.4132 39.6566Z" fill="#1C325A"/>
<path d="M55.9181 44.5698C55.5524 44.649 55.1606 44.7019 54.7687 44.7547C54.3507 44.8075 53.9589 44.8603 53.567 44.9396C53.2013 45.0188 52.8356 45.1245 52.4699 45.2302C52.1303 45.3358 51.8168 45.4943 51.5294 45.7056C51.2682 45.9169 51.0331 46.1811 50.8764 46.4717C50.7196 46.8151 50.6151 47.2377 50.6413 47.6339C50.6151 48.0302 50.6935 48.4264 50.8764 48.7698C51.0331 49.0868 51.2682 49.3245 51.5556 49.5094C51.869 49.6943 52.2086 49.8264 52.5482 49.8792C52.914 49.9585 53.3058 49.9849 53.6977 49.9849C54.6642 49.9849 55.4218 49.8264 55.9704 49.483C56.4667 49.1924 56.8847 48.7962 57.172 48.2943C57.4071 47.8717 57.5639 47.3962 57.6423 46.8943C57.6945 46.5245 57.7206 46.1283 57.7206 45.7585V43.8566C57.4855 44.0679 57.2243 44.2264 56.9369 44.3056C56.5973 44.4113 56.2577 44.4905 55.9181 44.5698Z" fill="#1C325A"/>
<path d="M29.1158 39.6566C28.7762 39.1019 28.306 38.6529 27.7574 38.3095C27.1566 37.9397 26.4512 37.7812 25.7459 37.7812C25.0145 37.7548 24.3092 37.9397 23.6822 38.3095C23.1336 38.6529 22.6895 39.1019 22.3499 39.6302C22.0103 40.2114 21.7491 40.8453 21.6185 41.5057C21.4879 42.2189 21.4095 42.9585 21.4095 43.6982C21.4095 44.4378 21.4879 45.151 21.6446 45.8642C21.7752 46.5246 22.0364 47.1585 22.376 47.7397C23.63 49.5095 25.9549 50.0642 27.8358 49.0604C28.3844 48.7434 28.8285 48.2944 29.1681 47.7661C29.5338 47.1849 29.7689 46.551 29.8995 45.8906C30.0301 45.1774 30.1085 44.4378 30.1085 43.7246C30.1085 42.9849 30.0301 42.2717 29.8734 41.5585C29.7428 40.8717 29.4815 40.2378 29.1158 39.6566Z" fill="#1C325A"/>
<path d="M151.268 18.7094H7.5381C6.04909 18.7094 4.66456 19.2906 3.61963 20.3472C2.57471 21.4038 2 22.8302 2 24.3094V62.4C2 63.8792 2.57471 65.3057 3.61963 66.3623C4.66456 67.4189 6.07521 68 7.5381 68H153.462C156.518 68 159 65.4906 159 62.4V12L151.268 18.7094ZM34.6017 47.4226C34.2882 48.5057 33.7918 49.5359 33.1126 50.434C32.4334 51.3057 31.5975 52.0189 30.6309 52.5208C29.5338 53.0755 28.3582 53.3396 27.1304 53.3132C26.0594 53.3132 24.9884 53.0755 24.0218 52.6264C23.0814 52.1774 22.2715 51.4642 21.6968 50.5925H21.6185V59.3094H16.629V34.4792H21.3572V36.8302H21.4356C21.9842 35.9057 22.794 35.1396 23.7606 34.6642C24.7271 34.2151 25.772 33.9774 26.8431 33.9774C28.1231 33.9509 29.377 34.2151 30.5265 34.7962C31.5191 35.3245 32.4073 36.0642 33.0865 36.9623C33.7918 37.9132 34.2882 38.9698 34.6017 40.1057C34.9413 41.3208 35.098 42.5887 35.098 43.8566C35.098 45.0717 34.9413 46.2604 34.6017 47.4226ZM42.8566 52.8642H37.8671V27.4792H42.8566V52.8642ZM58.2953 52.8377C58.1908 52.5472 58.1125 52.2566 58.0602 51.966C57.9819 51.6755 57.9557 51.3849 57.9296 51.0679C57.172 51.8868 56.2055 52.4943 55.1344 52.8113C54.0634 53.1547 52.9662 53.3132 51.8429 53.3132C51.007 53.3132 50.1972 53.2075 49.4135 52.9962C48.7082 52.7849 48.0289 52.4415 47.4542 51.9925C46.9057 51.517 46.4354 50.9358 46.1481 50.2755C45.8085 49.5094 45.6517 48.6642 45.6779 47.8189C45.6517 46.9208 45.8346 46.0226 46.2265 45.2302C46.5661 44.5962 47.0363 44.0415 47.6371 43.6189C48.2379 43.2226 48.891 42.9057 49.5963 42.7208C50.3278 42.5359 51.0592 42.3774 51.8168 42.2453C52.5744 42.1132 53.3058 42.034 54.0373 41.9547C54.6903 41.9019 55.3434 41.7962 55.9704 41.6377C56.4667 41.5321 56.9108 41.3208 57.3027 41.0038C57.6161 40.7132 57.799 40.2642 57.7468 39.8151C57.7729 39.366 57.6684 38.917 57.4855 38.5208C57.3288 38.2302 57.0676 37.966 56.7802 37.7811C56.4667 37.5962 56.1271 37.4906 55.7614 37.4377C55.3434 37.3849 54.9255 37.3585 54.5075 37.3585C53.5148 37.3585 52.7572 37.5698 52.1825 37.9925C51.6078 38.4151 51.2943 39.1283 51.1898 40.1321L46.2003 40.1057C46.2265 39.0491 46.5399 38.0453 47.0885 37.1472C47.5849 36.3811 48.2641 35.7472 49.0478 35.2717C49.8837 34.7962 50.798 34.4528 51.7384 34.2679C52.7311 34.083 53.7238 33.9774 54.7426 33.9774C55.6569 33.9774 56.5973 34.0302 57.5116 34.1623C58.3998 34.2679 59.2619 34.5321 60.0717 34.9283C60.8293 35.2981 61.4824 35.8264 61.9787 36.5132C62.475 37.2 62.7101 38.0981 62.7101 39.2075V48.7434C62.7101 49.5359 62.7363 50.3283 62.8408 51.1208C62.893 51.7283 63.0498 52.3094 63.3371 52.8377H58.2953ZM76.1636 37.8604H72.5063V46.9472C72.5063 47.7925 72.6369 48.3736 72.9243 48.6642C73.2116 48.9547 73.7602 49.0868 74.5962 49.0868C74.8835 49.0868 75.1448 49.0868 75.406 49.0604C75.6411 49.034 75.9023 49.0075 76.1374 48.9547V52.8642C75.6672 52.9434 75.197 52.9962 74.7268 52.9962C74.2043 53.0226 73.708 53.0226 73.2116 53.0226C72.4802 53.0226 71.7488 52.9698 71.0173 52.8642C70.3642 52.7849 69.7634 52.5736 69.1887 52.2302C68.6662 51.9132 68.2221 51.4642 67.9348 50.9094C67.5952 50.2226 67.4384 49.4302 67.4907 48.6642V37.834H64.4865V34.4792H67.5168V28.9585H72.5324V34.4792H76.1636V37.8604ZM83.3213 52.8642H78.3579V34.4792H83.3213V52.8642ZM83.3213 31.6264H78.3579V27.4792H83.3213V31.6264ZM104.899 47.4226C104.586 48.5057 104.089 49.5359 103.41 50.434C102.731 51.3057 101.895 52.0189 100.928 52.5208C99.8311 53.0755 98.6556 53.3396 97.4278 53.3132C96.3567 53.3132 95.2857 53.0755 94.3191 52.6264C93.3787 52.1774 92.5689 51.4642 91.9942 50.5925H91.9158V59.3094H86.9002V34.4792H91.6546V36.8302H91.7329C92.2815 35.9057 93.0913 35.1396 94.0579 34.6642C95.0245 34.2151 96.0694 33.9774 97.1404 33.9774C98.4205 33.9509 99.6744 34.2151 100.824 34.7962C101.816 35.3245 102.705 36.0642 103.384 36.9623C104.089 37.9132 104.586 38.9698 104.899 40.1057C105.239 41.3208 105.395 42.5887 105.395 43.8566C105.395 45.0717 105.239 46.2604 104.899 47.4226ZM125.04 52.8642H120.286V50.3019H120.181C119.606 51.3057 118.77 52.1245 117.725 52.6C116.759 53.0755 115.714 53.3132 114.643 53.3132C113.52 53.3396 112.422 53.1811 111.351 52.7849C110.568 52.4679 109.862 51.9396 109.34 51.2792C108.817 50.566 108.478 49.7472 108.295 48.9019C108.086 47.8717 107.982 46.8415 108.008 45.7849V34.4792H112.997V44.8604C112.997 46.366 113.232 47.5019 113.702 48.2679C114.173 49.0075 115.009 49.3774 116.184 49.3774C117.543 49.3774 118.535 48.9811 119.136 48.1623C119.737 47.3434 120.05 45.9962 120.05 44.1208V34.4792H125.04V52.8642ZM141.733 51.966C140.923 52.4679 140.035 52.8377 139.094 53.0226C138.101 53.234 137.083 53.3132 136.064 53.3132C135.019 53.3132 134 53.2075 132.981 52.9962C132.041 52.8113 131.127 52.4415 130.291 51.9396C129.507 51.4377 128.854 50.7774 128.358 49.9585C127.809 49.034 127.548 47.9509 127.522 46.8943H132.25C132.302 47.3698 132.433 47.8717 132.642 48.2943C132.851 48.6642 133.138 49.0075 133.504 49.2453C133.87 49.5094 134.288 49.6943 134.705 49.8C135.176 49.9321 135.646 49.9849 136.116 49.9849C136.482 49.9849 136.848 49.9321 137.213 49.8528C137.579 49.7736 137.945 49.6415 138.258 49.4566C138.572 49.2717 138.833 49.034 139.042 48.7434C139.251 48.4264 139.382 48.0302 139.355 47.634C139.355 46.8679 138.859 46.3132 137.866 45.917C136.508 45.4415 135.123 45.0453 133.713 44.7811C132.981 44.6226 132.276 44.4113 131.597 44.2C130.944 43.9887 130.317 43.6981 129.742 43.3019C129.22 42.9321 128.776 42.483 128.436 41.9283C128.096 41.2943 127.913 40.6075 127.94 39.8943C127.887 38.8906 128.122 37.8604 128.619 36.9887C129.063 36.2491 129.69 35.6151 130.421 35.1925C131.205 34.7434 132.067 34.4264 132.955 34.2679C133.896 34.083 134.862 34.0038 135.829 34.0038C136.795 34.0038 137.736 34.1094 138.676 34.2943C139.538 34.4528 140.4 34.7962 141.158 35.2453C141.889 35.6943 142.516 36.3019 142.96 37.0415C143.483 37.8868 143.77 38.8642 143.822 39.8679H139.094C139.016 38.8906 138.65 38.2302 137.997 37.8868C137.266 37.517 136.482 37.3585 135.672 37.3585C135.359 37.3585 135.071 37.3849 134.758 37.4113C134.444 37.4377 134.157 37.517 133.87 37.6491C133.608 37.7547 133.373 37.9396 133.19 38.1774C132.981 38.4415 132.903 38.7585 132.903 39.0755C132.903 39.4981 133.06 39.8943 133.399 40.1849C133.765 40.5019 134.209 40.7396 134.679 40.8717C135.28 41.0566 135.881 41.2151 136.482 41.3472C137.161 41.4792 137.84 41.6377 138.546 41.7962C139.251 41.9547 139.982 42.166 140.662 42.4038C141.315 42.6151 141.942 42.9321 142.516 43.3547C143.039 43.7509 143.483 44.2264 143.822 44.8075C144.162 45.4679 144.345 46.2076 144.319 46.9472C144.423 48.9811 143.431 50.883 141.733 51.966Z" fill="#1C325A"/>
<path d="M27.8358 49.0604C28.3844 48.7434 28.8285 48.2944 29.1681 47.7661C29.5338 47.1849 29.7689 46.551 29.8995 45.8906C30.0301 45.1774 30.1085 44.4378 30.1085 43.7246C30.1085 42.9849 30.0301 42.2717 29.8734 41.5585C29.7428 40.8717 29.4815 40.2378 29.1158 39.6566C28.7762 39.1019 28.306 38.6529 27.7574 38.3095C27.1566 37.9396 26.4513 37.7812 25.7459 37.7812C25.0145 37.7547 24.3092 37.9396 23.6822 38.3095C23.1336 38.6529 22.6895 39.1019 22.3499 39.6302C22.0103 40.2113 21.7491 40.8453 21.6185 41.5057C21.4879 42.2189 21.4095 42.9585 21.4095 43.6981C21.4095 44.4378 21.4879 45.151 21.6446 45.8642C21.7752 46.5246 22.0365 47.1585 22.3761 47.7397C23.63 49.5095 25.9549 50.0642 27.8358 49.0604ZM21.3573 34.4793V36.8302H21.4356C21.9842 35.9057 22.794 35.1397 23.7606 34.6642C24.7271 34.2151 25.7721 33.9774 26.8431 33.9774C28.1231 33.951 29.3771 34.2151 30.5265 34.7963C31.5192 35.3246 32.4073 36.0642 33.0865 36.9623C33.7919 37.9132 34.2882 38.9698 34.6017 40.1057C34.9413 41.3208 35.098 42.5887 35.098 43.8566C35.098 45.0717 34.9413 46.2604 34.6017 47.4227C34.2882 48.5057 33.7919 49.5359 33.1127 50.434C32.4335 51.3057 31.5975 52.0189 30.631 52.5208C29.5338 53.0755 28.3583 53.3396 27.1305 53.3132C26.0594 53.3132 24.9884 53.0755 24.0218 52.6264C23.0814 52.1774 22.2716 51.4642 21.6969 50.5925H21.6185V59.3095H16.629V34.4793H21.3573Z" fill="#F6E343"/>
<path d="M42.8566 27.4792H37.8671V52.8642H42.8566V27.4792Z" fill="#F6E343"/>
<path d="M51.1899 40.132C51.2944 39.1282 51.6079 38.415 52.1826 37.9924C52.7573 37.5697 53.5148 37.3584 54.5075 37.3584C54.9255 37.3584 55.3435 37.3848 55.7614 37.4377C56.1272 37.4905 56.4668 37.5962 56.7802 37.7811C57.0676 37.966 57.3288 38.2301 57.4856 38.5207C57.6684 38.9169 57.7729 39.366 57.7468 39.815C57.799 40.2641 57.6162 40.7131 57.3027 41.0037C56.9108 41.3207 56.4668 41.532 55.9704 41.6377C55.3435 41.7962 54.6904 41.9018 54.0373 41.9547C53.3059 42.0339 52.5744 42.1131 51.8168 42.2452C51.0593 42.3773 50.3278 42.5358 49.5964 42.7207C48.8911 42.9056 48.238 43.2226 47.6371 43.6188C47.0363 44.0414 46.5661 44.5962 46.2265 45.2301C45.8346 46.0226 45.6518 46.9207 45.6779 47.8188C45.6518 48.6641 45.8085 49.5094 46.1481 50.2754C46.4355 50.9358 46.9057 51.5169 47.4543 51.9924C48.029 52.4414 48.7082 52.7848 49.4135 52.9962C50.1972 53.2075 51.007 53.3131 51.843 53.3131C52.9663 53.3131 54.0634 53.1547 55.1345 52.8113C56.2055 52.4943 57.1721 51.8867 57.9297 51.0679C57.9558 51.3848 57.9819 51.6754 58.0603 51.966C58.1125 52.2565 58.1909 52.5471 58.2954 52.8377H63.3371C63.0498 52.3094 62.893 51.7282 62.8408 51.1207C62.7363 50.3282 62.7102 49.5358 62.7102 48.7433V39.2075C62.7102 38.0981 62.4751 37.1999 61.9787 36.5131C61.4824 35.8264 60.8293 35.2981 60.0717 34.9282C59.2619 34.532 58.3999 34.2679 57.5117 34.1622C56.5974 34.0301 55.6569 33.9773 54.7426 33.9773C53.7238 33.9773 52.7311 34.083 51.7385 34.2679C50.798 34.4528 49.8837 34.7962 49.0478 35.2716C48.2641 35.7471 47.5849 36.3811 47.0886 37.1471C46.54 38.0452 46.2265 39.049 46.2004 40.1056L51.1899 40.132ZM57.7207 45.7584C57.7207 46.1282 57.6945 46.5245 57.6423 46.8943C57.5639 47.3962 57.4072 47.8716 57.1721 48.2943C56.8847 48.7962 56.4668 49.1924 55.9704 49.483C55.4218 49.8263 54.6643 49.9848 53.6977 49.9848C53.3059 49.9848 52.914 49.9584 52.5483 49.8792C52.2087 49.8263 51.8691 49.6943 51.5556 49.5094C51.2683 49.3245 51.0331 49.0867 50.8764 48.7697C50.6935 48.4264 50.6152 48.0301 50.6413 47.6339C50.6152 47.2377 50.7197 46.815 50.8764 46.4716C51.0331 46.1811 51.2683 45.9169 51.5295 45.7056C51.8168 45.4943 52.1303 45.3358 52.4699 45.2301C52.8356 45.1245 53.2014 45.0188 53.5671 44.9396C53.9589 44.8603 54.3508 44.8075 54.7688 44.7547C55.1606 44.7018 55.5524 44.649 55.9182 44.5697C56.2578 44.4905 56.5974 44.4113 56.937 44.3056C57.2243 44.2264 57.4856 44.0679 57.7207 43.8565V45.7584Z" fill="#F6E343"/>
<path d="M76.1635 34.4791V37.8603H72.5063V46.9471C72.5063 47.7923 72.6369 48.3735 72.9243 48.664C73.2116 48.9546 73.7602 49.0867 74.5962 49.0867C74.8835 49.0867 75.1447 49.0867 75.406 49.0603C75.6411 49.0338 75.9023 49.0074 76.1374 48.9546V52.864C75.6672 52.9433 75.197 52.9961 74.7268 52.9961C74.2043 53.0225 73.708 53.0225 73.2116 53.0225C72.4802 53.0225 71.7487 52.9697 71.0173 52.864C70.3642 52.7848 69.7634 52.5735 69.1887 52.2301C68.6662 51.9131 68.2221 51.464 67.9348 50.9093C67.5952 50.2225 67.4384 49.4301 67.4907 48.664V37.8338H64.4865V34.4791H67.5168V28.9584H72.5324V34.4791H76.1635Z" fill="#F6E343"/>
<path d="M78.3579 31.6264V27.4792H83.3213V31.6264H78.3579Z" fill="#F6E343"/>
<path d="M83.3213 34.4792V52.8642H78.3579V34.4792H83.3213Z" fill="#F6E343"/>
<path d="M98.1332 49.0604C98.6817 48.7434 99.1258 48.2944 99.4654 47.7661C99.8312 47.1849 100.066 46.551 100.197 45.8906C100.327 45.1774 100.406 44.4378 100.406 43.7246C100.406 42.9849 100.327 42.2717 100.171 41.5585C100.04 40.8717 99.7789 40.2378 99.4132 39.6566C99.0736 39.1019 98.6034 38.6529 98.0548 38.3095C97.454 37.9396 96.7486 37.7812 96.0433 37.7812C95.3119 37.7547 94.6065 37.9396 93.9796 38.3095C93.431 38.6529 92.9869 39.1019 92.6473 39.6302C92.3077 40.2113 92.0465 40.8453 91.9159 41.5057C91.7852 42.2189 91.7069 42.9585 91.7069 43.6981C91.7069 44.4378 91.7852 45.151 91.942 45.8642C92.0726 46.5246 92.3338 47.1585 92.6734 47.7397C93.9273 49.5095 96.2523 50.0642 98.1332 49.0604ZM91.6546 34.4793V36.8302H91.733C92.2816 35.9057 93.0914 35.1397 94.0579 34.6642C95.0245 34.2151 96.0694 33.9774 97.1405 33.9774C98.4205 33.951 99.6744 34.2151 100.824 34.7963C101.817 35.3246 102.705 36.0642 103.384 36.9623C104.089 37.9132 104.586 38.9698 104.899 40.1057C105.239 41.3208 105.395 42.5887 105.395 43.8566C105.395 45.0717 105.239 46.2604 104.899 47.4227C104.586 48.5057 104.089 49.5359 103.41 50.434C102.731 51.3057 101.895 52.0189 100.928 52.5208C99.8312 53.0755 98.6556 53.3396 97.4278 53.3132C96.3568 53.3132 95.2857 53.0755 94.3192 52.6264C93.3787 52.1774 92.5689 51.4642 91.9942 50.5925H91.9159V59.3095H86.9002V34.4793H91.6546Z" fill="#F6E343"/>
<path d="M120.286 52.8642V50.3019H120.181C119.606 51.3057 118.77 52.1245 117.725 52.6C116.759 53.0755 115.714 53.3132 114.643 53.3132C113.52 53.3396 112.422 53.1811 111.351 52.7849C110.568 52.4679 109.862 51.9396 109.34 51.2792C108.817 50.566 108.478 49.7472 108.295 48.9019C108.086 47.8717 107.982 46.8415 108.008 45.7849V34.4792H112.997V44.8604C112.997 46.366 113.232 47.5019 113.703 48.2679C114.173 49.0075 115.009 49.3774 116.184 49.3774C117.543 49.3774 118.535 48.9811 119.136 48.1623C119.737 47.3434 120.05 45.9962 120.05 44.1208V34.4792H125.04V52.8642H120.286Z" fill="#F6E343"/>
<path d="M132.642 48.2943C132.851 48.6642 133.138 49.0076 133.504 49.2453C133.87 49.5094 134.287 49.6944 134.705 49.8C135.176 49.9321 135.646 49.9849 136.116 49.9849C136.482 49.9849 136.848 49.9321 137.213 49.8528C137.579 49.7736 137.945 49.6415 138.258 49.4566C138.572 49.2717 138.833 49.034 139.042 48.7434C139.251 48.4264 139.381 48.0302 139.355 47.634C139.355 46.8679 138.859 46.3132 137.866 45.917C136.508 45.4415 135.123 45.0453 133.713 44.7811C132.981 44.6227 132.276 44.4113 131.597 44.2C130.944 43.9887 130.317 43.6981 129.742 43.3019C129.22 42.9321 128.776 42.483 128.436 41.9283C128.096 41.2944 127.913 40.6076 127.94 39.8943C127.887 38.8906 128.122 37.8604 128.619 36.9887C129.063 36.2491 129.69 35.6151 130.421 35.1925C131.205 34.7434 132.067 34.4264 132.955 34.2679C133.896 34.083 134.862 34.0038 135.829 34.0038C136.795 34.0038 137.736 34.1094 138.676 34.2943C139.538 34.4528 140.4 34.7962 141.158 35.2453C141.889 35.6943 142.516 36.3019 142.96 37.0415C143.483 37.8868 143.77 38.8642 143.822 39.8679H139.094C139.016 38.8906 138.65 38.2302 137.997 37.8868C137.266 37.517 136.482 37.3585 135.672 37.3585C135.359 37.3585 135.071 37.3849 134.758 37.4113C134.444 37.4377 134.157 37.517 133.87 37.6491C133.608 37.7547 133.373 37.9396 133.19 38.1774C132.981 38.4415 132.903 38.7585 132.903 39.0755C132.903 39.4981 133.06 39.8943 133.399 40.1849C133.765 40.5019 134.209 40.7396 134.679 40.8717C135.28 41.0566 135.881 41.2151 136.482 41.3472C137.161 41.4793 137.84 41.6377 138.546 41.7962C139.251 41.9547 139.982 42.166 140.662 42.4038C141.315 42.6151 141.942 42.9321 142.516 43.3547C143.039 43.751 143.483 44.2264 143.822 44.8076C144.162 45.4679 144.345 46.2076 144.319 46.9472C144.423 48.9811 143.431 50.883 141.733 51.9661C140.923 52.4679 140.035 52.8377 139.094 53.0227C138.101 53.234 137.083 53.3132 136.064 53.3132C135.019 53.3132 134 53.2076 132.981 52.9962C132.041 52.8113 131.127 52.4415 130.291 51.9396C129.507 51.4377 128.854 50.7774 128.358 49.9585C127.809 49.034 127.548 47.951 127.522 46.8944H132.25C132.302 47.3698 132.433 47.8717 132.642 48.2943Z" fill="#F6E343"/>
</svg>
