<svg width="160" height="80" viewBox="0 0 160 80" fill="none" xmlns="http://www.w3.org/2000/svg">
<path d="M32.6206 35.2396C31.9511 35.2396 31.2816 35.3741 30.6636 35.6162C30.0199 35.8582 29.4534 36.2078 28.9384 36.6651C28.4492 37.1223 28.0372 37.6871 27.7282 38.3325C27.4192 38.978 27.2647 39.7311 27.2647 40.5917C27.2647 41.4255 27.4192 42.2054 27.7282 42.8509C28.0372 43.4964 28.4234 44.0612 28.9384 44.5184C29.4276 44.9756 30.0199 45.3252 30.6636 45.5673C31.3074 45.8093 31.9511 45.9438 32.6206 45.9438C33.2901 45.9438 33.9596 45.8093 34.5776 45.5673C35.2213 45.3252 35.7878 44.9756 36.3028 44.5184C36.7921 44.0612 37.204 43.4964 37.513 42.8509C37.822 42.2054 37.9765 41.4523 37.9765 40.5917C37.9765 39.758 37.822 39.0049 37.513 38.3325C37.204 37.6871 36.7921 37.1223 36.3028 36.6651C35.8136 36.2078 35.2213 35.8582 34.5776 35.6162C33.9596 35.3741 33.2901 35.2396 32.6206 35.2396ZM32.6206 49.0098C31.4104 49.0098 30.2516 48.8484 29.1702 48.5526C28.0887 48.2299 27.1359 47.7189 26.3119 47.0196C25.5137 46.3203 24.87 45.4059 24.3807 44.357C23.9172 43.2812 23.6855 42.044 23.6855 40.6186C23.6855 39.1932 23.9172 37.9291 24.3807 36.8533C24.8442 35.7775 25.4879 34.89 26.3119 34.1907C27.1102 33.4915 28.0629 32.9536 29.1444 32.6039C30.2259 32.2543 31.3846 32.066 32.5949 32.066C33.8051 32.066 34.9638 32.2543 36.0453 32.6039C37.1268 32.9536 38.0795 33.4915 38.8778 34.1907C39.676 34.89 40.3455 35.8044 40.809 36.8533C41.2725 37.9291 41.5042 39.1932 41.5042 40.6186C41.5042 42.044 41.2725 43.3081 40.809 44.357C40.3455 45.4328 39.7018 46.3203 38.8778 47.0196C38.0795 47.7189 37.1268 48.2299 36.0196 48.5526C34.9896 48.8484 33.8308 49.0098 32.6206 49.0098Z" fill="white"/>
<path d="M67.1509 35.2396C66.4814 35.2396 65.8119 35.3741 65.1939 35.6162C64.5502 35.8582 63.9837 36.2078 63.4687 36.6651C62.9795 37.1223 62.5675 37.6871 62.2585 38.3325C61.9495 38.978 61.795 39.7311 61.795 40.5917C61.795 41.4523 61.9495 42.2054 62.2585 42.8509C62.5675 43.4964 62.9537 44.0612 63.4687 44.5184C63.958 44.9756 64.5502 45.3252 65.1939 45.5673C65.8377 45.8093 66.5072 45.9438 67.1509 45.9438C67.8204 45.9438 68.4899 45.8093 69.1079 45.5673C69.7516 45.3252 70.3181 44.9756 70.8331 44.5184C71.3224 44.0612 71.7344 43.4964 72.0434 42.8509C72.3524 42.2054 72.5069 41.4523 72.5069 40.5917C72.5069 39.7311 72.3524 39.0049 72.0434 38.3325C71.7344 37.6871 71.3224 37.1223 70.8331 36.6651C70.3439 36.2078 69.7516 35.8582 69.1079 35.6162C68.4899 35.3741 67.8204 35.2396 67.1509 35.2396ZM67.1509 49.0098C65.9407 49.0098 64.7819 48.8484 63.7005 48.5526C62.619 48.2299 61.6662 47.7189 60.8422 47.0196C60.044 46.3203 59.4003 45.4059 58.911 44.357C58.4475 43.2812 58.19 42.044 58.19 40.6186C58.19 39.1932 58.4218 37.9291 58.911 36.8533C59.3745 35.7775 60.0183 34.89 60.8422 34.1907C61.6405 33.4915 62.5932 32.9536 63.6747 32.6039C64.7562 32.2543 65.9149 32.066 67.1252 32.066C68.3354 32.066 69.4941 32.2543 70.5756 32.6039C71.6571 32.9536 72.6099 33.4915 73.4081 34.1907C74.2063 34.89 74.8758 35.8044 75.3393 36.8533C75.8028 37.9291 76.0346 39.1932 76.0346 40.6186C76.0346 42.044 75.8028 43.3081 75.3393 44.357C74.8758 45.4328 74.2321 46.3203 73.4081 47.0196C72.6099 47.7189 71.6571 48.2299 70.5499 48.5526C69.5456 48.8484 68.3869 49.0098 67.1509 49.0098Z" fill="white"/>
<path d="M17.6085 50.8655L4.86245 35.4816V50.8655H1V29.2689H5.0427L17.2995 44.0611V29.2689H21.162V50.8655H17.6085Z" fill="white"/>
<path d="M51.5466 48.8753H48.1734L41.2725 32.2543H45.1092L49.8729 43.8191L54.6108 32.2543H58.4475L51.5466 48.8753Z" fill="white"/>
<path d="M119.243 48.8753V35.4279H113.681V32.2543H128.384V35.4279H122.822V48.8753H119.243Z" fill="white"/>
<path d="M134.667 32.2543H131.036V48.8753H134.667V32.2543Z" fill="white"/>
<path d="M108.891 41.6675L106.702 36.3154L104.514 41.6675H108.891ZM111.852 48.8753L110.204 44.8411H103.252L101.604 48.8753H98.0248L105.054 32.2543H108.402L115.432 48.8753H111.852Z" fill="white"/>
<path d="M149.086 51C147.567 51 146.074 50.7848 144.657 50.3545C143.241 49.9242 141.979 49.2249 140.898 48.3105C139.816 47.3961 138.941 46.2396 138.323 44.868C137.679 43.5232 137.37 41.8826 137.37 40.0538C137.37 38.2518 137.679 36.6381 138.323 35.2665C138.941 33.8949 139.816 32.7115 140.898 31.7971C141.979 30.8826 143.241 30.1565 144.657 29.6993C146.074 29.2421 147.541 29 149.086 29C152.202 29 155.086 30.0758 156.966 30.9095C157.172 31.0171 158.434 31.5819 158.434 31.5819L156.477 34.9976L156.193 34.8093C154.262 33.599 152.073 32.8191 150.065 32.577C149.704 32.5232 149.395 32.5232 149.086 32.5232H148.932H148.829C147.902 32.5501 146.975 32.7115 146.125 33.0073C145.198 33.3301 144.374 33.8142 143.679 34.4597C142.984 35.0782 142.417 35.8851 142.005 36.7726C141.593 37.687 141.387 38.7359 141.387 39.9193C141.387 41.1027 141.593 42.1516 142.005 43.066C142.417 43.9804 142.984 44.7604 143.679 45.379C144.374 45.9976 145.198 46.4817 146.125 46.8313C147.052 47.154 148.056 47.3154 149.086 47.3154C152.408 47.3154 155.189 45.7286 156.94 44.3839L157.249 44.1687L159 47.3154L158.743 47.5037C156.554 48.956 153.206 50.7579 149.73 50.9731C149.498 50.9731 149.292 51 149.086 51Z" fill="white"/>
<path d="M92.5143 32.2543L87.3387 42.1247L82.1372 32.2543H78.6353V48.8753H81.8025V38.5477L87.3387 48.9291L92.8748 38.5477V48.8753H96.0421V32.2543H92.5143Z" fill="white"/>
</svg>
