<svg width="40" height="40" viewBox="0 0 40 40" fill="none" xmlns="http://www.w3.org/2000/svg">
<path d="M33.0652 5C31.4469 5 30.1304 6.31648 30.1304 7.93479C30.1304 9.20844 30.9507 10.2842 32.0869 10.6893V18.6956H30.1304V17.0652C30.1304 10.4122 24.7182 5 18.0652 5C11.4122 5 6 10.4122 6 17.0652V32.0652C6 33.6835 7.31648 35 8.93479 35H27.1956C28.8139 35 30.1304 33.6835 30.1304 32.0652V20.6521H33.0652C33.6053 20.6521 34.0435 20.2143 34.0435 19.6739V10.6893C35.1797 10.2842 36 9.2085 36 7.93479C36 6.31648 34.6835 5 33.0652 5ZM11.6084 13.4773C12.5765 10.7473 15.1712 8.91307 18.0652 8.91307C20.9593 8.91307 23.5539 10.7473 24.522 13.4773C24.7022 13.9865 24.4361 14.5457 23.9265 14.7262C23.4214 14.907 22.8598 14.6435 22.6776 14.1314C21.9859 12.1803 20.1326 10.8696 18.0652 10.8696C15.9979 10.8696 14.1445 12.1803 13.4528 14.1314C13.272 14.6403 12.7127 14.9081 12.2039 14.7263C11.6944 14.5457 11.4282 13.9865 11.6084 13.4773ZM19.0435 13.8044C19.0435 14.3446 18.6055 14.7826 18.0652 14.7826C17.525 14.7826 17.0869 14.3446 17.0869 13.8044C17.0869 13.2641 17.5249 12.8261 18.0652 12.8261C18.6054 12.8261 19.0435 13.2641 19.0435 13.8044ZM22.9565 31.0869H13.1739C12.6339 31.0869 12.1956 30.6491 12.1956 30.1087C12.1956 29.5682 12.6339 29.1304 13.1739 29.1304H22.9565C23.4966 29.1304 23.9348 29.5682 23.9348 30.1087C23.9348 30.6491 23.4966 31.0869 22.9565 31.0869ZM25.8913 26.1956C25.8913 26.7361 25.4531 27.1739 24.913 27.1739H11.2174C10.6774 27.1739 10.2391 26.7361 10.2391 26.1956V17.7174C10.2391 17.177 10.6774 16.7391 11.2174 16.7391H24.9131C25.4531 16.7391 25.8913 17.177 25.8913 17.7174L25.8913 26.1956Z" fill="url(#paint0_linear_8063_32706)"/>
<path d="M19.3693 18.6956H16.7606V25.2173H19.3693V18.6956Z" fill="url(#paint1_linear_8063_32706)"/>
<path d="M14.8042 18.6956H12.1955V25.2173H14.8042V18.6956Z" fill="url(#paint2_linear_8063_32706)"/>
<path d="M23.9345 18.6956H21.3258V25.2173H23.9345V18.6956Z" fill="url(#paint3_linear_8063_32706)"/>
<path d="M18 12C21.3137 12 24 10.6569 24 9C24 7.34315 21.3137 6 18 6C14.6863 6 12 7.34315 12 9C12 10.6569 14.6863 12 18 12Z" fill="url(#paint4_linear_8063_32706)" fill-opacity="0.8"/>
<defs>
<linearGradient id="paint0_linear_8063_32706" x1="6" y1="5" x2="36" y2="35" gradientUnits="userSpaceOnUse">
<stop stop-color="#EE9AE5"/>
<stop offset="1" stop-color="#5961F9"/>
</linearGradient>
<linearGradient id="paint1_linear_8063_32706" x1="6" y1="5" x2="36" y2="35" gradientUnits="userSpaceOnUse">
<stop stop-color="#EE9AE5"/>
<stop offset="1" stop-color="#5961F9"/>
</linearGradient>
<linearGradient id="paint2_linear_8063_32706" x1="6" y1="5" x2="36" y2="35" gradientUnits="userSpaceOnUse">
<stop stop-color="#EE9AE5"/>
<stop offset="1" stop-color="#5961F9"/>
</linearGradient>
<linearGradient id="paint3_linear_8063_32706" x1="6" y1="5" x2="36" y2="35" gradientUnits="userSpaceOnUse">
<stop stop-color="#EE9AE5"/>
<stop offset="1" stop-color="#5961F9"/>
</linearGradient>
<linearGradient id="paint4_linear_8063_32706" x1="17.9999" y1="11.9753" x2="17.9999" y2="6.06682" gradientUnits="userSpaceOnUse">
<stop stop-color="white" stop-opacity="0"/>
<stop offset="1" stop-color="white"/>
</linearGradient>
</defs>
</svg>
