<svg width="161" height="80" viewBox="0 0 161 80" fill="none" xmlns="http://www.w3.org/2000/svg">
<path d="M52.1859 46.1334H49.1529L47.9433 43.4911H42.454L41.3189 46.1334H38.3603L43.7194 34.4849H46.6594L52.1859 46.1334ZM47.0688 41.5186L45.1708 37.2016L43.31 41.5186H47.0688Z" fill="white"/>
<path d="M53.7304 46.1334V34.5779H56.5216V44.1795H63.4437V46.1334H53.7304Z" fill="white"/>
<path d="M65.4906 46.1334V34.5779H68.2818V44.1795H75.2039V46.1334H65.4906Z" fill="white"/>
<path d="M78.0695 46.1334L74.7759 34.4849H77.6229L79.707 42.4862L82.219 34.4849H85.5312L87.9503 42.6165L90.0715 34.4849H92.8813L89.5319 46.1334H86.5733L83.8193 37.4249L81.0839 46.1334H78.0695Z" fill="white"/>
<path d="M105.646 46.1334H102.613L101.404 43.4911H95.8958L94.7607 46.1334H91.8021L97.1611 34.4849H100.138L105.646 46.1334ZM100.529 41.5186L98.6312 37.2016L96.7704 41.5186H100.529Z" fill="white"/>
<path d="M108.977 46.1334V41.2209L103.934 34.4849H107.191L110.429 39.0996L113.611 34.4849H116.811L111.75 41.2395V46.1334H108.977Z" fill="white"/>
<path d="M117.5 42.3374L120.198 42.1141C120.365 42.8771 120.7 43.4539 121.184 43.8075C121.686 44.161 122.356 44.3471 123.194 44.3471C124.087 44.3471 124.757 44.1796 125.222 43.8633C125.668 43.5469 125.91 43.1748 125.91 42.7468C125.91 42.4677 125.817 42.2444 125.631 42.0397C125.445 41.8536 125.11 41.6862 124.626 41.5373C124.291 41.4443 123.566 41.2768 122.393 41.0349C120.905 40.7185 119.863 40.3464 119.249 39.8812C118.411 39.2485 117.983 38.467 117.983 37.5366C117.983 36.9411 118.188 36.3829 118.579 35.8805C118.97 35.3595 119.546 34.9687 120.291 34.7082C121.035 34.4291 121.947 34.2988 123.008 34.2988C124.738 34.2988 126.041 34.6152 126.915 35.2664C127.79 35.8991 128.255 36.7551 128.292 37.8343L125.501 37.946C125.389 37.3505 125.129 36.9225 124.738 36.662C124.347 36.4015 123.752 36.2713 122.97 36.2713C122.17 36.2713 121.537 36.4201 121.072 36.6992C120.775 36.8853 120.626 37.1272 120.626 37.425C120.626 37.7041 120.756 37.9274 121.035 38.132C121.389 38.374 122.245 38.6345 123.584 38.9136C124.943 39.1927 125.948 39.4718 126.58 39.7509C127.232 40.0487 127.734 40.4394 128.106 40.9418C128.478 41.4443 128.664 42.0583 128.664 42.8026C128.664 43.4725 128.441 44.0866 128.013 44.682C127.566 45.2589 126.952 45.7055 126.152 45.9846C125.352 46.2637 124.347 46.4126 123.156 46.4126C121.407 46.4126 120.067 46.0776 119.137 45.3891C118.244 44.6262 117.686 43.64 117.5 42.3374Z" fill="white"/>
<path d="M131.046 46.1334V34.4849H135.512C137.205 34.4849 138.303 34.5407 138.824 34.6523C139.606 34.8198 140.276 35.2106 140.815 35.7874C141.355 36.3643 141.615 37.1272 141.615 38.0576C141.615 38.7647 141.466 39.3787 141.15 39.8625C140.834 40.3463 140.462 40.7371 139.978 41.0162C139.513 41.2953 139.029 41.4814 138.526 41.5745C137.857 41.6861 136.908 41.7419 135.642 41.7419H133.819V46.1334H131.046ZM133.819 36.4573V39.7695H135.345C136.442 39.7695 137.168 39.7137 137.54 39.5834C137.912 39.4532 138.192 39.2671 138.415 39.0066C138.619 38.7461 138.731 38.4483 138.731 38.0948C138.731 37.6668 138.582 37.3133 138.285 37.0527C137.987 36.7736 137.615 36.6062 137.168 36.5317C136.833 36.4759 136.163 36.4573 135.158 36.4573H133.819Z" fill="white"/>
<path d="M143.793 46.1334V34.4849H146.584V46.1334H143.793Z" fill="white"/>
<path d="M149.263 46.1334V34.4849H151.961L157.6 42.263V34.4849H160.186V46.1334H157.395L151.831 38.5414V46.1334H149.263Z" fill="white"/>
<path d="M23.8747 35.9789V35.7861L33.381 35.1401V35.333L25.4173 40.5393V40.3464L28.0494 37.0684L23.8747 35.9789Z" fill="#EA5410"/>
<path d="M7.73526 53.7861C7.73526 53.7861 14.5517 41.5706 26.825 37.1067C26.825 37.1067 12.8162 41.2525 6.57831 53.7861H7.73526Z" fill="#191E65"/>
<path d="M16.2195 38.9483L14.0213 32.8646L14.3877 31.833L16.904 38.6591L16.2195 38.9483Z" fill="#191E65"/>
<path d="M17.8586 43.5859L21.5223 53.7864H22.3611L18.4467 42.9785L17.8586 43.5859Z" fill="#191E65"/>
<path d="M0.186035 53.7861C0.186035 53.7861 8.09191 38.9675 26.825 37.1067C26.825 37.1067 14.1949 40.4137 6.57822 53.7861H0.186035Z" fill="url(#paint0_linear)"/>
<path d="M11.0807 41.1369L14.3877 31.833L16.9041 38.659C18.2442 38.0998 19.6808 37.666 21.2041 37.261L16.2196 26H12.6523L2.14325 49.4091C3.88833 47.1337 6.80964 43.9135 11.0807 41.1369Z" fill="url(#paint1_linear)"/>
<path d="M18.4467 42.9688L22.361 53.7864H28.599L22.5731 40.25C22.5731 40.25 21.2137 41.0599 20.2014 41.6962C19.0444 42.4 18.4467 42.9688 18.4467 42.9688Z" fill="url(#paint2_linear)"/>
<path d="M2.14318 49.4091L12.6522 26H11.7845L1.8443 49.8237C1.94071 49.6887 2.03713 49.5537 2.14318 49.4091Z" fill="#191E65"/>
<path d="M23.8747 35.7861L33.381 35.1401L25.4173 40.3464L28.0494 36.8756L23.8747 35.7861Z" fill="url(#paint3_linear)"/>
<defs>
<linearGradient id="paint0_linear" x1="0.186035" y1="45.4432" x2="25.9955" y2="45.4432" gradientUnits="userSpaceOnUse">
<stop stop-color="#6B1686"/>
<stop offset="1" stop-color="#3D1E74"/>
</linearGradient>
<linearGradient id="paint1_linear" x1="11.6771" y1="40.1566" x2="11.6771" y2="25.495" gradientUnits="userSpaceOnUse">
<stop stop-color="#6B1686"/>
<stop offset="1" stop-color="#3D1E74"/>
</linearGradient>
<linearGradient id="paint2_linear" x1="23.5234" y1="53.8475" x2="23.5234" y2="41.1848" gradientUnits="userSpaceOnUse">
<stop stop-color="#6B1686"/>
<stop offset="1" stop-color="#3D1E74"/>
</linearGradient>
<linearGradient id="paint3_linear" x1="23.8715" y1="37.7465" x2="33.3842" y2="37.7465" gradientUnits="userSpaceOnUse">
<stop stop-color="#F7DE22"/>
<stop offset="1" stop-color="#EA5410"/>
</linearGradient>
</defs>
</svg>
