<svg width="160" height="80" viewBox="0 0 160 80" fill="none" xmlns="http://www.w3.org/2000/svg">
<path d="M55.6775 37.6321H58.8642V42.9882H60.8913V37.6321H64.0507V35.8528H55.6775V37.6321Z" fill="#00696A"/>
<path d="M81.6555 37.6321H84.8423V42.9882H86.8785V37.6321H90.0287V35.8528H81.6555V37.6321Z" fill="#00696A"/>
<path d="M128.79 37.6321H131.977V42.9882H134.004V37.6321H137.163V35.8528H128.79V37.6321Z" fill="#00696A"/>
<path d="M49.0848 35.8528C48.5552 35.8528 48.0986 35.9163 47.7243 36.0525C47.3499 36.1887 47.0486 36.3793 46.8203 36.6244C46.592 36.8695 46.4185 37.1691 46.3181 37.5141C46.2085 37.8591 46.1628 38.2494 46.1628 38.6852V40.1558C46.1628 40.5825 46.2176 40.9729 46.3181 41.3269C46.4185 41.681 46.592 41.9715 46.8203 42.2166C47.0486 42.4617 47.3499 42.6523 47.7243 42.7885C48.0986 42.9247 48.5552 42.9882 49.0848 42.9882H54.7096V41.1363H49.2674C48.8656 41.1363 48.5917 41.0455 48.4274 40.873C48.2721 40.7005 48.1899 40.401 48.1899 39.9743V38.776C48.1899 38.3402 48.2721 38.0406 48.4274 37.8772C48.5917 37.7138 48.8657 37.6321 49.2583 37.6321H54.7004V35.8528H49.0848Z" fill="#00696A"/>
<path d="M122.398 35.8528C121.869 35.8528 121.412 35.9163 121.038 36.0525C120.663 36.1887 120.362 36.3793 120.134 36.6244C119.905 36.8695 119.732 37.1691 119.632 37.5141C119.522 37.8591 119.476 38.2494 119.476 38.6852V40.1558C119.476 40.5825 119.531 40.9729 119.632 41.3269C119.732 41.681 119.905 41.9715 120.134 42.2166C120.362 42.4617 120.663 42.6523 121.038 42.7885C121.412 42.9247 121.869 42.9882 122.398 42.9882H128.023V41.1363H122.581C122.179 41.1363 121.905 41.0455 121.741 40.873C121.586 40.7005 121.503 40.401 121.503 39.9743V38.776C121.503 38.3402 121.586 38.0406 121.741 37.8772C121.905 37.7138 122.179 37.6321 122.572 37.6321H128.014V35.8528H122.398Z" fill="#00696A"/>
<path d="M32.7395 51.0219L23.5628 60.1455C22.4853 61.2167 20.723 61.2167 19.6455 60.1455L0.808101 41.4172C-0.269367 40.3459 -0.269367 38.5939 0.808101 37.5226L6.00369 32.3662H10.6514C15.8927 32.3662 18.2941 31.1225 19.1342 27.927H11.3545H10.4597L19.6455 18.8034C20.723 17.7322 22.4853 17.7322 23.5628 18.8034L32.7395 27.927H27.9457C21.0974 27.927 19.0977 30.0241 19.0977 35.8432V43.0876C19.0977 48.9067 21.1065 51.0128 27.9457 51.0128H32.7395V51.0219Z" fill="#00696A"/>
<path d="M42.3917 37.5324L37.1961 32.376H28.1837C25.0153 32.376 24.23 33.2929 24.23 36.1343V42.9067C24.23 45.7845 25.0153 46.6287 28.2111 46.6287H37.1596L42.3826 41.436C43.4692 40.3557 43.4692 38.6036 42.3917 37.5324ZM32.9136 42.2894H31.7175V38.413H32.9136V42.2894ZM32.9136 37.3781H31.7175V36.216H32.9136V37.3781Z" fill="#00696A"/>
<path d="M67.8674 42.9884V35.8801H69.8945V42.9884H67.8674Z" fill="#00696A"/>
<path d="M93.1057 41.1181H99.26V42.9701H91.0603L91.0786 35.8619L99.2326 35.8528L99.2418 37.6049L93.1057 37.6321V38.6579H96.4385V40.1014L93.1057 40.0923V41.1181Z" fill="#00696A"/>
<path d="M153.846 41.1181H160V42.9701H151.8L151.819 35.8619L159.973 35.8528L159.982 37.6049L153.846 37.6321V38.6579H157.178V40.1014L153.846 40.0923V41.1181Z" fill="#00696A"/>
<path d="M102.456 40.4099V42.9791H100.429L100.447 35.8708H106.3C106.747 35.8708 107.122 35.9253 107.432 36.0252C107.743 36.125 107.989 36.2794 108.181 36.4791C108.373 36.6788 108.51 36.9148 108.592 37.1963C108.674 37.4777 108.72 37.7954 108.72 38.1404V38.6488C108.72 38.9937 108.674 39.3024 108.592 39.5748C108.51 39.8471 108.373 40.0831 108.181 40.2738C107.998 40.4644 107.752 40.6097 107.46 40.7186C107.167 40.8185 106.802 40.8729 106.382 40.8729H106.172C106.072 40.8729 105.917 40.8729 105.917 40.8729V40.9274C105.999 41.0091 108.848 42.8883 108.848 42.8883V42.97H106.209L102.456 40.4099ZM102.456 37.6502V39.366H105.935C106.2 39.366 106.391 39.3115 106.51 39.2116C106.629 39.1118 106.684 38.912 106.684 38.6125V38.3674C106.684 38.095 106.629 37.9044 106.51 37.8045C106.391 37.7046 106.2 37.6502 105.935 37.6502H102.456Z" fill="#00696A"/>
<path d="M137.921 42.9884V35.8801H139.948V42.9884H137.921Z" fill="#00696A"/>
<path d="M148.76 35.8708H151.106V35.9526L147.408 42.9428L144.377 42.9518L140.706 35.9526V35.8708H143.089L145.719 41.2088H146.103L148.76 35.8708Z" fill="#00696A"/>
<path d="M119.321 42.952H112.5L113.578 41.1182H116.226L114.463 38.1043H114.199L111.359 42.952H109.341L113.477 35.8347H115.176L119.321 42.952Z" fill="#00696A"/>
<path d="M78.633 41.1363H78.4139L74.5788 35.8438H71.666V42.952H73.6566V37.6866H73.8849L77.656 42.952H80.6419V35.8438H78.633V41.1363Z" fill="#00696A"/>
</svg>
