<svg width="160" height="80" viewBox="0 0 160 80" fill="none" xmlns="http://www.w3.org/2000/svg">
<g clip-path="url(#clip0)">
<path d="M59.3143 52.0403H61.1281V52.1503C61.1176 52.2342 61.1273 52.3194 61.1562 52.3989C61.1851 52.4784 61.2326 52.5498 61.2946 52.6073C61.5111 52.7083 61.7508 52.7493 61.9885 52.7258H64.2932C64.4632 52.7405 64.6333 52.6999 64.7784 52.6101C64.8305 52.5622 64.8709 52.5029 64.8963 52.4369C64.9218 52.3708 64.9316 52.2998 64.9251 52.2293C64.9318 52.1561 64.9201 52.0824 64.8911 52.0149C64.862 51.9474 64.8165 51.8882 64.7587 51.8428C64.5339 51.7366 64.288 51.6826 64.0393 51.6849L61.1563 51.62C60.4342 51.5993 59.9462 51.462 59.6923 51.2081C59.4384 50.9542 59.3096 50.4935 59.3058 49.8259C59.2994 49.5404 59.3336 49.2555 59.4074 48.9796C59.4659 48.7671 59.5776 48.5729 59.7318 48.4154C59.9251 48.2387 60.1615 48.1161 60.4173 48.06C60.8719 47.9754 61.3345 47.9404 61.7967 47.9556H64.5979C65.2918 47.9556 65.7921 48.0825 66.0986 48.3364C66.2627 48.4943 66.389 48.6871 66.4681 48.9005C66.5472 49.114 66.5771 49.3425 66.5556 49.5692C66.5556 49.6058 66.5556 49.6482 66.5556 49.6905C66.5556 49.7328 66.5556 49.8033 66.5415 49.8992H64.7728V49.8738C64.7789 49.7927 64.7686 49.7111 64.7424 49.634C64.7163 49.5569 64.6748 49.4859 64.6204 49.4253C64.5584 49.3716 64.4863 49.3307 64.4083 49.3051C64.3304 49.2794 64.2481 49.2695 64.1663 49.2758H62.0506C61.8124 49.255 61.5727 49.2908 61.351 49.3802C61.2926 49.4206 61.2461 49.476 61.2164 49.5405C61.1866 49.6049 61.1746 49.6762 61.1817 49.7469C61.1769 49.8146 61.188 49.8824 61.2139 49.9451C61.2399 50.0077 61.28 50.0635 61.3312 50.108C61.5036 50.2045 61.6979 50.255 61.8954 50.2547L64.9138 50.3026C65.6021 50.3214 66.0873 50.4766 66.3694 50.7681C66.6515 51.0596 66.7925 51.556 66.7925 52.2575C66.8075 52.5873 66.7547 52.9166 66.6374 53.2251C66.5233 53.4667 66.3421 53.6703 66.1155 53.8118C65.9133 53.9283 65.6898 54.0031 65.4583 54.0319C65.0599 54.084 64.6582 54.1066 64.2565 54.0996H61.8108C60.8066 54.0996 60.1352 53.9867 59.7967 53.7611C59.4582 53.5354 59.2889 53.116 59.2889 52.5029C59.2889 52.4672 59.2889 52.4089 59.2889 52.328C59.2889 52.2472 59.2974 52.1513 59.3143 52.0403Z" fill="white"/>
<path d="M79.7265 54.0374H77.8929V49.5013H75.3766V48.0288H82.2399V49.5013H79.7237L79.7265 54.0374Z" fill="white"/>
<path d="M90.982 48.0261H92.8156V51.5918C92.8156 51.998 92.9096 52.2707 93.0977 52.4098C93.2857 52.549 93.6872 52.6186 94.3022 52.6186H95.3431C95.8565 52.6186 96.2007 52.5452 96.3756 52.3986C96.475 52.291 96.55 52.1632 96.5953 52.024C96.6406 51.8847 96.6551 51.7372 96.6379 51.5918V48.0261H98.4743V52.1616C98.4743 52.8687 98.2863 53.3708 97.9102 53.668C97.534 53.9651 96.8758 54.1127 95.9355 54.1109H93.8847C92.7845 54.1109 92.0276 53.9698 91.6139 53.6877C91.2001 53.4056 90.9933 52.8969 90.9933 52.1616L90.982 48.0261Z" fill="white"/>
<path d="M112.886 48.0261C113.804 48.0261 114.472 48.1869 114.889 48.5085C115.307 48.8301 115.516 49.3426 115.516 50.0459V52.1136C115.516 52.7813 115.349 53.2693 115.016 53.5777C114.683 53.8861 114.153 54.0403 113.425 54.0403H107.614V48.0261H112.886ZM112.322 49.5071H109.445V52.5763H112.548C112.849 52.6001 113.149 52.5161 113.394 52.3393C113.493 52.2429 113.569 52.126 113.618 51.9968C113.667 51.8677 113.687 51.7294 113.676 51.5918V50.5339C113.688 50.3876 113.664 50.2406 113.606 50.1056C113.549 49.9705 113.46 49.8513 113.346 49.7582C113.041 49.5693 112.683 49.4814 112.325 49.5071H112.322Z" fill="white"/>
<path d="M126.441 54.0375H124.605V48.0261H126.441V54.0375Z" fill="white"/>
<path d="M138.534 54.1108C138.018 54.1236 137.502 54.0915 136.991 54.0149C136.705 53.9684 136.433 53.8575 136.196 53.6905C135.966 53.5195 135.792 53.2838 135.696 53.0135C135.583 52.6554 135.531 52.2804 135.544 51.9049V50.2659C135.53 49.8616 135.581 49.4577 135.696 49.0699C135.788 48.7911 135.962 48.547 136.196 48.3703C136.436 48.2041 136.711 48.0942 137 48.0487C137.504 47.9725 138.013 47.9404 138.523 47.9528H140.684C141.196 47.9405 141.709 47.9726 142.216 48.0487C142.505 48.0932 142.78 48.2032 143.02 48.3703C143.249 48.5476 143.419 48.7892 143.51 49.0642C143.624 49.4291 143.677 49.8104 143.666 50.1926V51.8682C143.677 52.2504 143.625 52.6318 143.51 52.9966C143.418 53.2709 143.247 53.5121 143.02 53.6905C142.782 53.8587 142.509 53.9697 142.221 54.0149C141.712 54.0909 141.198 54.123 140.684 54.1108H138.534ZM139.031 52.6101H140.199C140.847 52.6101 141.278 52.5283 141.491 52.3647C141.703 52.2011 141.809 51.8992 141.809 51.4592V50.6129C141.809 50.171 141.703 49.8691 141.491 49.7074C141.278 49.5456 140.847 49.4638 140.199 49.462H139.025C138.363 49.462 137.929 49.5438 137.722 49.7074C137.515 49.871 137.413 50.1832 137.414 50.6439V51.4902C137.395 51.6538 137.414 51.8198 137.47 51.9747C137.527 52.1295 137.619 52.2689 137.739 52.3816C137.953 52.5339 138.384 52.6101 139.031 52.6101Z" fill="white"/>
<path d="M152.633 52.0403H154.447V52.1503C154.437 52.2342 154.446 52.3194 154.475 52.3989C154.504 52.4784 154.552 52.5498 154.614 52.6073C154.83 52.7083 155.07 52.7493 155.308 52.7258H157.612C157.782 52.7405 157.952 52.6999 158.097 52.6101C158.15 52.5622 158.19 52.5029 158.215 52.4369C158.241 52.3708 158.251 52.2998 158.244 52.2293C158.251 52.1561 158.239 52.0824 158.21 52.0149C158.181 51.9474 158.135 51.8882 158.078 51.8428C157.853 51.7366 157.607 51.6826 157.358 51.6849L154.475 51.62C153.753 51.5993 153.265 51.462 153.011 51.2081C152.757 50.9542 152.629 50.4935 152.625 49.8259C152.618 49.5404 152.653 49.2555 152.726 48.9796C152.785 48.7671 152.897 48.5729 153.051 48.4154C153.244 48.2387 153.48 48.1161 153.736 48.06C154.191 47.9754 154.653 47.9404 155.116 47.9556H157.917C158.611 47.9556 159.111 48.0825 159.418 48.3364C159.582 48.4943 159.708 48.6871 159.787 48.9005C159.866 49.114 159.896 49.3425 159.875 49.5692C159.875 49.6058 159.875 49.6482 159.875 49.6905C159.875 49.7328 159.875 49.8033 159.86 49.8992H158.089V49.8738C158.095 49.7927 158.085 49.7111 158.059 49.634C158.032 49.5569 157.991 49.4859 157.937 49.4253C157.875 49.3716 157.802 49.3307 157.724 49.3051C157.647 49.2794 157.564 49.2695 157.482 49.2758H155.367C155.129 49.255 154.889 49.2908 154.667 49.3802C154.609 49.4206 154.562 49.476 154.533 49.5405C154.503 49.6049 154.491 49.6762 154.498 49.7469C154.492 49.8166 154.502 49.8868 154.529 49.9516C154.555 50.0164 154.597 50.0739 154.65 50.1193C154.823 50.2158 155.017 50.2663 155.214 50.2659L158.233 50.3139C158.921 50.3327 159.406 50.4879 159.688 50.7794C159.97 51.0708 160.112 51.5673 160.112 52.2688C160.126 52.5985 160.074 52.9278 159.956 53.2364C159.842 53.4779 159.661 53.6816 159.435 53.8231C159.232 53.9396 159.009 54.0144 158.777 54.0432C158.379 54.0953 157.977 54.1179 157.576 54.1109H155.13C154.126 54.1109 153.454 53.998 153.116 53.7724C152.777 53.5467 152.608 53.1273 152.608 52.5142C152.608 52.4785 152.608 52.4202 152.608 52.3393C152.608 52.2585 152.616 52.1588 152.633 52.0403Z" fill="white"/>
<path d="M0.808314 28.3583C1.19001 28.3583 1.49944 28.0489 1.49944 27.6672C1.49944 27.2855 1.19001 26.9761 0.808314 26.9761C0.426615 26.9761 0.117188 27.2855 0.117188 27.6672C0.117188 28.0489 0.426615 28.3583 0.808314 28.3583Z" fill="white"/>
<path d="M0.808314 33.7182C1.19001 33.7182 1.49944 33.4088 1.49944 33.0271C1.49944 32.6454 1.19001 32.3359 0.808314 32.3359C0.426615 32.3359 0.117188 32.6454 0.117188 33.0271C0.117188 33.4088 0.426615 33.7182 0.808314 33.7182Z" fill="white"/>
<path d="M0.808314 38.7958C1.19001 38.7958 1.49944 38.4864 1.49944 38.1047C1.49944 37.723 1.19001 37.4136 0.808314 37.4136C0.426615 37.4136 0.117188 37.723 0.117188 38.1047C0.117188 38.4864 0.426615 38.7958 0.808314 38.7958Z" fill="white"/>
<path d="M0.808314 43.8737C1.19001 43.8737 1.49944 43.5643 1.49944 43.1826C1.49944 42.8009 1.19001 42.4915 0.808314 42.4915C0.426615 42.4915 0.117188 42.8009 0.117188 43.1826C0.117188 43.5643 0.426615 43.8737 0.808314 43.8737Z" fill="white"/>
<path d="M0.808314 49.2336C1.19001 49.2336 1.49944 48.9241 1.49944 48.5424C1.49944 48.1607 1.19001 47.8513 0.808314 47.8513C0.426615 47.8513 0.117188 48.1607 0.117188 48.5424C0.117188 48.9241 0.426615 49.2336 0.808314 49.2336Z" fill="white"/>
<path d="M0.808314 54.311C1.19001 54.311 1.49944 54.0015 1.49944 53.6198C1.49944 53.2381 1.19001 52.9287 0.808314 52.9287C0.426615 52.9287 0.117188 53.2381 0.117188 53.6198C0.117188 54.0015 0.426615 54.311 0.808314 54.311Z" fill="white"/>
<path d="M5.32179 25.8198C5.70349 25.8198 6.01291 25.5103 6.01291 25.1286C6.01291 24.7469 5.70349 24.4375 5.32179 24.4375C4.94009 24.4375 4.63066 24.7469 4.63066 25.1286C4.63066 25.5103 4.94009 25.8198 5.32179 25.8198Z" fill="white"/>
<path d="M5.32178 32.2877C6.31576 32.2877 7.12153 31.482 7.12153 30.488C7.12153 29.494 6.31576 28.6882 5.32178 28.6882C4.32781 28.6882 3.52203 29.494 3.52203 30.488C3.52203 31.482 4.32781 32.2877 5.32178 32.2877Z" fill="white"/>
<path d="M5.32178 37.3656C6.31576 37.3656 7.12153 36.5598 7.12153 35.5659C7.12153 34.5719 6.31576 33.7661 5.32178 33.7661C4.32781 33.7661 3.52203 34.5719 3.52203 35.5659C3.52203 36.5598 4.32781 37.3656 5.32178 37.3656Z" fill="white"/>
<path d="M5.32178 42.4432C6.31576 42.4432 7.12153 41.6375 7.12153 40.6435C7.12153 39.6495 6.31576 38.8438 5.32178 38.8438C4.32781 38.8438 3.52203 39.6495 3.52203 40.6435C3.52203 41.6375 4.32781 42.4432 5.32178 42.4432Z" fill="white"/>
<path d="M5.32178 47.8031C6.31576 47.8031 7.12153 46.9973 7.12153 46.0034C7.12153 45.0094 6.31576 44.2036 5.32178 44.2036C4.32781 44.2036 3.52203 45.0094 3.52203 46.0034C3.52203 46.9973 4.32781 47.8031 5.32178 47.8031Z" fill="white"/>
<path d="M5.32178 52.8807C6.31576 52.8807 7.12153 52.075 7.12153 51.081C7.12153 50.087 6.31576 49.2812 5.32178 49.2812C4.32781 49.2812 3.52203 50.087 3.52203 51.081C3.52203 52.075 4.32781 52.8807 5.32178 52.8807Z" fill="white"/>
<path d="M5.32179 56.8498C5.70349 56.8498 6.01291 56.5404 6.01291 56.1587C6.01291 55.777 5.70349 55.4675 5.32179 55.4675C4.94009 55.4675 4.63066 55.777 4.63066 56.1587C4.63066 56.5404 4.94009 56.8498 5.32179 56.8498Z" fill="white"/>
<path d="M9.83528 23.2809C10.217 23.2809 10.5264 22.9715 10.5264 22.5898C10.5264 22.2081 10.217 21.8987 9.83528 21.8987C9.45358 21.8987 9.14415 22.2081 9.14415 22.5898C9.14415 22.9715 9.45358 23.2809 9.83528 23.2809Z" fill="white"/>
<path d="M9.83528 28.6408C10.217 28.6408 10.5264 28.3314 10.5264 27.9497C10.5264 27.568 10.217 27.2585 9.83528 27.2585C9.45358 27.2585 9.14415 27.568 9.14415 27.9497C9.14415 28.3314 9.45358 28.6408 9.83528 28.6408Z" fill="white"/>
<path d="M9.83527 34.8266C10.8292 34.8266 11.635 34.0208 11.635 33.0268C11.635 32.0328 10.8292 31.2271 9.83527 31.2271C8.8413 31.2271 8.03552 32.0328 8.03552 33.0268C8.03552 34.0208 8.8413 34.8266 9.83527 34.8266Z" fill="white"/>
<path d="M9.83527 39.9044C10.8292 39.9044 11.635 39.0987 11.635 38.1047C11.635 37.1107 10.8292 36.3049 9.83527 36.3049C8.8413 36.3049 8.03552 37.1107 8.03552 38.1047C8.03552 39.0987 8.8413 39.9044 9.83527 39.9044Z" fill="white"/>
<path d="M9.83527 45.2643C10.8292 45.2643 11.635 44.4585 11.635 43.4645C11.635 42.4706 10.8292 41.6648 9.83527 41.6648C8.8413 41.6648 8.03552 42.4706 8.03552 43.4645C8.03552 44.4585 8.8413 45.2643 9.83527 45.2643Z" fill="white"/>
<path d="M9.83527 50.3419C10.8292 50.3419 11.635 49.5362 11.635 48.5422C11.635 47.5482 10.8292 46.7424 9.83527 46.7424C8.8413 46.7424 8.03552 47.5482 8.03552 48.5422C8.03552 49.5362 8.8413 50.3419 9.83527 50.3419Z" fill="white"/>
<path d="M9.83527 55.7018C10.8292 55.7018 11.635 54.896 11.635 53.902C11.635 52.9081 10.8292 52.1023 9.83527 52.1023C8.8413 52.1023 8.03552 52.9081 8.03552 53.902C8.03552 54.896 8.8413 55.7018 9.83527 55.7018Z" fill="white"/>
<path d="M9.83528 59.6708C10.217 59.6708 10.5264 59.3614 10.5264 58.9797C10.5264 58.598 10.217 58.2886 9.83528 58.2886C9.45358 58.2886 9.14415 58.598 9.14415 58.9797C9.14415 59.3614 9.45358 59.6708 9.83528 59.6708Z" fill="white"/>
<path d="M14.3487 20.7421C14.7304 20.7421 15.0399 20.4327 15.0399 20.051C15.0399 19.6693 14.7304 19.3599 14.3487 19.3599C13.9671 19.3599 13.6576 19.6693 13.6576 20.051C13.6576 20.4327 13.9671 20.7421 14.3487 20.7421Z" fill="white"/>
<path d="M14.3487 26.1015C14.7304 26.1015 15.0399 25.7921 15.0399 25.4104C15.0399 25.0287 14.7304 24.7192 14.3487 24.7192C13.9671 24.7192 13.6576 25.0287 13.6576 25.4104C13.6576 25.7921 13.9671 26.1015 14.3487 26.1015Z" fill="white"/>
<path d="M14.3487 31.1794C14.7304 31.1794 15.0399 30.8699 15.0399 30.4882C15.0399 30.1065 14.7304 29.7971 14.3487 29.7971C13.9671 29.7971 13.6576 30.1065 13.6576 30.4882C13.6576 30.8699 13.9671 31.1794 14.3487 31.1794Z" fill="white"/>
<path d="M14.3487 37.3656C15.3427 37.3656 16.1485 36.5598 16.1485 35.5659C16.1485 34.5719 15.3427 33.7661 14.3487 33.7661C13.3548 33.7661 12.549 34.5719 12.549 35.5659C12.549 36.5598 13.3548 37.3656 14.3487 37.3656Z" fill="white"/>
<path d="M14.3487 42.7252C15.3427 42.7252 16.1485 41.9195 16.1485 40.9255C16.1485 39.9315 15.3427 39.1257 14.3487 39.1257C13.3548 39.1257 12.549 39.9315 12.549 40.9255C12.549 41.9195 13.3548 42.7252 14.3487 42.7252Z" fill="white"/>
<path d="M14.3487 46.6945C14.7304 46.6945 15.0399 46.3851 15.0399 46.0034C15.0399 45.6217 14.7304 45.3123 14.3487 45.3123C13.9671 45.3123 13.6576 45.6217 13.6576 46.0034C13.6576 46.3851 13.9671 46.6945 14.3487 46.6945Z" fill="white"/>
<path d="M14.3487 51.7724C14.7304 51.7724 15.0399 51.463 15.0399 51.0813C15.0399 50.6996 14.7304 50.3901 14.3487 50.3901C13.9671 50.3901 13.6576 50.6996 13.6576 51.0813C13.6576 51.463 13.9671 51.7724 14.3487 51.7724Z" fill="white"/>
<path d="M14.3487 57.1318C14.7304 57.1318 15.0399 56.8223 15.0399 56.4406C15.0399 56.0589 14.7304 55.7495 14.3487 55.7495C13.9671 55.7495 13.6576 56.0589 13.6576 56.4406C13.6576 56.8223 13.9671 57.1318 14.3487 57.1318Z" fill="white"/>
<path d="M14.3487 62.2096C14.7304 62.2096 15.0399 61.9002 15.0399 61.5185C15.0399 61.1368 14.7304 60.8274 14.3487 60.8274C13.9671 60.8274 13.6576 61.1368 13.6576 61.5185C13.6576 61.9002 13.9671 62.2096 14.3487 62.2096Z" fill="white"/>
<path d="M18.8622 17.9211C19.2439 17.9211 19.5534 17.6116 19.5534 17.2299C19.5534 16.8482 19.2439 16.5388 18.8622 16.5388C18.4805 16.5388 18.1711 16.8482 18.1711 17.2299C18.1711 17.6116 18.4805 17.9211 18.8622 17.9211Z" fill="white"/>
<path d="M18.8622 23.2809C19.2439 23.2809 19.5534 22.9715 19.5534 22.5898C19.5534 22.2081 19.2439 21.8987 18.8622 21.8987C18.4805 21.8987 18.1711 22.2081 18.1711 22.5898C18.1711 22.9715 18.4805 23.2809 18.8622 23.2809Z" fill="white"/>
<path d="M18.8622 28.3583C19.2439 28.3583 19.5534 28.0489 19.5534 27.6672C19.5534 27.2855 19.2439 26.9761 18.8622 26.9761C18.4805 26.9761 18.1711 27.2855 18.1711 27.6672C18.1711 28.0489 18.4805 28.3583 18.8622 28.3583Z" fill="white"/>
<path d="M18.8622 33.4362C19.2439 33.4362 19.5534 33.1268 19.5534 32.7451C19.5534 32.3634 19.2439 32.054 18.8622 32.054C18.4805 32.054 18.1711 32.3634 18.1711 32.7451C18.1711 33.1268 18.4805 33.4362 18.8622 33.4362Z" fill="white"/>
<path d="M18.8622 39.9044C19.8562 39.9044 20.662 39.0987 20.662 38.1047C20.662 37.1107 19.8562 36.3049 18.8622 36.3049C17.8683 36.3049 17.0625 37.1107 17.0625 38.1047C17.0625 39.0987 17.8683 39.9044 18.8622 39.9044Z" fill="white"/>
<path d="M18.8622 44.9821C19.8562 44.9821 20.662 44.1763 20.662 43.1823C20.662 42.1883 19.8562 41.3826 18.8622 41.3826C17.8683 41.3826 17.0625 42.1883 17.0625 43.1823C17.0625 44.1763 17.8683 44.9821 18.8622 44.9821Z" fill="white"/>
<path d="M18.8622 48.9511C19.2439 48.9511 19.5534 48.6417 19.5534 48.26C19.5534 47.8783 19.2439 47.5688 18.8622 47.5688C18.4805 47.5688 18.1711 47.8783 18.1711 48.26C18.1711 48.6417 18.4805 48.9511 18.8622 48.9511Z" fill="white"/>
<path d="M18.8622 54.029C19.2439 54.029 19.5534 53.7196 19.5534 53.3379C19.5534 52.9562 19.2439 52.6467 18.8622 52.6467C18.4805 52.6467 18.1711 52.9562 18.1711 53.3379C18.1711 53.7196 18.4805 54.029 18.8622 54.029Z" fill="white"/>
<path d="M18.8622 59.3886C19.2439 59.3886 19.5534 59.0792 19.5534 58.6975C19.5534 58.3158 19.2439 58.0063 18.8622 58.0063C18.4805 58.0063 18.1711 58.3158 18.1711 58.6975C18.1711 59.0792 18.4805 59.3886 18.8622 59.3886Z" fill="white"/>
<path d="M18.8622 64.4665C19.2439 64.4665 19.5534 64.1571 19.5534 63.7754C19.5534 63.3937 19.2439 63.0842 18.8622 63.0842C18.4805 63.0842 18.1711 63.3937 18.1711 63.7754C18.1711 64.1571 18.4805 64.4665 18.8622 64.4665Z" fill="white"/>
<path d="M23.0936 15.3823C23.4753 15.3823 23.7847 15.0728 23.7847 14.6911C23.7847 14.3094 23.4753 14 23.0936 14C22.7119 14 22.4025 14.3094 22.4025 14.6911C22.4025 15.0728 22.7119 15.3823 23.0936 15.3823Z" fill="white"/>
<path d="M23.0936 20.7421C23.4753 20.7421 23.7847 20.4327 23.7847 20.051C23.7847 19.6693 23.4753 19.3599 23.0936 19.3599C22.7119 19.3599 22.4025 19.6693 22.4025 20.051C22.4025 20.4327 22.7119 20.7421 23.0936 20.7421Z" fill="white"/>
<path d="M23.0936 25.8198C23.4753 25.8198 23.7847 25.5103 23.7847 25.1286C23.7847 24.7469 23.4753 24.4375 23.0936 24.4375C22.7119 24.4375 22.4025 24.7469 22.4025 25.1286C22.4025 25.5103 22.7119 25.8198 23.0936 25.8198Z" fill="white"/>
<path d="M23.0936 30.8971C23.4753 30.8971 23.7847 30.5877 23.7847 30.206C23.7847 29.8243 23.4753 29.5149 23.0936 29.5149C22.7119 29.5149 22.4025 29.8243 22.4025 30.206C22.4025 30.5877 22.7119 30.8971 23.0936 30.8971Z" fill="white"/>
<path d="M23.0936 36.257C23.4753 36.257 23.7847 35.9476 23.7847 35.5659C23.7847 35.1842 23.4753 34.8748 23.0936 34.8748C22.7119 34.8748 22.4025 35.1842 22.4025 35.5659C22.4025 35.9476 22.7119 36.257 23.0936 36.257Z" fill="white"/>
<path d="M23.0936 42.4432C24.0876 42.4432 24.8934 41.6375 24.8934 40.6435C24.8934 39.6495 24.0876 38.8438 23.0936 38.8438C22.0996 38.8438 21.2939 39.6495 21.2939 40.6435C21.2939 41.6375 22.0996 42.4432 23.0936 42.4432Z" fill="white"/>
<path d="M23.0936 47.8031C24.0876 47.8031 24.8934 46.9973 24.8934 46.0034C24.8934 45.0094 24.0876 44.2036 23.0936 44.2036C22.0996 44.2036 21.2939 45.0094 21.2939 46.0034C21.2939 46.9973 22.0996 47.8031 23.0936 47.8031Z" fill="white"/>
<path d="M23.0936 51.7724C23.4753 51.7724 23.7847 51.463 23.7847 51.0813C23.7847 50.6996 23.4753 50.3901 23.0936 50.3901C22.7119 50.3901 22.4025 50.6996 22.4025 51.0813C22.4025 51.463 22.7119 51.7724 23.0936 51.7724Z" fill="white"/>
<path d="M23.0936 56.8498C23.4753 56.8498 23.7847 56.5404 23.7847 56.1587C23.7847 55.777 23.4753 55.4675 23.0936 55.4675C22.7119 55.4675 22.4025 55.777 22.4025 56.1587C22.4025 56.5404 22.7119 56.8498 23.0936 56.8498Z" fill="white"/>
<path d="M23.0936 62.2096C23.4753 62.2096 23.7847 61.9002 23.7847 61.5185C23.7847 61.1368 23.4753 60.8274 23.0936 60.8274C22.7119 60.8274 22.4025 61.1368 22.4025 61.5185C22.4025 61.9002 22.7119 62.2096 23.0936 62.2096Z" fill="white"/>
<path d="M23.0936 67.2873C23.4753 67.2873 23.7847 66.9779 23.7847 66.5962C23.7847 66.2145 23.4753 65.905 23.0936 65.905C22.7119 65.905 22.4025 66.2145 22.4025 66.5962C22.4025 66.9779 22.7119 67.2873 23.0936 67.2873Z" fill="white"/>
<path d="M45.3592 28.3583C45.7409 28.3583 46.0503 28.0489 46.0503 27.6672C46.0503 27.2855 45.7409 26.9761 45.3592 26.9761C44.9775 26.9761 44.668 27.2855 44.668 27.6672C44.668 28.0489 44.9775 28.3583 45.3592 28.3583Z" fill="white"/>
<path d="M45.3592 33.7182C45.7409 33.7182 46.0503 33.4088 46.0503 33.0271C46.0503 32.6454 45.7409 32.3359 45.3592 32.3359C44.9775 32.3359 44.668 32.6454 44.668 33.0271C44.668 33.4088 44.9775 33.7182 45.3592 33.7182Z" fill="white"/>
<path d="M45.3592 38.7958C45.7409 38.7958 46.0503 38.4864 46.0503 38.1047C46.0503 37.723 45.7409 37.4136 45.3592 37.4136C44.9775 37.4136 44.668 37.723 44.668 38.1047C44.668 38.4864 44.9775 38.7958 45.3592 38.7958Z" fill="white"/>
<path d="M45.3592 43.8737C45.7409 43.8737 46.0503 43.5643 46.0503 43.1826C46.0503 42.8009 45.7409 42.4915 45.3592 42.4915C44.9775 42.4915 44.668 42.8009 44.668 43.1826C44.668 43.5643 44.9775 43.8737 45.3592 43.8737Z" fill="white"/>
<path d="M45.3592 49.2336C45.7409 49.2336 46.0503 48.9241 46.0503 48.5424C46.0503 48.1607 45.7409 47.8513 45.3592 47.8513C44.9775 47.8513 44.668 48.1607 44.668 48.5424C44.668 48.9241 44.9775 49.2336 45.3592 49.2336Z" fill="white"/>
<path d="M45.3592 54.311C45.7409 54.311 46.0503 54.0015 46.0503 53.6198C46.0503 53.2381 45.7409 52.9287 45.3592 52.9287C44.9775 52.9287 44.668 53.2381 44.668 53.6198C44.668 54.0015 44.9775 54.311 45.3592 54.311Z" fill="white"/>
<path d="M40.8457 25.8198C41.2274 25.8198 41.5368 25.5103 41.5368 25.1286C41.5368 24.7469 41.2274 24.4375 40.8457 24.4375C40.464 24.4375 40.1546 24.7469 40.1546 25.1286C40.1546 25.5103 40.464 25.8198 40.8457 25.8198Z" fill="white"/>
<path d="M40.8457 32.2877C41.8397 32.2877 42.6454 31.482 42.6454 30.488C42.6454 29.494 41.8397 28.6882 40.8457 28.6882C39.8517 28.6882 39.0459 29.494 39.0459 30.488C39.0459 31.482 39.8517 32.2877 40.8457 32.2877Z" fill="white"/>
<path d="M40.8457 37.3656C41.8397 37.3656 42.6454 36.5598 42.6454 35.5659C42.6454 34.5719 41.8397 33.7661 40.8457 33.7661C39.8517 33.7661 39.0459 34.5719 39.0459 35.5659C39.0459 36.5598 39.8517 37.3656 40.8457 37.3656Z" fill="white"/>
<path d="M40.8457 42.4432C41.8397 42.4432 42.6454 41.6375 42.6454 40.6435C42.6454 39.6495 41.8397 38.8438 40.8457 38.8438C39.8517 38.8438 39.0459 39.6495 39.0459 40.6435C39.0459 41.6375 39.8517 42.4432 40.8457 42.4432Z" fill="white"/>
<path d="M40.8457 47.8031C41.8397 47.8031 42.6454 46.9973 42.6454 46.0034C42.6454 45.0094 41.8397 44.2036 40.8457 44.2036C39.8517 44.2036 39.0459 45.0094 39.0459 46.0034C39.0459 46.9973 39.8517 47.8031 40.8457 47.8031Z" fill="white"/>
<path d="M40.8457 52.8807C41.8397 52.8807 42.6454 52.075 42.6454 51.081C42.6454 50.087 41.8397 49.2812 40.8457 49.2812C39.8517 49.2812 39.0459 50.087 39.0459 51.081C39.0459 52.075 39.8517 52.8807 40.8457 52.8807Z" fill="white"/>
<path d="M40.8457 56.8498C41.2274 56.8498 41.5368 56.5404 41.5368 56.1587C41.5368 55.777 41.2274 55.4675 40.8457 55.4675C40.464 55.4675 40.1546 55.777 40.1546 56.1587C40.1546 56.5404 40.464 56.8498 40.8457 56.8498Z" fill="white"/>
<path d="M36.3322 23.2809C36.7139 23.2809 37.0233 22.9715 37.0233 22.5898C37.0233 22.2081 36.7139 21.8987 36.3322 21.8987C35.9505 21.8987 35.6411 22.2081 35.6411 22.5898C35.6411 22.9715 35.9505 23.2809 36.3322 23.2809Z" fill="white"/>
<path d="M36.3322 28.6408C36.7139 28.6408 37.0233 28.3314 37.0233 27.9497C37.0233 27.568 36.7139 27.2585 36.3322 27.2585C35.9505 27.2585 35.6411 27.568 35.6411 27.9497C35.6411 28.3314 35.9505 28.6408 36.3322 28.6408Z" fill="white"/>
<path d="M36.3322 34.8266C37.3262 34.8266 38.132 34.0208 38.132 33.0268C38.132 32.0328 37.3262 31.2271 36.3322 31.2271C35.3382 31.2271 34.5325 32.0328 34.5325 33.0268C34.5325 34.0208 35.3382 34.8266 36.3322 34.8266Z" fill="white"/>
<path d="M36.3322 39.9044C37.3262 39.9044 38.132 39.0987 38.132 38.1047C38.132 37.1107 37.3262 36.3049 36.3322 36.3049C35.3382 36.3049 34.5325 37.1107 34.5325 38.1047C34.5325 39.0987 35.3382 39.9044 36.3322 39.9044Z" fill="white"/>
<path d="M36.3322 45.2643C37.3262 45.2643 38.132 44.4585 38.132 43.4645C38.132 42.4706 37.3262 41.6648 36.3322 41.6648C35.3382 41.6648 34.5325 42.4706 34.5325 43.4645C34.5325 44.4585 35.3382 45.2643 36.3322 45.2643Z" fill="white"/>
<path d="M36.3322 50.3419C37.3262 50.3419 38.132 49.5362 38.132 48.5422C38.132 47.5482 37.3262 46.7424 36.3322 46.7424C35.3382 46.7424 34.5325 47.5482 34.5325 48.5422C34.5325 49.5362 35.3382 50.3419 36.3322 50.3419Z" fill="white"/>
<path d="M36.3322 55.7018C37.3262 55.7018 38.132 54.896 38.132 53.902C38.132 52.9081 37.3262 52.1023 36.3322 52.1023C35.3382 52.1023 34.5325 52.9081 34.5325 53.902C34.5325 54.896 35.3382 55.7018 36.3322 55.7018Z" fill="white"/>
<path d="M36.3322 59.6708C36.7139 59.6708 37.0233 59.3614 37.0233 58.9797C37.0233 58.598 36.7139 58.2886 36.3322 58.2886C35.9505 58.2886 35.6411 58.598 35.6411 58.9797C35.6411 59.3614 35.9505 59.6708 36.3322 59.6708Z" fill="white"/>
<path d="M31.8187 20.7421C32.2004 20.7421 32.5099 20.4327 32.5099 20.051C32.5099 19.6693 32.2004 19.3599 31.8187 19.3599C31.437 19.3599 31.1276 19.6693 31.1276 20.051C31.1276 20.4327 31.437 20.7421 31.8187 20.7421Z" fill="white"/>
<path d="M31.8187 26.1015C32.2004 26.1015 32.5099 25.7921 32.5099 25.4104C32.5099 25.0287 32.2004 24.7192 31.8187 24.7192C31.437 24.7192 31.1276 25.0287 31.1276 25.4104C31.1276 25.7921 31.437 26.1015 31.8187 26.1015Z" fill="white"/>
<path d="M31.8187 31.1794C32.2004 31.1794 32.5099 30.8699 32.5099 30.4882C32.5099 30.1065 32.2004 29.7971 31.8187 29.7971C31.437 29.7971 31.1276 30.1065 31.1276 30.4882C31.1276 30.8699 31.437 31.1794 31.8187 31.1794Z" fill="white"/>
<path d="M31.8187 37.3656C32.8127 37.3656 33.6185 36.5598 33.6185 35.5659C33.6185 34.5719 32.8127 33.7661 31.8187 33.7661C30.8248 33.7661 30.019 34.5719 30.019 35.5659C30.019 36.5598 30.8248 37.3656 31.8187 37.3656Z" fill="white"/>
<path d="M31.8187 42.7252C32.8127 42.7252 33.6185 41.9195 33.6185 40.9255C33.6185 39.9315 32.8127 39.1257 31.8187 39.1257C30.8248 39.1257 30.019 39.9315 30.019 40.9255C30.019 41.9195 30.8248 42.7252 31.8187 42.7252Z" fill="white"/>
<path d="M31.8187 46.6945C32.2004 46.6945 32.5099 46.3851 32.5099 46.0034C32.5099 45.6217 32.2004 45.3123 31.8187 45.3123C31.437 45.3123 31.1276 45.6217 31.1276 46.0034C31.1276 46.3851 31.437 46.6945 31.8187 46.6945Z" fill="white"/>
<path d="M31.8187 51.7724C32.2004 51.7724 32.5099 51.463 32.5099 51.0813C32.5099 50.6996 32.2004 50.3901 31.8187 50.3901C31.437 50.3901 31.1276 50.6996 31.1276 51.0813C31.1276 51.463 31.437 51.7724 31.8187 51.7724Z" fill="white"/>
<path d="M31.8187 57.1318C32.2004 57.1318 32.5099 56.8223 32.5099 56.4406C32.5099 56.0589 32.2004 55.7495 31.8187 55.7495C31.437 55.7495 31.1276 56.0589 31.1276 56.4406C31.1276 56.8223 31.437 57.1318 31.8187 57.1318Z" fill="white"/>
<path d="M31.8187 62.2096C32.2004 62.2096 32.5099 61.9002 32.5099 61.5185C32.5099 61.1368 32.2004 60.8274 31.8187 60.8274C31.437 60.8274 31.1276 61.1368 31.1276 61.5185C31.1276 61.9002 31.437 62.2096 31.8187 62.2096Z" fill="white"/>
<path d="M27.3053 17.9211C27.687 17.9211 27.9964 17.6116 27.9964 17.2299C27.9964 16.8482 27.687 16.5388 27.3053 16.5388C26.9236 16.5388 26.6141 16.8482 26.6141 17.2299C26.6141 17.6116 26.9236 17.9211 27.3053 17.9211Z" fill="white"/>
<path d="M27.3053 23.2809C27.687 23.2809 27.9964 22.9715 27.9964 22.5898C27.9964 22.2081 27.687 21.8987 27.3053 21.8987C26.9236 21.8987 26.6141 22.2081 26.6141 22.5898C26.6141 22.9715 26.9236 23.2809 27.3053 23.2809Z" fill="white"/>
<path d="M27.3053 28.3583C27.687 28.3583 27.9964 28.0489 27.9964 27.6672C27.9964 27.2855 27.687 26.9761 27.3053 26.9761C26.9236 26.9761 26.6141 27.2855 26.6141 27.6672C26.6141 28.0489 26.9236 28.3583 27.3053 28.3583Z" fill="white"/>
<path d="M27.3053 33.4362C27.687 33.4362 27.9964 33.1268 27.9964 32.7451C27.9964 32.3634 27.687 32.054 27.3053 32.054C26.9236 32.054 26.6141 32.3634 26.6141 32.7451C26.6141 33.1268 26.9236 33.4362 27.3053 33.4362Z" fill="white"/>
<path d="M27.3053 39.9044C28.2992 39.9044 29.105 39.0987 29.105 38.1047C29.105 37.1107 28.2992 36.3049 27.3053 36.3049C26.3113 36.3049 25.5055 37.1107 25.5055 38.1047C25.5055 39.0987 26.3113 39.9044 27.3053 39.9044Z" fill="white"/>
<path d="M27.3053 44.9821C28.2992 44.9821 29.105 44.1763 29.105 43.1823C29.105 42.1883 28.2992 41.3826 27.3053 41.3826C26.3113 41.3826 25.5055 42.1883 25.5055 43.1823C25.5055 44.1763 26.3113 44.9821 27.3053 44.9821Z" fill="white"/>
<path d="M27.3053 48.9511C27.687 48.9511 27.9964 48.6417 27.9964 48.26C27.9964 47.8783 27.687 47.5688 27.3053 47.5688C26.9236 47.5688 26.6141 47.8783 26.6141 48.26C26.6141 48.6417 26.9236 48.9511 27.3053 48.9511Z" fill="white"/>
<path d="M27.3053 54.029C27.687 54.029 27.9964 53.7196 27.9964 53.3379C27.9964 52.9562 27.687 52.6467 27.3053 52.6467C26.9236 52.6467 26.6141 52.9562 26.6141 53.3379C26.6141 53.7196 26.9236 54.029 27.3053 54.029Z" fill="white"/>
<path d="M27.3053 59.3886C27.687 59.3886 27.9964 59.0792 27.9964 58.6975C27.9964 58.3158 27.687 58.0063 27.3053 58.0063C26.9236 58.0063 26.6141 58.3158 26.6141 58.6975C26.6141 59.0792 26.9236 59.3886 27.3053 59.3886Z" fill="white"/>
<path d="M27.3053 64.4665C27.687 64.4665 27.9964 64.1571 27.9964 63.7754C27.9964 63.3937 27.687 63.0842 27.3053 63.0842C26.9236 63.0842 26.6141 63.3937 26.6141 63.7754C26.6141 64.1571 26.9236 64.4665 27.3053 64.4665Z" fill="white"/>
<path d="M59.3397 36.3079V43.7834H63.8531V36.0033L63.0069 35.1852C62.3581 34.5646 62.2452 34.3107 62.4991 34.0004C62.753 33.6901 63.4582 34.2261 66.2509 37.0188L69.6925 40.4603L73.134 36.9906C75.7857 34.2825 76.6037 33.5773 76.8858 33.8594C77.1679 34.1415 77.0551 34.3671 76.4627 34.9877C75.701 35.7776 75.701 35.834 75.701 39.7833V43.789H79.9324V28.8381H75.56L72.6826 31.7155L69.7771 34.621L66.8715 31.7155L63.9942 28.8381H59.3397V36.3079Z" fill="#E30102"/>
<path d="M87.9156 29.7633C87.2668 31.202 82.1892 43.473 82.1892 43.6141C82.1892 43.6987 83.2047 43.7833 84.4459 43.7833C86.618 43.7833 86.7309 43.7551 86.9847 43.0499C87.4079 41.9779 87.3515 41.8087 86.5616 41.8087C86.1102 41.8087 85.8564 41.6394 85.8564 41.3855C85.8564 41.0188 86.477 40.9624 90.257 41.0188L94.6577 41.1034L95.1372 42.3728L95.6168 43.6423L97.9581 43.7269C99.9046 43.7833 100.299 43.7269 100.158 43.4166C100.074 43.1909 98.6916 39.8622 97.1119 36.054L94.2345 29.1145H91.2161C88.3388 29.1145 88.1977 29.1427 87.9156 29.7633ZM92.2881 34.8974C92.7676 36.1386 93.219 37.3798 93.3318 37.6337C93.5011 38.085 93.3036 38.1415 91.2161 38.1415C89.4954 38.1415 88.9312 38.0568 89.0158 37.7747C90.2852 34.2204 91.1033 32.2739 91.2725 32.4432C91.3854 32.556 91.8367 33.6562 92.2881 34.8974Z" fill="#E30102"/>
<path d="M98.2684 30.525V31.9354H103.628V43.7833H108.142V33.0638H106.985C106.054 33.0638 105.857 32.9792 105.941 32.556C106.026 32.1329 106.477 32.0765 109.778 31.9918L113.501 31.9072V29.1145H98.2684V30.525Z" fill="#E30102"/>
<path d="M116.04 36.4489V43.7833H120.554V39.2698H121.908C123.205 39.2698 123.318 39.3262 125.49 41.5266L127.747 43.7833H133.079L131.132 41.7805C129.214 39.834 129.129 39.8058 127.973 39.9186C127.155 40.0033 126.675 39.9186 126.449 39.6648C126.224 39.4109 126.224 39.2416 126.506 39.157C126.732 39.1006 127.465 38.9031 128.142 38.7056C128.9 38.479 129.602 38.0944 130.201 37.5773C130.963 36.8156 130.991 36.6464 130.991 34.1922C130.991 31.6251 130.963 31.5687 130.06 30.666C128.791 29.3966 127.155 29.1145 121.118 29.1145H116.04V36.4489ZM125.575 32.2457C126.562 32.5842 126.929 33.5998 126.619 35.0667C126.365 36.1668 125.603 36.4489 122.782 36.4489H120.554V33.0638H119.284C118.212 33.0638 118.015 32.9792 118.015 32.4996C118.015 31.9636 118.212 31.9354 121.372 31.9354C123.205 31.9354 125.084 32.0765 125.575 32.2457Z" fill="#E30102"/>
<path d="M135.505 36.4489V43.7833H140.018V33.0638H138.89C137.959 33.0638 137.761 32.9792 137.761 32.4996C137.761 32.0201 137.959 31.9354 138.89 31.9354H140.018V29.1145H135.505V36.4489Z" fill="#E30102"/>
<path d="M142.839 29.2838C142.839 29.5941 147.663 35.3205 147.917 35.3205C148.003 35.3069 148.086 35.2747 148.159 35.226C148.232 35.1773 148.294 35.1133 148.34 35.0384C148.565 34.6717 149.327 34.6717 149.327 35.0667C149.327 35.2077 147.917 37.0977 146.168 39.2134C144.419 41.3291 142.924 43.2473 142.754 43.4166C142.557 43.6987 143.008 43.7833 144.842 43.7833L147.211 43.7551L148.989 41.5266C149.976 40.2854 150.879 39.2698 151.02 39.2698C151.161 39.2698 152.092 40.2854 153.051 41.4984L154.828 43.7551H157.169C159.031 43.7833 159.454 43.6987 159.285 43.4166C158.749 42.5421 154.292 37.2952 154.095 37.2952C153.982 37.2952 153.756 37.5209 153.587 37.7747C153.361 38.1697 153.248 38.2261 152.966 37.944C152.543 37.5209 152.289 37.9158 156.464 32.8099C157.959 30.9763 159.2 29.3684 159.2 29.2838C159.2 29.1991 158.213 29.1145 156.972 29.1145H154.772L152.994 31.3712C152.007 32.6124 151.133 33.628 151.048 33.628C150.36 32.9105 149.71 32.1572 149.101 31.3712L147.324 29.1145H145.096C143.855 29.1145 142.839 29.1991 142.839 29.2838Z" fill="#E30102"/>
</g>
<defs>
<clipPath id="clip0">
<rect width="160" height="80" fill="white"/>
</clipPath>
</defs>
</svg>
