<svg width="40" height="40" viewBox="0 0 40 40" fill="none" xmlns="http://www.w3.org/2000/svg">
<path d="M28.2077 14.1602L27.149 13.3474L26.6559 14.5511C26.6464 14.5741 25.6993 16.8402 24.2449 16.4274C23.9229 16.336 23.7069 16.1597 23.5652 15.8724C23.204 15.1403 23.3577 13.8151 23.9566 12.4963C24.7848 10.6728 24.4221 8.76197 22.9079 6.97038C21.8427 5.71022 20.563 4.94733 20.509 4.91543L18.9583 4L18.9929 5.72923C18.9935 5.76013 19.0269 8.83233 16.623 9.9589C15.1502 10.6491 14.0958 11.7907 13.6541 13.1734C13.241 14.4669 13.4145 15.8812 14.1302 17.0535C14.4232 17.5334 14.512 17.9404 14.3942 18.2633C14.2259 18.7245 13.682 18.962 13.5193 19.0238C11.8008 19.6769 10.6758 17.4964 10.6303 17.4064L9.84638 15.8231L8.88571 17.3167C7.65201 19.2346 7 21.4418 7 23.6996C7 30.4327 12.7474 35.9186 19.8439 35.9981C19.8957 35.9994 19.9476 36 19.9998 36C27.168 36 33 30.482 33 23.6996C33 19.9856 31.2534 16.5086 28.2077 14.1602ZM15.9342 30.2768L15.9342 30.2652C15.9245 29.5186 16.0747 28.7178 16.382 27.8765L18.8255 28.5523L18.8501 27.3255C18.8878 25.4464 20.0076 24.2928 20.9029 23.6688C21.1325 24.6139 21.4904 25.4567 21.9846 26.2211C22.5482 27.0912 23.0819 27.8289 23.5742 28.4956C23.8904 28.9248 24.0698 29.5728 24.0662 30.2733V30.2778C24.0662 31.305 23.6432 32.271 22.8752 32.9978C22.1078 33.7238 21.0867 34.1237 19.9998 34.1237C17.759 34.1235 15.935 32.3986 15.9342 30.2768Z" fill="url(#paint0_linear_8063_32667)"/>
<path d="M23 13C24.2459 7.86962 20.7151 6.57436 20 6C20 11 15 11 15 13H23Z" fill="url(#paint1_linear_8063_32667)" fill-opacity="0.8"/>
<defs>
<linearGradient id="paint0_linear_8063_32667" x1="7" y1="4" x2="38.3224" y2="29.4494" gradientUnits="userSpaceOnUse">
<stop stop-color="#EE9AE5"/>
<stop offset="1" stop-color="#5961F9"/>
</linearGradient>
<linearGradient id="paint1_linear_8063_32667" x1="20.9812" y1="12.9921" x2="20.9812" y2="6" gradientUnits="userSpaceOnUse">
<stop stop-color="white" stop-opacity="0"/>
<stop offset="1" stop-color="white"/>
</linearGradient>
</defs>
</svg>
