<svg id="Слой_1" data-name="Слой 1" xmlns="http://www.w3.org/2000/svg" viewBox="0 0 260.72 53.11"><defs><style>.cls-1{fill:#ff4d00;}.cls-2{fill:#fff;}.cls-3{fill:#6a306b;}</style></defs><title>logoAllRightHorisontal</title><path class="cls-1" d="M79.61,25.79h5.11L95.85,55.2H90l-2.73-7.33H77L74.32,55.2H68.44Zm6.61,18L82.16,32.27,77.91,43.85Z" transform="translate(-14.47 -11.47)"/><path class="cls-1" d="M99.9,55.2V25.8h5.71V50.19h15v5Z" transform="translate(-14.47 -11.47)"/><path class="cls-1" d="M124.92,55.2V25.79h5.72V50.19h15v5Z" transform="translate(-14.47 -11.47)"/><path class="cls-2" d="M149.63,55.19V25.79l13,0a8.35,8.35,0,0,1,3.75.85,9.69,9.69,0,0,1,3,2.24,10.54,10.54,0,0,1,2,3.16,9.48,9.48,0,0,1,.7,3.54,9.78,9.78,0,0,1-1.43,5.2,8.2,8.2,0,0,1-3.87,3.38l6.71,11.06h-6.39l-6-9.85-5.68,0v9.86Zm5.71-14.87h7.16A3,3,0,0,0,164,40a3.76,3.76,0,0,0,1.18-1,5.06,5.06,0,0,0,.79-1.51,5.85,5.85,0,0,0,.29-1.86,5.32,5.32,0,0,0-.33-1.9,5,5,0,0,0-.89-1.51,4,4,0,0,0-1.28-1,3.34,3.34,0,0,0-1.47-.36h-6.92Z" transform="translate(-14.47 -11.47)"/><path class="cls-2" d="M178,55.17V25.77h5.71v29.4Z" transform="translate(-14.47 -11.47)"/><path class="cls-2" d="M211.09,51.87a11.24,11.24,0,0,1-8.2,3.52,13,13,0,0,1-5.45-1.16A13.77,13.77,0,0,1,193,51a15.22,15.22,0,0,1-3-4.78,15.91,15.91,0,0,1-1.1-5.95A14.93,14.93,0,0,1,193,29.94a14.47,14.47,0,0,1,4.51-3.16,13.56,13.56,0,0,1,5.67-1.18,13.79,13.79,0,0,1,7.11,1.74A11.26,11.26,0,0,1,214.75,32l-4.26,3.15a7.92,7.92,0,0,0-3.13-3.36A8.59,8.59,0,0,0,203,30.65a7.44,7.44,0,0,0-3.42.79,8,8,0,0,0-2.65,2.15,10.16,10.16,0,0,0-1.7,3.15,11.73,11.73,0,0,0-.6,3.77,11.11,11.11,0,0,0,.74,3.89,9.84,9.84,0,0,0,1.83,3.11,8.52,8.52,0,0,0,2.75,2.09,7.89,7.89,0,0,0,3.46.76q4.27,0,7.7-4V44.26h-5.92l-.05-4.15h10.65V55.22h-4.72Z" transform="translate(-14.47 -11.47)"/><path class="cls-2" d="M246.25,25.79v29.4h-5.68V42.64H227.23V55.2h-5.72V25.8h5.71V37.69h13.33V25.8Z" transform="translate(-14.47 -11.47)"/><path class="cls-2" d="M275.19,30.8h-9.4V55.19h-5.68l0-24.41h-9.4v-5l24.49,0Z" transform="translate(-14.47 -11.47)"/><path class="cls-2" d="M30,26.22c-9.8,9-13.85,20.6-9,25.8s16.63,2.07,26.43-7,13.87-20.63,9-25.84S39.84,17.13,30,26.22ZM45.57,43c-7.84,7.23-17.38,9.67-21.31,5.42s-.76-13.56,7.09-20.79S48.73,18,52.66,22.2,53.41,35.74,45.57,43Z" transform="translate(-14.47 -11.47)"/><path class="cls-3" d="M19.15,58.12A13,13,0,0,1,16,56.8L19.89,61a10.21,10.21,0,0,0,3.21,2.32,21.82,21.82,0,0,1-3.95-5.22Z" transform="translate(-14.47 -11.47)"/><path class="cls-1" d="M35.57,58.18C29.66,60.57,24,61,19.87,59.41a27.86,27.86,0,0,0,3.23,3.93c4.26,2,10.25,1.55,16.61-1Z" transform="translate(-14.47 -11.47)"/><path class="cls-1" d="M60.77,35.68A50.6,50.6,0,0,1,50.63,48.47a55.54,55.54,0,0,1-4.3,3.62V52l.23.33,3.51,4.15a55.21,55.21,0,0,0,4.52-3.76A50.68,50.68,0,0,0,64.64,40C63.37,38.73,61.6,36.65,60.77,35.68Z" transform="translate(-14.47 -11.47)"/><path class="cls-1" d="M64.43,24.88l3.82,4.78c.61-4.36-.22-8.19-2.71-10.85l-3.32-3.62.07.16C64.18,17.87,64.84,21.17,64.43,24.88Z" transform="translate(-14.47 -11.47)"/><path class="cls-3" d="M46.27,52a59.1,59.1,0,0,1-10.7,6.21l4.14,4.14A46.82,46.82,0,0,0,50,56.44l-3.51-4.15Z" transform="translate(-14.47 -11.47)"/><path class="cls-3" d="M60.4,35.26c.43.49,2.71,3.23,4.22,4.81a30.9,30.9,0,0,0,3.62-10.36l-3.82-4.78a71.3,71.3,0,0,1-4,10.33Z" transform="translate(-14.47 -11.47)"/><path class="cls-2" d="M36.41,52.38l-.85,5.81a46.78,46.78,0,0,0,10.77-6.14c-.45-1.66-1-3.62-1.34-5A39.14,39.14,0,0,1,36.41,52.38Z" transform="translate(-14.47 -11.47)"/><path class="cls-2" d="M55.13,35.53l5.65.11A30.26,30.26,0,0,0,64.4,25c-1.28.43-3.93,1.34-6.09,2.11a24.46,24.46,0,0,1-3.17,8.43Z" transform="translate(-14.47 -11.47)"/><path class="cls-2" d="M56.17,11.47c-.77,1-2.9,3.73-4.13,5.42a7.84,7.84,0,0,1,4.44,2.31l.07.08,5.32-4.48-.19-.22a10.85,10.85,0,0,0-5.51-3.13Z" transform="translate(-14.47 -11.47)"/><path class="cls-2" d="M40.8,18.91l.69-5.42a46.39,46.39,0,0,0-9,5c.29.9.85,2.8,1.34,4.52a38.43,38.43,0,0,1,7-4.13Z" transform="translate(-14.47 -11.47)"/><path class="cls-2" d="M23.61,33.61l-5.22-.41a38,38,0,0,0-3.91,8l5.61-.8a30.72,30.72,0,0,1,3.53-6.8Z" transform="translate(-14.47 -11.47)"/><path class="cls-2" d="M21,52a7,7,0,0,1-1-1.42c-.81.72-3.25,2.89-5.18,4.66A9.93,9.93,0,0,0,16,56.81a10.37,10.37,0,0,0,3.87,2.6L24.18,54A7.41,7.41,0,0,1,21,52Z" transform="translate(-14.47 -11.47)"/><path class="cls-1" d="M28.4,37.07,30,35.57,40.87,38.2,39,39.94l-2.71-.67-3.29,3,.9,2.28L32,46.34ZM35,38.77l-4.15-1.13,1.5,3.62Z" transform="translate(-14.47 -11.47)"/><path class="cls-1" d="M42.16,37l-7.23-5.95,4.17-3.86A5.26,5.26,0,0,1,42,25.85a4.15,4.15,0,0,1,1.4.06,2.59,2.59,0,0,1,1.1.51,2.22,2.22,0,0,1,.82,1.47,2.89,2.89,0,0,1-.41,1.81l4.88.24-2.07,1.93-4.37-.23-1.81,1.67,2.43,2Zm-1.81-4.7,2.3-2.12a1.62,1.62,0,0,0,.38-.51,1.32,1.32,0,0,0,.13-.55,1.25,1.25,0,0,0-.12-.54,1.31,1.31,0,0,0-.37-.46,1.42,1.42,0,0,0-.58-.29,2,2,0,0,0-.66,0,2.16,2.16,0,0,0-.66.18,2.06,2.06,0,0,0-.56.36l-2.23,2Z" transform="translate(-14.47 -11.47)"/></svg>