<svg width="181" height="38" viewBox="0 0 181 38" fill="none" xmlns="http://www.w3.org/2000/svg">
<g clip-path="url(#clip0)">
<path d="M45.2219 10.246H48.7694L56.4962 31.2887H52.4349L50.5397 26.0441H43.4099L41.5494 31.2887H37.4673L45.2219 10.246ZM49.8107 23.1249L46.9921 14.8824L44.0417 23.1678L49.8107 23.1249Z" fill="#FF4D00"/>
<path d="M59.3086 31.2886V10.2531H63.2727V27.704H73.6861V31.2815L59.3086 31.2886Z" fill="#FF4D00"/>
<path d="M76.6777 31.2887V10.246H80.6487V27.7041H91.0622V31.2815L76.6777 31.2887Z" fill="#FF4D00"/>
<path d="M93.832 31.2815V10.2459H102.857C103.759 10.2371 104.65 10.4453 105.46 10.854C106.249 11.2437 106.957 11.7881 107.543 12.4568C108.133 13.1191 108.603 13.8848 108.932 14.7177C109.249 15.5222 109.414 16.382 109.418 17.2506C109.432 18.5622 109.088 19.8514 108.425 20.9712C107.804 22.0531 106.862 22.9009 105.738 23.3895L110.396 31.3029H105.96L101.795 24.2553H97.8516V31.3101L93.832 31.2815ZM97.7961 20.642H102.767C103.127 20.66 103.486 20.5811 103.808 20.4131C104.126 20.2357 104.405 19.992 104.627 19.6976C104.868 19.372 105.054 19.0067 105.176 18.6172C105.312 18.1877 105.38 17.7383 105.377 17.2864C105.382 16.8226 105.304 16.3619 105.148 15.9269C105.005 15.5321 104.796 15.1663 104.53 14.8465C104.285 14.5479 103.982 14.3044 103.642 14.131C103.325 13.9658 102.976 13.8777 102.621 13.8734H97.8169L97.7961 20.642Z" fill="#370038"/>
<path d="M113.528 31.2672V10.2316H117.492V31.2672H113.528Z" fill="#370038"/>
<path d="M136.5 28.906C135.768 29.7041 134.886 30.3393 133.907 30.7724C132.928 31.2056 131.873 31.4275 130.807 31.4245C129.503 31.4329 128.212 31.1498 127.024 30.5945C125.856 30.0452 124.808 29.2593 123.941 28.2835C123.046 27.2872 122.34 26.1273 121.859 24.8634C121.342 23.5078 121.083 22.0626 121.095 20.6062C121.086 17.8568 122.105 15.2095 123.941 13.2151C124.835 12.2619 125.898 11.4943 127.072 10.9542C128.31 10.3839 129.653 10.0959 131.009 10.1099C132.733 10.059 134.438 10.4892 135.945 11.3548C137.27 12.1313 138.346 13.2902 139.041 14.689L136.084 16.9429C135.606 15.9379 134.849 15.1014 133.911 14.5388C132.99 13.9941 131.945 13.7125 130.884 13.7231C130.06 13.7137 129.246 13.9075 128.51 14.2884C127.796 14.6588 127.169 15.1835 126.67 15.8267C126.15 16.5001 125.75 17.2632 125.49 18.0805C125.209 18.9502 125.068 19.8614 125.073 20.7779C125.081 21.7299 125.255 22.6726 125.587 23.5612C125.874 24.3773 126.304 25.1317 126.857 25.7864C127.388 26.414 128.038 26.9229 128.766 27.2818C129.517 27.6483 130.338 27.8343 131.168 27.8256C133.145 27.8256 134.927 26.8716 136.514 24.9636V23.461H132.404L132.369 20.4917H139.763V31.3029H136.486L136.5 28.906Z" fill="#370038"/>
<path d="M160.909 10.246V31.2815H156.965V22.3021H147.704V31.2887H143.733V10.2531H147.697V18.7604H156.952V10.2531L160.909 10.246Z" fill="#370038"/>
<path d="M181 13.8306H174.474V31.2815H170.531V13.8162H164.005V10.2388H181.007L181 13.8306Z" fill="#370038"/>
<path d="M10.7819 10.5537C3.97839 16.9931 1.16675 25.2929 4.53378 29.0135C7.9008 32.734 16.0788 30.4945 22.8823 24.005C29.6858 17.5154 32.5113 9.24432 29.1304 5.51658C25.7495 1.78885 17.6131 4.04981 10.7819 10.5537ZM21.591 22.5597C16.1483 27.7327 9.5253 29.4785 6.79697 26.4377C4.06864 23.3968 6.26935 16.7356 11.7191 11.5625C17.1688 6.38948 23.7848 4.6723 26.5131 7.67738C29.2415 10.6825 27.0338 17.3652 21.591 22.5597Z" fill="#370038"/>
<path d="M3.24884 33.3779C2.48277 33.1636 1.74748 32.846 1.06201 32.4335L3.76257 35.4386C4.39315 36.1365 5.15022 36.7004 5.99105 37.0985C4.89996 36.0027 3.97548 34.7436 3.24884 33.3636V33.3779Z" fill="#6B426C"/>
<path d="M14.648 33.4208C10.5451 35.1308 6.61571 35.4385 3.74854 34.3008C4.41122 35.3067 5.16181 36.2479 5.9909 37.1127C8.94833 38.5437 13.1068 38.2218 17.5221 36.3972L14.648 33.4208Z" fill="#FF4D00"/>
<path d="M32.1429 17.3221C30.2923 20.7451 27.9149 23.8357 25.1034 26.4733C24.1513 27.3881 23.155 28.2526 22.1182 29.0634V28.999L22.2778 29.2352L24.7146 32.2045C25.8062 31.3658 26.8536 30.4678 27.8525 29.5142C30.6369 26.886 32.9928 23.813 34.8295 20.4131C33.9479 19.5044 32.7191 18.0162 32.1429 17.3221Z" fill="#FF4D00"/>
<path d="M34.6842 9.59478L37.3361 13.0148C37.7596 9.89529 37.1834 7.15494 35.4547 5.25172L33.1499 2.66162L33.1985 2.7761C34.5106 4.57915 34.9688 6.94029 34.6842 9.59478Z" fill="#FF4D00"/>
<path d="M22.0762 28.9991C19.7578 30.744 17.268 32.2332 14.6479 33.4424L17.5221 36.4045C20.0677 35.313 22.4681 33.892 24.6657 32.1759L22.229 29.2066L22.0762 28.9991Z" fill="#6B426C"/>
<path d="M31.8862 17.0217C32.1848 17.3723 33.7676 19.3327 34.8159 20.4632C36.076 18.1667 36.9271 15.6563 37.329 13.0507L34.677 9.63062C33.9388 12.1648 33.0103 14.6359 31.9001 17.0217H31.8862Z" fill="#6B426C"/>
<path d="M15.2317 29.2709L14.6416 33.4279C17.312 32.3119 19.8263 30.8345 22.1185 29.0348C21.8061 27.847 21.4242 26.4447 21.1882 25.4573C19.3709 26.9883 17.3687 28.2702 15.2317 29.2709Z" fill="#370038"/>
<path d="M28.2275 17.2148L32.1499 17.2935C33.4416 14.9399 34.294 12.3578 34.6631 9.68066C33.7744 9.98833 31.9347 10.6394 30.4352 11.1904C30.0702 13.324 29.324 15.3692 28.2345 17.222L28.2275 17.2148Z" fill="#370038"/>
<path d="M28.9497 -9.40477e-05C28.4151 0.715402 26.9364 2.66871 26.0825 3.87789C27.2576 4.06695 28.3403 4.64747 29.1649 5.53069L29.2135 5.58793L32.9068 2.38251L32.7749 2.2251C31.7445 1.10292 30.4126 0.323155 28.9497 -0.0144043V-9.40477e-05Z" fill="#370038"/>
<path d="M18.2793 5.32342L18.7583 1.44543C16.5533 2.3953 14.4577 3.59519 12.5103 5.02292C12.7116 5.66686 13.1004 7.0263 13.4405 8.25696C14.9545 7.09769 16.5835 6.10715 18.3001 5.30196L18.2793 5.32342Z" fill="#370038"/>
<path d="M6.34566 15.8411L2.72177 15.5477C1.60243 17.3395 0.691361 19.2607 0.00732422 21.2717L3.90196 20.6993C4.51864 18.9785 5.34192 17.344 6.3526 15.8339L6.34566 15.8411Z" fill="#370038"/>
<path d="M4.53303 28.9992C4.26159 28.6915 4.02838 28.3502 3.83879 27.9832C3.27647 28.4983 1.58254 30.0509 0.242676 31.3174C0.479052 31.7188 0.753458 32.0951 1.06187 32.4407C1.80881 33.2629 2.72759 33.8991 3.74854 34.301L6.74068 30.4301C5.89775 30.1565 5.13743 29.6637 4.53303 28.9992Z" fill="#370038"/>
<path d="M9.67041 18.3167L10.7812 17.2434L18.3275 19.1252L17.0293 20.3701L15.1479 19.8907L12.8639 22.0372L13.4887 23.6686L12.1696 24.9493L9.67041 18.3167ZM14.2523 19.533L11.3713 18.7245L12.4126 21.3146L14.2523 19.533Z" fill="#FF4D00"/>
<path d="M19.2229 18.2665L14.2036 14.0093L17.0986 11.2475C17.657 10.7205 18.3605 10.3855 19.1118 10.2887C19.4358 10.2462 19.7645 10.2607 20.0838 10.3317C20.3627 10.3893 20.6245 10.5144 20.8474 10.6966C21.1638 10.9566 21.3682 11.3343 21.4167 11.7483C21.4625 12.2005 21.3625 12.6557 21.132 13.0434L24.5199 13.2151L23.0828 14.596L20.049 14.4315L18.7925 15.6263L20.4795 17.0573L19.2229 18.2665ZM17.9663 14.9037L19.5631 13.3868C19.6736 13.2844 19.7632 13.1603 19.8269 13.0219C19.8842 12.899 19.915 12.7648 19.9171 12.6284C19.9177 12.4948 19.8893 12.3628 19.8338 12.242C19.7736 12.1136 19.6858 12.001 19.577 11.9129C19.4601 11.8127 19.3223 11.7416 19.1743 11.7054C19.0226 11.6793 18.8678 11.6793 18.7161 11.7054C18.5577 11.723 18.4031 11.7665 18.2579 11.8342C18.1156 11.8978 17.9843 11.9848 17.8692 12.0918L16.321 13.5228L17.9663 14.9037Z" fill="#FF4D00"/>
</g>
<defs>
<clipPath id="clip0">
<rect width="181" height="38" fill="white"/>
</clipPath>
</defs>
</svg>
