<svg width="40" height="40" viewBox="0 0 40 40" fill="none" xmlns="http://www.w3.org/2000/svg">
<path d="M17.928 4.76358C18.8018 3.74563 20.3982 3.74564 21.272 4.76358L22.827 6.5752C23.3635 7.20031 24.2149 7.47201 25.023 7.27607L27.3652 6.7082C28.6812 6.38912 29.9728 7.31081 30.0705 8.6388L30.2444 11.0022C30.3044 11.8177 30.8306 12.529 31.6017 12.8371L33.8363 13.7299C35.0919 14.2315 35.5853 15.7229 34.8696 16.8537L33.596 18.8661C33.1566 19.5605 33.1566 20.4397 33.596 21.1341L34.8696 23.1466C35.5853 24.2774 35.0919 25.7687 33.8363 26.2704L31.6017 27.1632C30.8306 27.4712 30.3044 28.1825 30.2444 28.998L30.0705 31.3614C29.9728 32.6894 28.6812 33.6111 27.3652 33.292L25.023 32.7242C24.2149 32.5282 23.3635 32.7999 22.827 33.425L21.272 35.2367C20.3982 36.2546 18.8018 36.2546 17.928 35.2367L16.373 33.425C15.8365 32.7999 14.9851 32.5282 14.1769 32.7242L11.8348 33.292C10.5188 33.6111 9.22723 32.6894 9.1295 31.3614L8.95559 28.998C8.89558 28.1825 8.36942 27.4712 7.59834 27.1632L5.3637 26.2704C4.10805 25.7687 3.61472 24.2774 4.33036 23.1466L5.60396 21.1341C6.04342 20.4397 6.04342 19.5605 5.60396 18.8661L4.33036 16.8537C3.61472 15.7229 4.10805 14.2315 5.3637 13.7299L7.59834 12.8371C8.36942 12.529 8.89558 11.8177 8.95559 11.0022L9.1295 8.6388C9.22723 7.31081 10.5188 6.38912 11.8348 6.7082L14.177 7.27607C14.9851 7.47201 15.8365 7.20031 16.373 6.5752L17.928 4.76358Z" fill="url(#paint0_linear_8063_32657)"/>
<path d="M18.4049 5.66483C18.8363 4.77855 20.1635 4.77855 20.5949 5.66483L21.0359 6.57112C22.0177 8.58845 24.4663 9.40396 26.4616 8.37812L27.2473 7.97415C28.1239 7.52347 29.1861 8.31929 28.9999 9.2872L28.478 12.0001C28.478 12.0001 21.9195 12.0001 21.7924 12.0001H17.2074C17.0993 12.0001 10.7612 11.9966 10.7649 12.008L10.2051 9.09006C10.0188 8.12215 11.0811 7.32633 11.9577 7.77701L12.656 8.13606C14.6513 9.1619 17.0999 8.34639 18.0817 6.32906L18.4049 5.66483Z" fill="url(#paint1_linear_8063_32657)" fill-opacity="0.8"/>
<path fill-rule="evenodd" clip-rule="evenodd" d="M10.9846 23.4826L12.7884 26.9895C12.8756 27.159 12.9144 27.3521 12.8518 27.5473C12.7892 27.7424 12.6454 27.877 12.4758 27.9642C12.3063 28.0514 12.1132 28.0901 11.9181 28.0275C11.7229 27.965 11.5884 27.8211 11.5011 27.6516L8.74293 22.2892C8.65572 22.1197 8.61697 21.9266 8.67956 21.7314C8.74215 21.5362 8.88596 21.4017 9.05551 21.3145C9.17191 21.2546 9.30049 21.2256 9.43522 21.2393C9.55562 21.2482 9.67913 21.2844 9.80082 21.335L9.80664 21.3374L14.7445 23.6368L12.9408 20.13C12.8536 19.9605 12.8148 19.7674 12.8774 19.5722C12.94 19.377 13.0838 19.2425 13.2533 19.1553C13.4229 19.0681 13.616 19.0293 13.8111 19.0919C14.0063 19.1545 14.1408 19.2983 14.228 19.4679L16.9863 24.8303C17.0735 24.9998 17.1122 25.1929 17.0496 25.3881C16.987 25.5832 16.8432 25.7178 16.6737 25.805C16.555 25.866 16.4259 25.894 16.2917 25.8853C16.1642 25.8769 16.0376 25.8362 15.9163 25.7792L10.9846 23.4826ZM15.512 18.2171C15.5746 18.0219 15.7184 17.8874 15.8879 17.8002L19.1288 16.1332C19.2984 16.046 19.4914 16.0072 19.6866 16.0698C19.8818 16.1324 20.0163 16.2762 20.1035 16.4458C20.1907 16.6153 20.2295 16.8084 20.1669 17.0035C20.1043 17.1987 19.9605 17.3332 19.791 17.4205L17.1937 18.7564L17.8967 20.1232L19.4287 19.3352C19.5983 19.248 19.7914 19.2093 19.9865 19.2718C20.1817 19.3344 20.3162 19.4782 20.4034 19.6478C20.4907 19.8173 20.5294 20.0104 20.4668 20.2056C20.4042 20.4008 20.2604 20.5353 20.0909 20.6225L18.5589 21.4105L19.2898 22.8315L21.887 21.4956C22.0566 21.4084 22.2497 21.3696 22.4448 21.4322C22.64 21.4948 22.7745 21.6386 22.8617 21.8081C22.9489 21.9777 22.9877 22.1708 22.9251 22.3659C22.8625 22.5611 22.7187 22.6956 22.5492 22.7828L19.3083 24.4498C19.1387 24.5371 18.9456 24.5758 18.7505 24.5132C18.5553 24.4506 18.4208 24.3068 18.3336 24.1373L15.5753 18.7749C15.4881 18.6053 15.4494 18.4123 15.512 18.2171ZM27.7771 11.7512L27.8025 11.7505C28.0711 11.7435 28.3418 11.8315 28.4811 12.1024C28.5225 12.1829 28.5481 12.2695 28.562 12.3579L29.6142 18.5145L29.6152 18.5241C29.6317 18.6816 29.6238 18.84 29.5694 18.9833C29.5046 19.1538 29.3752 19.2718 29.2254 19.3488L29.2074 19.3581C29.0582 19.4349 28.8932 19.4649 28.7236 19.4286C28.559 19.3934 28.418 19.3019 28.2991 19.1857L28.2945 19.1812L25.3545 16.1826L26.0839 20.3267L26.0848 20.3344C26.1047 20.4962 26.1002 20.6605 26.0442 20.8079L26.0436 20.8096C25.9775 20.9804 25.8376 21.0914 25.6956 21.1644C25.5571 21.2357 25.3974 21.2698 25.2317 21.2272L25.2233 21.225L25.215 21.2224C25.0688 21.1755 24.9405 21.0778 24.8291 20.9654L20.4296 16.5259C20.3694 16.4601 20.313 16.388 20.274 16.3124C20.2137 16.195 20.188 16.0636 20.2113 15.9271L20.2131 15.9161L20.2158 15.9052C20.2458 15.7846 20.3089 15.6715 20.3844 15.5683L20.3905 15.56L20.3971 15.5522C20.4653 15.4714 20.5476 15.392 20.6457 15.3415C20.7831 15.2709 20.9342 15.2541 21.0843 15.2949C21.2258 15.3334 21.348 15.4179 21.4522 15.5178L21.4578 15.5232L24.3935 18.4912L23.6476 14.4485C23.6222 14.2842 23.6299 14.1162 23.697 13.9618L23.6995 13.9561L23.7022 13.9504C23.7815 13.7874 23.9156 13.671 24.0718 13.5907L24.0793 13.5868C24.2318 13.5138 24.3985 13.4814 24.5696 13.5142C24.7393 13.5466 24.8831 13.6374 25.0018 13.7575L25.0043 13.76L27.8531 16.7117L27.1457 12.5953C27.1224 12.4537 27.1241 12.3046 27.1782 12.1655C27.2351 12.0191 27.3402 11.9095 27.4752 11.8401C27.5523 11.8005 27.6561 11.7753 27.7522 11.7562L27.7771 11.7512Z" fill="white"/>
<defs>
<linearGradient id="paint0_linear_8063_32657" x1="4" y1="4.00012" x2="35.9897" y2="35.1901" gradientUnits="userSpaceOnUse">
<stop stop-color="#EE9AE5"/>
<stop offset="1" stop-color="#5961F9"/>
</linearGradient>
<linearGradient id="paint1_linear_8063_32657" x1="23.8179" y1="12.0001" x2="23.8179" y2="5.00012" gradientUnits="userSpaceOnUse">
<stop stop-color="white" stop-opacity="0"/>
<stop offset="1" stop-color="white"/>
</linearGradient>
</defs>
</svg>
