<svg width="40" height="40" viewBox="0 0 40 40" fill="none" xmlns="http://www.w3.org/2000/svg">
<path d="M18.1904 6.17116C18.9334 4.60961 21.0666 4.60961 21.8096 6.17116L24.8966 12.6588C25.1908 13.2772 25.7561 13.7061 26.4103 13.8072L33.273 14.868C34.9249 15.1234 35.5841 17.2419 34.3914 18.4624L29.4365 23.5328C28.9642 24.0161 28.7483 24.7101 28.8583 25.3909L30.0128 32.5342C30.2907 34.2536 28.5649 35.5629 27.0848 34.7556L20.9355 31.4017C20.3494 31.082 19.6506 31.082 19.0645 31.4017L12.9152 34.7556C11.4351 35.5629 9.70929 34.2536 9.98718 32.5342L11.1417 25.3909C11.2517 24.7101 11.0358 24.0161 10.5635 23.5328L5.60855 18.4624C4.41592 17.2419 5.07513 15.1234 6.72697 14.868L13.5897 13.8072C14.2439 13.7061 14.8092 13.2772 15.1034 12.6588L18.1904 6.17116Z" fill="url(#paint0_linear_8063_32644)"/>
<path d="M19.0615 7.66471C19.4312 6.77843 20.5688 6.77843 20.9385 7.66471L22.9035 12.3753C23.2199 13.1338 22.7196 14 21.965 14H18.035C17.2804 14 16.7801 13.1338 17.0965 12.3753L19.0615 7.66471Z" fill="url(#paint1_linear_8063_32644)" fill-opacity="0.8"/>
<defs>
<linearGradient id="paint0_linear_8063_32644" x1="5" y1="5" x2="35" y2="35" gradientUnits="userSpaceOnUse">
<stop stop-color="#EE9AE5"/>
<stop offset="1" stop-color="#5961F9"/>
</linearGradient>
<linearGradient id="paint1_linear_8063_32644" x1="20" y1="13.9712" x2="20" y2="7.07796" gradientUnits="userSpaceOnUse">
<stop stop-color="white" stop-opacity="0"/>
<stop offset="1" stop-color="white"/>
</linearGradient>
</defs>
</svg>
