<svg width="160" height="67" viewBox="0 0 160 67" fill="none" xmlns="http://www.w3.org/2000/svg">
<path fill-rule="evenodd" clip-rule="evenodd" d="M0.227722 41.7217V38.445H8.8754V42.2583C8.8754 45.7485 10.2239 47.4945 12.9191 47.4945H12.9533C15.6237 47.4945 16.9609 45.7542 16.9609 42.2753C16.9609 40.2874 16.3854 38.4242 15.2306 36.6839C14.0777 34.9435 12.6988 33.3524 11.0938 31.9106L6.75954 27.4378C4.96846 25.8732 3.46989 23.9344 2.26381 21.6234C1.05583 19.3105 0.451844 16.75 0.451844 13.942C0.451844 9.62038 1.59144 6.30594 3.87065 3.99491C6.14795 1.68387 9.24387 0.529297 13.1546 0.529297C17.0653 0.529297 20.0682 1.68387 22.165 3.99302C24.2619 6.30216 25.3103 9.6166 25.3103 13.9363V15.6502H17.335V13.4167C17.335 9.91516 15.9257 8.16346 13.1052 8.16346C10.2847 8.16346 8.8754 9.91705 8.8754 13.4205C8.8754 14.8868 9.18309 16.2852 9.79657 17.6155C10.4101 18.9458 11.2059 20.1438 12.184 21.2133C13.1622 22.281 14.241 23.3373 15.4186 24.3804C16.5962 25.4254 17.7605 26.5195 18.9077 27.6627C20.0549 28.8059 21.1166 30.0285 22.091 31.3343C23.0634 32.6381 23.8555 34.1801 24.467 35.9564C25.0786 37.7345 25.3844 39.6657 25.3844 41.7538C25.3844 46.0641 24.3113 49.3709 22.165 51.6744C20.0188 53.9779 16.9894 55.1306 13.0767 55.1306C9.16409 55.1306 6.04349 53.976 3.7168 51.6669C1.39012 49.3577 0.227722 46.0414 0.227722 41.7217Z" fill="white"/>
<path fill-rule="evenodd" clip-rule="evenodd" d="M38.5992 26.861H42.6049C43.9762 26.861 45.0057 26.4756 45.6932 25.7065C46.3789 24.9374 46.7227 23.6335 46.7227 21.7949V13.7885C46.7227 11.9499 46.3789 10.6536 45.6932 9.89582C45.0057 9.13807 43.9762 8.76014 42.6049 8.76014H38.5992V26.861ZM30.1757 54.533V1.12598H42.5859C50.9582 1.12598 55.1462 5.5383 55.1462 14.361V21.2979C55.1462 30.0961 50.962 34.4971 42.5954 34.4971H38.5992V54.533H30.1757Z" fill="white"/>
<path fill-rule="evenodd" clip-rule="evenodd" d="M67.4992 25.1849H70.7926C72.4906 25.1849 73.7575 24.7502 74.5932 23.881C75.4289 23.0118 75.8468 21.5605 75.8468 19.5235V14.2722C75.8714 10.5987 74.4488 8.76008 71.5789 8.76008H67.4992V25.1849ZM59.0756 54.5329V1.12402H71.786C76.1203 1.12402 79.2864 2.1312 81.2788 4.14368C83.2731 6.15615 84.2703 9.2495 84.2703 13.4237V17.6338C84.2703 23.1252 82.4317 26.74 78.7546 28.4785C82.4811 30.045 84.3444 33.8338 84.3444 39.8466V48.0647V48.3992C84.3444 51.1259 84.6445 53.1705 85.2428 54.5329H76.7034C76.2076 53.0212 75.9474 50.8406 75.9227 47.9891V39.6236C75.9227 37.1954 75.4916 35.4532 74.6312 34.4007C73.7689 33.3462 72.3653 32.8209 70.4184 32.8209H67.4992V54.5329H59.0756Z" fill="white"/>
<path fill-rule="evenodd" clip-rule="evenodd" d="M89.886 54.5337H98.3096V1.12476H89.886V54.5337Z" fill="white"/>
<path fill-rule="evenodd" clip-rule="evenodd" d="M112.871 46.8988H117.701C119.173 46.8988 120.271 46.5077 120.995 45.7254C121.718 44.9431 122.081 43.5844 122.081 41.6475V36.9914C122.081 34.5576 121.663 32.8701 120.826 31.9272C119.99 30.9824 118.6 30.5118 116.653 30.5118H112.871V46.8988ZM112.871 22.8758H116.18C117.884 22.8758 119.156 22.4412 119.996 21.5719C120.837 20.7027 121.257 19.2628 121.257 17.2522V14.2722C121.281 10.5988 119.853 8.76014 116.97 8.76014H112.871V22.8758ZM104.448 54.5349V1.12598H117.177C121.519 1.12598 124.689 2.13127 126.685 4.14185C128.681 6.15243 129.68 9.24389 129.68 13.4162V15.3153C129.68 20.8028 127.859 24.3913 124.214 26.0787C128.408 27.7171 130.503 31.5304 130.503 37.513V41.8705C130.503 45.9918 129.418 49.1343 127.247 51.2942C125.074 53.454 121.893 54.5349 117.701 54.5349H104.448Z" fill="white"/>
<path fill-rule="evenodd" clip-rule="evenodd" d="M135.557 54.5339V1.125H158.543V8.76105H143.981V23.6212H155.548V31.2554H143.981V46.8979H158.543V54.5339H135.557Z" fill="white"/>
<path fill-rule="evenodd" clip-rule="evenodd" d="M0 65.4086H158.661V57.9937H0V65.4086Z" fill="white"/>
</svg>
