<svg width="160" height="80" viewBox="0 0 160 80" fill="none" xmlns="http://www.w3.org/2000/svg">
<path d="M1 40.9242C1.22394 39.8913 1.33592 38.8313 1.64384 37.8255C2.81954 34.0473 5.25493 31.4107 9.20194 30.2418C13.6808 28.9099 18.5236 30.3506 21.0989 33.8026C22.3306 35.4879 22.8905 37.4178 23.0864 39.4292C23.1984 40.6524 23.1144 41.8756 23.1424 43.126C23.1704 43.8599 22.8065 44.023 22.1347 44.023C17.8518 43.9958 13.5408 44.023 9.25792 44.023C7.94225 44.023 7.80229 44.2404 8.36215 45.4092C9.20194 47.1488 10.7975 47.8556 12.6171 48.1546C15.1644 48.5895 17.6278 48.1818 20.0632 47.475C20.819 47.2576 21.071 47.4207 21.1549 48.1274C21.2949 49.269 21.4908 50.4107 21.7148 51.5523C21.8548 52.259 21.6308 52.6939 20.903 52.8298C19.0275 53.1832 17.1799 53.6996 15.3044 53.8355C13.5688 53.9715 11.7493 53.8084 10.0137 53.5365C5.56285 52.8842 1.92377 49.1603 1.36391 44.8112C1.27993 44.2404 1.16796 43.6424 1.05599 43.0716C1 42.3649 1 41.6581 1 40.9242ZM12.3651 39.538C13.5968 39.538 14.8005 39.538 16.0322 39.538C16.3681 39.538 16.6481 39.5108 16.6201 39.0487C16.5921 37.5265 15.4164 35.8956 13.9327 35.4607C11.2174 34.6181 8.75405 36.0044 8.11021 38.6953C7.97025 39.3205 8.11021 39.5652 8.78204 39.538C9.98574 39.5108 11.1894 39.538 12.3651 39.538Z" fill="#4795C8"/>
<path d="M109.333 21C109.333 31.6824 109.333 42.3648 109.333 53.0472C109.333 53.8898 109.193 53.9986 108.353 53.8355C104.714 53.1831 102.866 51.1717 102.614 47.5565C102.53 46.4421 102.474 45.3004 102.474 44.1588C102.474 36.4392 102.474 28.7196 102.474 21C104.77 21 107.037 21 109.333 21Z" fill="white"/>
<path d="M83.1033 52.9385C83.1033 53.7267 83.1033 54.4334 83.1033 55.1402C83.1033 56.1731 83.1033 57.206 83.1033 58.2389C83.1033 58.701 82.9634 58.9728 82.4315 58.9728C80.584 58.9728 78.7084 59 76.8609 58.9456C76.637 58.9456 76.385 58.5922 76.2451 58.3476C76.1611 58.1845 76.2171 57.9399 76.2171 57.7496C76.2171 49.2689 76.2171 40.8154 76.2171 32.3347C76.2171 31.1659 76.2171 31.0572 77.3648 30.8941C80.2201 30.4864 83.0753 29.9427 85.9306 29.834C89.4577 29.7253 92.7049 30.7038 95.2243 33.3133C97.0159 35.1344 97.8276 37.3905 98.1636 39.8641C98.5275 42.6638 98.2195 45.4091 97.0998 48.0457C95.6162 51.525 92.285 53.7267 88.422 53.7811C86.8264 53.8083 85.3148 53.6452 83.8032 53.1015C83.6352 53.0472 83.4393 53.02 83.1033 52.9385ZM83.1033 41.5221C83.1033 42.7725 83.1033 44.05 83.1033 45.3004C83.1033 47.638 83.2433 47.8011 85.6507 48.1273C88.338 48.4807 90.1576 47.5565 90.8574 45.3276C91.5852 43.0171 91.5852 40.6523 90.6055 38.3691C89.8497 36.6294 88.45 35.7053 86.5465 35.5694C85.6787 35.515 84.8109 35.6237 83.9151 35.6237C83.2153 35.6237 83.0194 35.9499 83.0474 36.6023C83.1033 38.2332 83.1033 39.8641 83.1033 41.5221Z" fill="white"/>
<path d="M127.304 38.1517C126.968 36.4392 125.821 35.4879 123.889 35.3791C121.622 35.2432 119.382 35.4335 117.199 36.0587C117.003 36.113 116.807 36.1402 116.527 36.1946C116.247 34.5365 115.967 32.96 115.743 31.3562C115.715 31.1932 115.939 30.8398 116.107 30.7854C120.194 29.8069 124.337 29.2089 128.48 30.4321C131.867 31.4378 133.491 33.857 133.799 37.1188C133.995 39.1574 133.939 41.2232 133.967 43.289C133.995 46.0887 133.939 48.8884 133.995 51.7153C133.995 52.5308 133.799 52.9385 132.903 53.0472C130.188 53.3462 127.5 53.8627 124.785 53.9986C122.377 54.1073 119.97 53.8355 117.731 52.857C114.344 51.362 113.224 48.3448 113.476 45.1102C113.812 40.9514 117.003 38.9128 120.922 38.3148C121.958 38.1517 123.021 38.0429 124.085 38.0158C125.149 37.9886 126.213 38.0973 127.304 38.1517ZM127.416 45.6266C127.416 44.9199 127.444 44.2404 127.388 43.5336C127.36 43.3162 127.08 42.9628 126.94 42.9628C125.485 43.0172 124.029 42.9628 122.629 43.2618C121.23 43.5608 120.698 44.485 120.782 45.9256C120.838 47.1488 121.51 47.9914 122.881 48.1817C124.141 48.372 125.401 48.3448 126.688 48.3992C127.192 48.4263 127.444 48.1273 127.444 47.6109C127.416 46.9857 127.416 46.3062 127.416 45.6266Z" fill="white"/>
<path d="M72.2981 42.1201C72.3261 45.5722 71.3183 48.6709 68.687 51.0901C66.7835 52.8569 64.432 53.7267 61.8007 53.8898C59.1974 54.0529 56.734 53.5908 54.4945 52.2589C51.8352 50.6552 50.3236 48.236 49.6238 45.3819C48.812 42.0929 49.0079 38.8311 50.6035 35.7596C54.4106 28.4477 65.2718 27.6594 70.1426 34.3461C71.5982 36.3576 72.2141 38.5321 72.2981 42.1201ZM65.4118 41.9842C65.4118 41.4134 65.4398 40.9513 65.4118 40.4892C65.2438 38.8583 64.8519 37.3089 63.4523 36.276C61.4928 34.8354 57.6857 35.08 56.566 38.4778C55.7542 40.9241 55.7822 43.3976 56.818 45.7896C57.5178 47.4205 58.8335 48.2632 60.653 48.3175C62.4725 48.3447 63.8722 47.5836 64.656 45.9255C65.2718 44.648 65.5238 43.2889 65.4118 41.9842Z" fill="#4795C8"/>
<path d="M141.945 58.864C142.085 58.565 142.169 58.3204 142.28 58.103C143.148 56.3905 144.016 54.6781 144.912 52.9928C145.192 52.4492 145.108 52.0414 144.856 51.5522C142.029 46.0886 139.649 40.462 137.69 34.6723C137.242 33.3948 136.85 32.0901 136.402 30.6766C136.794 30.6223 137.102 30.5679 137.382 30.5679C139.061 30.5679 140.713 30.5679 142.392 30.5679C143.568 30.5679 143.54 30.5679 143.904 31.6824C145.304 35.8955 146.703 40.0815 148.131 44.2947C148.187 44.4306 148.243 44.5665 148.411 44.8927C148.803 43.8597 149.195 42.9899 149.475 42.0929C150.594 38.6137 151.686 35.1072 152.75 31.6008C152.974 30.8397 153.282 30.4864 154.149 30.5135C155.829 30.5951 157.481 30.5407 159.16 30.5407C160.056 30.5407 160.112 30.6494 159.86 31.4377C157.817 37.9341 155.549 44.349 152.722 50.5736C151.518 53.1831 150.202 55.711 148.859 58.266C148.691 58.565 148.271 58.9456 147.935 58.9456C146.088 58.9999 144.24 58.9728 142.364 58.9728C142.308 58.9728 142.196 58.9456 141.945 58.864Z" fill="white"/>
<path d="M36.663 45.1917C37.7548 41.8756 38.8745 38.5322 39.9382 35.216C40.3581 33.8841 40.75 32.5522 41.1419 31.2203C41.3099 30.6767 41.5898 30.4049 42.2056 30.4049C43.9412 30.4321 45.7047 30.4321 47.4403 30.4049C48.1121 30.4049 48.2521 30.6223 48.0562 31.2475C46.0687 37.5537 43.7452 43.7239 40.9459 49.7311C40.4701 50.7368 39.9942 51.7425 39.4063 52.6939C39.2384 52.9657 38.7625 53.2103 38.3986 53.2375C37.0549 53.2919 35.6833 53.2375 34.3396 53.2647C33.7518 53.2647 33.4158 53.0472 33.1919 52.5308C31.9042 49.7039 30.5046 46.9314 29.3569 44.0501C27.7893 40.0272 26.3896 35.8956 24.906 31.8183C24.878 31.7096 24.85 31.6281 24.822 31.5193C24.5141 30.4321 24.5421 30.4321 25.6618 30.4321C27.3134 30.4321 28.937 30.4593 30.5886 30.4049C31.3724 30.3777 31.6803 30.6767 31.9042 31.4106C33.2479 35.7053 34.6475 40 36.0192 44.2947C36.1312 44.5937 36.2711 44.8927 36.4111 45.1917C36.4951 45.1917 36.579 45.1917 36.663 45.1917Z" fill="#4795C8"/>
</svg>
