<svg width="160" height="80" viewBox="0 0 160 80" fill="none" xmlns="http://www.w3.org/2000/svg">
<path d="M88.7003 36.1233C88.4971 35.8994 88.294 35.6756 88.0908 35.4517C86.5062 33.8033 84.5863 32.9791 82.3313 32.9791C80.0762 32.9791 78.1462 33.8033 76.5412 35.4517C76.3381 35.6552 76.1552 35.8791 75.9927 36.1233C74.9769 37.385 74.3877 38.8298 74.2252 40.4579C74.1846 40.7835 74.1643 41.1091 74.1643 41.4347C74.1643 43.4697 74.7737 45.2402 75.9927 46.7461C76.1552 46.97 76.3381 47.1837 76.5412 47.3872C78.1462 49.0559 80.0762 49.8903 82.3313 49.8903C84.5863 49.8903 86.5062 49.0559 88.0908 47.3872C88.294 47.1837 88.4971 46.97 88.7003 46.7461C89.8989 45.2402 90.4982 43.4697 90.4982 41.4347C90.4982 41.1091 90.4881 40.7835 90.4678 40.4579C90.2849 38.8298 89.6958 37.385 88.7003 36.1233ZM78.4611 41.4347C78.4611 41.0887 78.4814 40.7631 78.522 40.4579C78.6642 39.4607 79.0198 38.5857 79.5886 37.8327C80.3403 36.8355 81.2545 36.3369 82.3313 36.3369C83.408 36.3369 84.3222 36.8355 85.0739 37.8327C85.6631 38.5857 86.0287 39.4607 86.171 40.4579C86.2116 40.7631 86.2319 41.0887 86.2319 41.4347C86.2319 42.8389 85.8459 44.0294 85.0739 45.0062C84.3222 46.0033 83.408 46.5019 82.3313 46.5019C81.2545 46.5019 80.3403 46.0033 79.5886 45.0062C78.8369 44.0294 78.4611 42.8389 78.4611 41.4347ZM102.779 41.4347C102.779 41.1091 102.769 40.7835 102.749 40.4579C102.546 38.5246 101.774 36.8559 100.433 35.4517C98.9293 33.844 97.1111 33.0198 94.9779 32.9791H94.8255C94.3379 32.9995 93.9215 33.1725 93.5761 33.4981C93.2307 33.8644 93.058 34.3019 93.058 34.8107C93.058 35.3194 93.2307 35.7468 93.5761 36.0927C93.8402 36.3573 94.1551 36.5303 94.5208 36.6117C94.6427 36.5913 94.7646 36.5811 94.8865 36.5811C95.0084 36.5811 95.1404 36.5913 95.2826 36.6117C96.1359 36.7134 96.8774 37.1713 97.5072 37.9853C98.0761 38.6976 98.4316 39.5218 98.5738 40.4579C98.6144 40.7631 98.6348 41.0786 98.6348 41.4042C98.6348 42.7269 98.2589 43.8564 97.5072 44.7925C96.8571 45.6676 96.075 46.1458 95.1607 46.2272C95.0795 46.2272 94.988 46.2272 94.8865 46.2272C94.7849 46.2272 94.6935 46.2272 94.6122 46.2272C94.2262 46.2882 93.8808 46.4612 93.5761 46.7461C93.3323 47.0107 93.1698 47.3159 93.0885 47.6619C93.0682 47.784 93.058 47.9061 93.058 48.0282V48.0587C93.058 48.1808 93.0682 48.3029 93.0885 48.425C93.1495 48.771 93.312 49.0762 93.5761 49.3408C93.9215 49.6867 94.3379 49.8699 94.8255 49.8903H94.9779C97.1111 49.8496 98.9293 49.0152 100.433 47.3872C101.997 45.7591 102.779 43.775 102.779 41.4347ZM118.29 34.597C117.803 34.1086 117.275 33.7321 116.706 33.4675C115.934 33.1012 115.091 32.9181 114.176 32.9181C112.551 32.9181 111.17 33.4777 110.032 34.597C109.89 34.7394 109.758 34.8819 109.636 35.0243C109.616 34.4952 109.402 34.0374 108.996 33.6507C108.59 33.264 108.112 33.0707 107.564 33.0707C106.995 33.0707 106.497 33.264 106.07 33.6507C105.705 34.0577 105.522 34.5461 105.522 35.1159V47.8145C105.522 48.3843 105.705 48.8626 106.07 49.2492C106.497 49.6562 106.995 49.8597 107.564 49.8597C108.112 49.8597 108.59 49.6562 108.996 49.2492C109.422 48.8626 109.636 48.3843 109.636 47.8145V39.2063C109.656 38.372 109.961 37.6699 110.55 37.1001C111.139 36.4896 111.871 36.1843 112.744 36.1843C113.618 36.1843 114.349 36.4896 114.938 37.1001C115.324 37.446 115.599 37.853 115.761 38.3211L115.883 38.7484C115.903 38.8909 115.913 39.0435 115.913 39.2063V47.8145C115.913 48.3843 116.096 48.8626 116.462 49.2492C116.889 49.6562 117.386 49.8597 117.955 49.8597C118.504 49.8597 118.981 49.6562 119.387 49.2492C119.814 48.8626 120.027 48.3843 120.027 47.8145V38.9927C120.027 38.9316 120.027 38.8706 120.027 38.8095V38.5653C120.007 37.0187 119.428 35.6959 118.29 34.597ZM138.525 35.1159C138.525 34.5461 138.312 34.0577 137.885 33.6507C137.479 33.264 137.001 33.0707 136.453 33.0707C135.884 33.0707 135.386 33.264 134.96 33.6507C134.594 34.0577 134.411 34.5461 134.411 35.1159V35.1464C133.07 33.6812 131.455 32.9486 129.566 32.9486C127.595 32.9486 125.909 33.7626 124.507 35.3906C123.613 36.4489 123.004 37.6495 122.679 38.9927C122.557 39.4607 122.475 39.9491 122.435 40.4579C122.415 40.7428 122.404 41.0379 122.404 41.3431C122.404 41.6687 122.425 41.9943 122.465 42.3199C122.547 43.2968 122.77 44.2023 123.136 45.0367C123.461 45.8507 123.918 46.5935 124.507 47.2651C124.995 47.8349 125.513 48.3131 126.061 48.6998C127.118 49.3917 128.286 49.7376 129.566 49.7376C131.435 49.7376 133.03 49.0254 134.35 47.6008C134.37 47.5601 134.391 47.5296 134.411 47.5093V49.7376C134.411 49.7987 134.411 49.8699 134.411 49.9513C134.228 50.6025 133.863 51.1723 133.314 51.6607C132.481 52.4544 131.475 52.8512 130.297 52.8512C129.139 52.8512 128.144 52.4544 127.311 51.6607C127.128 51.4979 126.975 51.3351 126.854 51.1723L126.823 51.1418C126.823 51.1214 126.782 51.0502 126.701 50.9281C126.6 50.806 126.468 50.6534 126.305 50.4702C126.122 50.3074 125.97 50.1752 125.848 50.0734C125.726 49.9513 125.462 49.8903 125.056 49.8903C124.548 49.8903 124.111 50.0632 123.745 50.4092C123.501 50.6737 123.339 50.979 123.258 51.325V51.3555C123.237 51.4776 123.227 51.5997 123.227 51.7218C123.227 51.8235 123.237 51.9151 123.258 51.9965C123.258 52.0576 123.288 52.1797 123.349 52.3628C123.39 52.546 123.44 52.6681 123.501 52.7291C123.542 52.8105 123.623 52.9225 123.745 53.0649C123.989 53.3905 124.273 53.6958 124.598 53.9807C126.203 55.4866 128.133 56.2396 130.389 56.2396C132.644 56.2396 134.563 55.4866 136.148 53.9807C137.184 53.0446 137.885 51.966 138.251 50.745C138.393 50.2769 138.484 49.7987 138.525 49.3103V35.1159ZM128.316 37.4969C128.337 37.4766 128.357 37.4562 128.377 37.4359C129.027 36.6625 129.789 36.2759 130.663 36.2759C131.699 36.2759 132.562 36.7745 133.253 37.7716C133.822 38.5449 134.177 39.4404 134.32 40.4579C134.34 40.7428 134.35 41.0379 134.35 41.3431C134.35 41.5059 134.35 41.6789 134.35 41.8621C134.269 43.0424 133.903 44.0497 133.253 44.8841C133.07 45.1486 132.887 45.3725 132.705 45.5556C132.115 46.1051 131.435 46.3798 130.663 46.3798C129.81 46.3798 129.068 46.0135 128.438 45.2809C128.316 45.1588 128.205 45.0265 128.103 44.8841C127.433 43.9887 127.077 42.8897 127.036 41.5873C127.036 41.5059 127.036 41.4245 127.036 41.3431C127.036 41.0379 127.057 40.7428 127.097 40.4579C127.219 39.4404 127.554 38.5449 128.103 37.7716C128.164 37.6699 128.235 37.5783 128.316 37.4969ZM154.554 35.4212C154.006 34.831 153.406 34.3528 152.756 33.9865C151.578 33.2946 150.257 32.9486 148.795 32.9486C146.54 32.9486 144.61 33.7728 143.005 35.4212C141.644 36.8457 140.872 38.5246 140.689 40.4579C140.648 40.7631 140.628 41.0786 140.628 41.4042C140.628 43.7445 141.42 45.7286 143.005 47.3566C144.61 49.0254 146.54 49.8597 148.795 49.8597C150.257 49.8597 151.578 49.5138 152.756 48.8219C153.406 48.4352 154.006 47.9468 154.554 47.3566C156.159 45.7286 156.962 43.7445 156.962 41.4042C156.962 41.0786 156.952 40.7631 156.931 40.4579C156.728 38.5246 155.936 36.8457 154.554 35.4212ZM152.634 40.4579C152.675 40.7631 152.695 41.0786 152.695 41.4042C152.695 42.8083 152.309 43.9988 151.537 44.9756C150.786 45.9728 149.871 46.4714 148.795 46.4714C147.718 46.4714 146.804 45.9728 146.052 44.9756C145.3 43.9988 144.925 42.8083 144.925 41.4042C144.925 41.0786 144.945 40.7631 144.985 40.4579C145.128 39.4607 145.483 38.5755 146.052 37.8022C146.804 36.805 147.718 36.3064 148.795 36.3064C149.871 36.3064 150.786 36.805 151.537 37.8022C152.127 38.5755 152.492 39.4607 152.634 40.4579ZM14.8621 41.3431C14.7606 41.3431 14.6691 41.3533 14.5879 41.3736C14.2019 41.4143 13.8565 41.5771 13.5518 41.8621C13.2064 42.2284 13.0337 42.6659 13.0337 43.1746C13.0337 43.6834 13.2064 44.1108 13.5518 44.4567C13.8565 44.762 14.212 44.9451 14.6184 45.0062C14.6996 45.0062 14.7809 45.0062 14.8621 45.0062C15.37 45.0062 15.7967 44.823 16.1421 44.4567C16.5077 44.1108 16.6906 43.6834 16.6906 43.1746C16.6906 42.6659 16.5077 42.2284 16.1421 41.8621C15.7967 41.5161 15.37 41.3431 14.8621 41.3431ZM24.7357 39.2063C24.4513 38.7383 24.1059 38.3008 23.6996 37.8937C22.2978 36.4489 20.6014 35.7264 18.6104 35.7264C17.4524 35.7264 16.396 35.9706 15.4412 36.459V30.5066C15.4412 30.0182 15.2583 29.601 14.8926 29.255C14.5473 28.9294 14.1409 28.7666 13.6737 28.7666C13.1861 28.7666 12.7594 28.9294 12.3938 29.255C12.089 29.601 11.9367 30.0182 11.9367 30.5066V37.4359L11.9671 37.619C11.9875 38.0057 12.15 38.3516 12.4547 38.6569C12.536 38.7383 12.6274 38.8197 12.729 38.9011C12.9525 39.0639 13.2166 39.1656 13.5213 39.2063H13.6737C15.4412 39.1046 17.1883 39.1046 18.9152 39.2063C19.6262 39.3691 20.256 39.7354 20.8045 40.3053C20.8452 40.3459 20.896 40.3968 20.9569 40.4579C21.6273 41.2108 21.9626 42.1063 21.9626 43.1441C21.9626 44.2634 21.5766 45.1995 20.8045 45.9525C20.3982 46.3798 19.9614 46.6851 19.4942 46.8682L13.7041 47.1124C13.3181 47.1124 12.9829 47.204 12.6985 47.3872C12.6173 47.4482 12.536 47.5093 12.4547 47.5703C12.1093 47.9366 11.9367 48.364 11.9367 48.8524C11.9367 49.3204 12.1093 49.7275 12.4547 50.0734C12.8001 50.4397 13.2166 50.6229 13.7041 50.6229L13.3994 50.5923C16.3249 50.6534 18.0314 50.6839 18.519 50.6839C20.5709 50.6229 22.2978 49.8597 23.6996 48.3945C23.9027 48.191 24.0856 47.9875 24.2481 47.784C24.4106 47.5805 24.563 47.3668 24.7052 47.143C24.7052 47.1226 24.7154 47.1124 24.7357 47.1124C25.4467 45.9525 25.8023 44.6297 25.8023 43.1441C25.8023 42.1877 25.6499 41.2922 25.3452 40.4579C25.1826 40.0305 24.9795 39.6133 24.7357 39.2063ZM58.135 35.3296C56.7332 33.7016 55.047 32.8876 53.0764 32.8876C51.187 32.8876 49.5719 33.6202 48.231 35.0854V29.255C48.231 28.6852 48.0177 28.1968 47.5911 27.7898C47.1848 27.4031 46.7073 27.2098 46.1588 27.2098C45.59 27.2098 45.0922 27.4031 44.6656 27.7898C44.2999 28.1968 44.117 28.6852 44.117 29.255V47.8145C44.117 48.3843 44.2999 48.8626 44.6656 49.2492C45.0922 49.6562 45.59 49.8597 46.1588 49.8597C46.7073 49.8597 47.1848 49.6562 47.5911 49.2492C48.0177 48.8626 48.231 48.3843 48.231 47.8145V47.4482C49.5719 48.9338 51.187 49.6766 53.0764 49.6766C55.047 49.6766 56.7332 48.8524 58.135 47.204C59.5368 45.576 60.2377 43.602 60.2377 41.2821C60.2377 40.9972 60.2275 40.7224 60.2072 40.4579C60.065 38.4839 59.3743 36.7745 58.135 35.3296ZM54.5391 37.7106C55.1079 38.4839 55.4533 39.3997 55.5752 40.4579C55.5955 40.7224 55.6057 40.9972 55.6057 41.2821C55.6057 42.6862 55.2502 43.8666 54.5391 44.823C53.828 45.8202 52.9748 46.3188 51.9793 46.3188C50.9432 46.3188 50.0798 45.8202 49.389 44.823C48.6576 43.8666 48.292 42.6862 48.292 41.2821C48.292 40.9972 48.3123 40.7224 48.3529 40.4579C48.4545 39.3997 48.7999 38.4839 49.389 37.7106C50.0798 36.7134 50.9432 36.2148 51.9793 36.2148C52.9748 36.2148 53.828 36.7134 54.5391 37.7106ZM69.8674 32.9791H69.6846C67.5514 33.0198 65.7332 33.844 64.2298 35.4517C62.8889 36.8559 62.1271 38.5246 61.9442 40.4579C61.9036 40.7835 61.8833 41.1091 61.8833 41.4347C61.8833 43.775 62.6655 45.7591 64.2298 47.3872C65.7332 49.0152 67.5514 49.8496 69.6846 49.8903H69.8674C70.3347 49.8699 70.741 49.6867 71.0864 49.3408C71.3505 49.0762 71.513 48.771 71.574 48.425C71.5943 48.3029 71.6045 48.1808 71.6045 48.0587V48.0282C71.6045 47.9061 71.5943 47.784 71.574 47.6619C71.4927 47.3159 71.3302 47.0107 71.0864 46.7461C70.7817 46.4612 70.4363 46.2882 70.0503 46.2272C69.969 46.2272 69.8776 46.2272 69.776 46.2272C69.6744 46.2272 69.583 46.2272 69.5018 46.2272C69.2376 46.1865 68.9939 46.1356 68.7704 46.0746C68.1609 45.8507 67.6226 45.4234 67.1553 44.7925C66.4036 43.8564 66.0278 42.7269 66.0277 41.4042C66.0278 41.0786 66.0481 40.7631 66.0887 40.4579C66.2309 39.5218 66.5864 38.6976 67.1553 37.9853C67.7851 37.1713 68.5368 36.7134 69.4103 36.6117C69.5119 36.632 69.6338 36.6422 69.776 36.6422C69.9182 36.6422 70.0503 36.632 70.1722 36.6117C70.5176 36.5303 70.8223 36.3573 71.0864 36.0927C71.4318 35.7468 71.6045 35.3194 71.6045 34.8107C71.6045 34.3019 71.4318 33.8644 71.0864 33.4981C70.741 33.1725 70.3347 32.9995 69.8674 32.9791ZM18.2752 21.41C17.9095 21.3896 17.5337 21.3795 17.1477 21.3795C14.1816 21.3795 11.4694 21.99 9.01117 23.211C7.22338 24.086 5.55747 25.2867 4.01347 26.813C3.9322 26.8944 3.85094 26.9758 3.76968 27.0572C3.62747 27.22 3.48525 27.3828 3.34304 27.5456C3.13987 27.8305 3.0383 28.1663 3.0383 28.5529C3.0383 29.0617 3.21098 29.4891 3.55636 29.835C3.92203 30.2013 4.35883 30.3845 4.86673 30.3845C5.21211 30.3845 5.51685 30.3031 5.78095 30.1403C6.00442 29.8757 6.24821 29.6112 6.51233 29.3466C7.30464 28.5529 8.13759 27.8712 9.01117 27.3014C11.4085 25.7344 14.1206 24.9509 17.1477 24.9509C17.5337 24.9509 17.9095 24.9611 18.2752 24.9815C21.9321 25.2257 25.0912 26.6807 27.7526 29.3466C30.6984 32.2974 32.1713 35.8485 32.1713 40C32.1713 40.1628 32.1713 40.3154 32.1713 40.4579C32.1103 42.9406 31.5009 45.2097 30.3429 47.2651C29.6724 48.4657 28.809 49.585 27.7526 50.6229C24.8271 53.5737 21.2921 55.0491 17.1477 55.0491C13.0439 55.0491 9.53938 53.6144 6.63421 50.745C6.59359 50.7043 6.55295 50.6636 6.51233 50.6229C6.26854 50.3787 6.03489 50.1345 5.81141 49.8903C5.56763 49.7478 5.28322 49.6766 4.95815 49.6766C4.45025 49.6766 4.01347 49.8496 3.64778 50.1955C3.3024 50.5618 3.12972 50.9993 3.12972 51.5081C3.12972 51.9151 3.24147 52.2712 3.46494 52.5765C3.5462 52.6782 3.64778 52.78 3.76968 52.8818C3.85094 52.9835 3.9322 53.0751 4.01347 53.1565C7.65 56.7992 12.0281 58.6205 17.1477 58.6205C22.2876 58.6205 26.6657 56.7992 30.2819 53.1565C32.0291 51.4063 33.3598 49.4832 34.274 47.3872C35.1882 45.23 35.6758 42.9203 35.7367 40.4579C35.7367 40.3154 35.7367 40.1628 35.7367 40C35.7367 37.3545 35.2492 34.9022 34.274 32.6434C33.3598 30.5269 32.0291 28.5835 30.2819 26.813C26.9298 23.4552 22.9276 21.6542 18.2752 21.41Z" fill="url(#paint0_linear)"/>
<defs>
<linearGradient id="paint0_linear" x1="0.9051" y1="40" x2="156.322" y2="40" gradientUnits="userSpaceOnUse">
<stop stop-color="#68F28B"/>
<stop offset="1" stop-color="#00FFDE"/>
</linearGradient>
</defs>
</svg>
