<svg width="160" height="80" viewBox="0 0 160 80" fill="none" xmlns="http://www.w3.org/2000/svg">
<path d="M61.1347 25.0395C62.3083 25.0114 63.4745 25.2306 64.5565 25.6827C65.4592 26.0696 66.2668 26.6463 66.9234 27.373C67.5102 28.0251 67.9693 28.7801 68.2772 29.5993C68.5485 30.3168 68.6919 31.0758 68.7008 31.8421C68.7067 32.6902 68.543 33.531 68.2191 34.3158C67.8712 35.161 67.3571 35.9288 66.7068 36.5744C66.0566 37.22 65.2832 37.7305 64.4319 38.0758C63.2469 38.5353 61.975 38.732 60.7054 38.6523C59.4357 38.5725 58.199 38.2182 57.0818 37.6141C56.0025 36.9865 55.1176 36.0766 54.5238 34.9837C54.0379 34.1353 53.7573 33.1865 53.704 32.212C53.6507 31.2376 53.8261 30.2641 54.2165 29.3685C54.5696 28.5362 55.0863 27.7821 55.7363 27.1504C56.4222 26.4753 57.2387 25.9452 58.1365 25.592C59.0911 25.219 60.1089 25.0315 61.1347 25.0395ZM60.7527 25.3941V25.3034C59.8936 25.3154 59.0459 25.5006 58.2611 25.8476C57.4418 26.1928 56.6952 26.6879 56.0602 27.3071C55.4479 27.8978 54.9521 28.5969 54.5985 29.3685C54.2021 30.2533 54.0276 31.2203 54.0898 32.1867C54.152 33.1531 54.4491 34.0902 54.9556 34.9178C55.5375 35.9347 56.3725 36.7864 57.3807 37.3914C58.4052 38.0131 59.5772 38.3545 60.7776 38.3809V38.2737C59.6376 38.1909 58.5401 37.8096 57.5967 37.1688C56.7408 36.5828 56.0406 35.7996 55.5561 34.8863C55.0716 33.973 54.8171 32.9568 54.8144 31.9246C54.8106 31.1149 54.9512 30.3109 55.2297 29.5499C55.5004 28.8052 55.9088 28.1172 56.434 27.5214C56.9564 26.9222 57.5911 26.4294 58.3026 26.0702C59.0678 25.6903 59.8998 25.4607 60.7527 25.3941ZM61.1845 25.6744C60.2467 25.6659 59.3256 25.9202 58.5269 26.4083C57.6952 26.9263 57.0274 27.6664 56.6001 28.5439C56.0963 29.5699 55.8484 30.7011 55.8775 31.8421C55.8378 33.0383 56.1065 34.2247 56.6582 35.2888C57.115 36.1596 57.8122 36.8831 58.6681 37.3749C59.6604 37.943 60.8161 38.1641 61.95 38.0026C63.0839 37.8411 64.1304 37.3065 64.9219 36.4844C65.4411 35.9402 65.84 35.2942 66.0929 34.5879C66.3801 33.7947 66.5235 32.9572 66.5165 32.1142C66.555 31.0874 66.4059 30.0622 66.0763 29.0881C65.7958 28.33 65.3539 27.641 64.7807 27.0679C64.3115 26.5996 63.7445 26.2393 63.1197 26.0125C62.5026 25.7875 61.8502 25.6731 61.1928 25.6744H61.1845ZM61.6579 25.3034V25.3941C62.2761 25.4411 62.8836 25.5801 63.4602 25.8064C64.0788 26.0605 64.6426 26.43 65.1212 26.8948C65.71 27.4536 66.1618 28.1391 66.4417 28.8985C66.7849 29.8701 66.9481 30.8953 66.9234 31.9246C66.9262 32.6702 66.8313 33.4131 66.6411 34.1344C66.4559 34.8305 66.1495 35.4891 65.7358 36.0804C65.2996 36.6889 64.7321 37.1931 64.0748 37.5564C63.3304 37.965 62.5061 38.2097 61.6579 38.2737V38.3727C62.4464 38.3445 63.2232 38.174 63.9502 37.8697C64.6605 37.5725 65.3041 37.1381 65.8438 36.5916C66.4149 36.0074 66.8612 35.3147 67.156 34.5549C67.4857 33.7028 67.6492 32.7962 67.6377 31.8834C67.6564 30.9122 67.4872 29.9465 67.1394 29.0386C66.8391 28.2651 66.3746 27.5648 65.7773 26.9855C65.2264 26.4553 64.5779 26.0354 63.8671 25.7486C63.1641 25.4682 62.4155 25.3173 61.6579 25.3034Z" fill="white"/>
<path d="M72.571 33.1037V30.2342C72.571 29.4976 72.5461 28.6538 72.4962 27.7028C72.4464 26.7518 72.38 26.0042 72.2969 25.46L69.9548 25.1384V25.0395H76.408C77.4263 24.9903 78.4376 25.2305 79.3231 25.7321C79.9675 26.1074 80.4916 26.6564 80.8347 27.3153C81.0849 27.7875 81.2294 28.3079 81.2582 28.8407C81.267 29.3945 81.1203 29.9399 80.8347 30.4156C80.5626 30.8656 80.1833 31.2422 79.7301 31.5123C79.3102 31.7753 78.8362 31.9416 78.3431 31.9988C78.7527 32.1456 79.1283 32.3728 79.4477 32.6667C79.7324 32.9504 79.9935 33.2565 80.2284 33.582C80.5191 33.9777 80.9094 34.5137 81.3911 35.2311C81.8728 35.9484 82.2216 36.4432 82.5538 36.8307C82.8087 37.1626 83.0862 37.4766 83.3844 37.7707C83.5955 38.0036 83.851 38.1928 84.136 38.3272C84.4211 38.4616 84.7302 38.5387 85.0454 38.5541V38.6448H83.3844C82.97 38.6655 82.5557 38.6032 82.1662 38.4615C81.7767 38.3198 81.4198 38.1017 81.117 37.8202C80.8783 37.5881 80.6588 37.3372 80.4609 37.0699C80.245 36.7813 79.8962 36.3113 79.4228 35.6516C78.9494 34.992 78.5923 34.456 78.2351 34.0025C78.0045 33.6809 77.749 33.3777 77.4711 33.0955C77.2527 32.8705 76.9935 32.6887 76.707 32.5595C76.341 32.4517 75.9574 32.4153 75.5775 32.4523C75.2578 32.446 74.9381 32.4681 74.6224 32.5183C74.5815 32.8879 74.5621 33.2596 74.5642 33.6314V35.3548C74.5628 36.3142 74.6238 37.2727 74.7469 38.2242L77.1804 38.5458V38.6365H69.9548V38.5458L72.2554 38.2242C72.355 37.5976 72.4326 36.718 72.4879 35.5856C72.5461 34.456 72.571 33.6314 72.571 33.1037ZM72.8118 25.4023V38.282H73.5178V25.4023H72.8118ZM74.4729 28.8572V30.3827C74.4729 30.9324 74.4922 31.4326 74.531 31.8834C74.8974 31.9276 75.2665 31.9469 75.6356 31.9411C76.3321 31.969 77.0249 31.8274 77.6538 31.5288C78.1227 31.2974 78.5063 30.9252 78.7501 30.4651C78.963 30.0178 79.0735 29.5292 79.0735 29.0345C79.0735 28.5398 78.963 28.0512 78.7501 27.6039C78.5478 27.1881 78.2657 26.8156 77.9195 26.5072C77.5904 26.2118 77.2107 25.9772 76.7983 25.8146C76.4137 25.6563 76.0021 25.5723 75.5858 25.5672C75.2877 25.5602 74.9898 25.5851 74.6971 25.6414C74.6362 25.9987 74.5836 26.5127 74.5393 27.1834C74.495 27.854 74.4867 28.412 74.5144 28.8572H74.4729ZM75.4944 25.2456V25.3363C76.286 25.3261 77.064 25.5406 77.7368 25.9548C78.3008 26.3053 78.7552 26.805 79.049 27.3977C79.3113 27.9235 79.4504 28.5014 79.456 29.0881C79.4849 29.6503 79.3417 30.208 79.0453 30.6878C78.7488 31.1676 78.3129 31.5471 77.795 31.7762H77.8531C78.5074 31.6269 79.0923 31.264 79.5141 30.7455C79.9493 30.2125 80.1789 29.5431 80.1619 28.8572C80.1382 28.3277 79.9903 27.811 79.7301 27.3483C79.5031 26.8971 79.1767 26.5025 78.775 26.1939C78.3712 25.882 77.916 25.642 77.4295 25.4848C76.9473 25.3262 76.4426 25.2455 75.9346 25.2456H75.4944ZM78.069 33.4913L80.1869 36.4184C80.5659 36.9712 81.0217 37.4681 81.5406 37.8944C81.9467 38.1924 82.4392 38.3515 82.9442 38.3479V38.2572C82.4293 38.1143 81.7676 37.4849 80.9592 36.369L79.2982 34.0437C79.0065 33.6164 78.6603 33.2284 78.2684 32.8893C77.9288 32.6202 77.5258 32.4415 77.0973 32.3699V32.4441C77.49 32.7234 77.8207 33.0799 78.069 33.4913Z" fill="white"/>
<path d="M91.2162 38.6448H84.9624V38.5541L86.9806 38.2078C87.0747 37.4327 87.1439 36.4982 87.1882 35.4043C87.2325 34.3104 87.2546 33.2412 87.2546 32.1967V30.6383C87.275 28.9089 87.1918 27.1797 87.0055 25.4601L84.9541 25.1385V25.0396H91.2079V25.1303L89.1399 25.4518C89.079 26.051 89.0347 26.6007 89.007 27.101C88.9794 27.6012 88.9545 28.1894 88.9323 28.8655C88.9323 29.5581 88.9323 30.2068 88.9323 30.8115V32.8646C88.9323 33.2439 88.9323 33.8624 88.9323 34.7199C88.9323 35.5774 88.9904 36.3031 89.032 36.8967C89.0735 37.4904 89.115 37.9357 89.1482 38.2325L91.1996 38.5541V38.6448H91.2162ZM87.4872 25.4024V38.282H88.0686V25.4024H87.4872Z" fill="white"/>
<path d="M107.478 33.5573L105.933 33.8953C105.836 34.4576 105.769 35.0246 105.734 35.5939C105.684 36.2866 105.662 36.905 105.667 37.4492C104.928 37.7213 104.322 37.9357 103.857 38.0759C103.312 38.2392 102.757 38.3686 102.196 38.4634C101.496 38.5833 100.788 38.6412 100.078 38.6366C98.945 38.6558 97.8185 38.4657 96.7558 38.0759C95.8592 37.7441 95.0439 37.2269 94.3639 36.5587C93.7571 35.9549 93.2821 35.2336 92.9686 34.4395C92.6698 33.6914 92.5148 32.8943 92.5118 32.0895C92.5076 31.1785 92.6767 30.2749 93.0101 29.4262C93.3447 28.5795 93.8474 27.8084 94.4884 27.1587C95.1666 26.476 95.9814 25.9423 96.8803 25.592C97.8991 25.1989 98.985 25.0057 100.078 25.023H100.493H100.892H101.54C102.326 25.0725 103.07 25.0973 103.774 25.0973C104.477 25.0973 105.006 25.078 105.36 25.0395L105.493 28.0822H105.36L104.745 26.0537C104.496 25.996 104.197 25.9301 103.832 25.8641C103.466 25.7981 103.051 25.7404 102.594 25.6992C102.098 25.6482 101.599 25.6235 101.099 25.625C100.098 25.6023 99.1015 25.776 98.1676 26.1362C97.4004 26.436 96.7148 26.9105 96.1661 27.5215C95.6712 28.0814 95.2955 28.7349 95.0615 29.4427C94.8298 30.1397 94.7121 30.8691 94.7127 31.603C94.7084 32.4145 94.8754 33.2178 95.2027 33.9613C95.5102 34.7106 95.9647 35.3917 96.5398 35.965C97.1392 36.5384 97.8441 36.9919 98.6161 37.3008C99.408 37.6176 100.254 37.78 101.108 37.779C101.34 37.779 101.581 37.779 101.822 37.779L102.578 37.6801L103.475 37.5481C103.611 36.9894 103.678 36.4162 103.674 35.8413C103.695 35.184 103.628 34.5268 103.475 33.8871L100.983 33.5655V33.4583H107.436V33.5737L107.478 33.5573ZM101.207 25.3776V25.3034C100.775 25.2649 100.385 25.2457 100.036 25.2457C99.052 25.2361 98.0745 25.4095 97.1544 25.7569C96.3064 26.0784 95.5325 26.5664 94.8788 27.1916C94.2373 27.8077 93.7312 28.5488 93.3921 29.3685C93.0395 30.2297 92.8617 31.1516 92.8689 32.0813C92.864 33.1914 93.1749 34.2804 93.7659 35.2229C94.3907 36.2155 95.2824 37.0152 96.3405 37.5316C97.5758 38.1166 98.9342 38.3993 100.302 38.3562C100.691 38.3494 101.079 38.3219 101.465 38.2737V38.1995C100.224 38.2339 98.9867 38.0497 97.8105 37.6553C96.8748 37.3478 96.0225 36.8317 95.319 36.1464C94.7233 35.5514 94.2619 34.8375 93.9652 34.052C93.69 33.3241 93.5466 32.5537 93.5416 31.7762C93.533 30.8904 93.6965 30.0113 94.0233 29.1871C94.333 28.4127 94.8091 27.7148 95.4186 27.1422C96.0799 26.536 96.8644 26.0777 97.7192 25.7981C98.7259 25.4666 99.7814 25.305 100.842 25.3199H101.182L101.207 25.3776ZM103.998 33.8211V37.375L104.646 37.1441V33.8459L103.998 33.8211Z" fill="white"/>
<path d="M114.977 38.6448H107.503V38.5541L109.928 38.2078C110.039 37.4327 110.122 36.4982 110.177 35.4043C110.232 34.3104 110.26 33.2412 110.26 32.1967V30.6383C110.283 28.9074 110.183 27.177 109.961 25.4601L107.469 25.1385V25.0396H114.944V25.1303L112.453 25.4518C112.381 26.051 112.328 26.6007 112.295 27.101C112.262 27.6012 112.231 28.1894 112.203 28.8655C112.203 29.5581 112.203 30.2068 112.203 30.8115V32.8646C112.203 33.2439 112.203 33.8624 112.245 34.7199C112.287 35.5774 112.311 36.3031 112.361 36.8967C112.411 37.4904 112.461 37.9357 112.502 38.2325L114.994 38.5541L114.977 38.6448ZM110.501 25.4024V38.282H111.199V25.4024H110.501Z" fill="white"/>
<path d="M114.977 25.1385V25.0396H119.811C120.132 25.4848 120.545 26.0345 121.049 26.6887C121.552 27.3428 122.004 27.8925 122.402 28.3378L126.688 33.2852L128.017 34.7694C128.332 35.1157 128.739 35.5445 129.246 36.0474C129.285 35.5912 129.309 35.1652 129.321 34.7694C129.332 34.3736 129.332 34.0025 129.321 33.6562V29.3025C129.338 28.032 129.266 26.7618 129.105 25.5013L126.779 25.1385V25.0396H132.468V25.1385L130.143 25.526C130.007 26.7002 129.946 27.8817 129.96 29.0634V39.8817H129.86C128.886 38.6063 127.92 37.4107 126.962 36.2948L121.148 29.5581C120.279 28.6072 119.54 27.8458 118.931 27.2741C118.842 28.1701 118.798 28.9947 118.798 29.7478V35.998C118.808 36.9984 118.871 37.9975 118.989 38.9911L121.422 39.3539V39.4529H115.609V39.3539L117.959 39.0076C118.053 38.3379 118.109 37.6634 118.125 36.9874C118.158 36.1134 118.175 35.3328 118.175 34.6457V29.8467C118.175 29.297 118.175 28.7281 118.175 28.1399C118.175 27.5517 118.139 27.002 118.067 26.4908L116.796 25.526L114.977 25.1385ZM117.843 25.4024L129.395 38.6696V37.7378L118.64 25.3694H117.809L117.843 25.4024Z" fill="white"/>
<path d="M140.234 25.0396L144.187 34.5385C144.709 35.8007 145.305 37.0314 145.972 38.2243L147.484 38.5459V38.6366H141.039V38.5459L143.531 38.2243C143.303 36.8811 142.857 35.5834 142.21 34.3818H136.488C136.244 35.003 136.048 35.5115 135.898 35.9073C135.749 36.3031 135.608 36.7318 135.466 37.1524C135.35 37.505 135.261 37.8662 135.201 38.2325L137.593 38.5541V38.6448H132.485V38.5541L134.146 38.2325C134.575 37.4735 134.949 36.6854 135.267 35.8743L139.528 25.0396H140.234ZM139.262 27.6204C139.096 27.9503 138.88 28.445 138.606 29.0469C138.332 29.6488 138.091 30.259 137.867 30.8032C137.642 31.3474 137.418 31.9329 137.186 32.5431C136.953 33.1532 136.787 33.5655 136.712 33.7634C137.072 33.8129 137.49 33.8459 137.966 33.8624C138.442 33.8788 138.896 33.8788 139.328 33.8624C140.202 33.8713 141.076 33.8272 141.944 33.7304C141.712 33.0378 141.319 32.0511 140.765 30.7703C140.211 29.4894 139.713 28.4395 139.27 27.6204H139.262ZM139.411 26.8453L144.154 38.282H144.768L139.71 26.0703L139.411 26.8453Z" fill="white"/>
<path d="M148.763 25.1303V25.0396H155.665V25.1303L153.397 25.4518C153.32 26.051 153.253 26.8618 153.198 27.8843C153.143 28.9067 153.115 29.7973 153.115 30.5559V34.555C153.115 35.517 153.165 36.5174 153.264 37.5564C154.305 37.8919 155.393 38.0616 156.487 38.0594C156.981 38.0628 157.475 38.0325 157.965 37.9687C158.285 37.933 158.601 37.8752 158.912 37.7955L159.859 35.2559H159.992L159.56 38.6448H148.763V38.5541L150.947 38.2325C151.05 37.7074 151.114 37.1755 151.138 36.6411C151.188 35.877 151.23 35.091 151.263 34.2829C151.263 33.4583 151.304 32.8976 151.304 32.5596V30.1931C151.304 29.6818 151.304 29.0909 151.304 28.4203C151.304 27.7524 151.255 27.1669 151.213 26.6722C151.19 26.2579 151.145 25.8451 151.08 25.4353L148.763 25.1303ZM151.529 25.3776V38.282H152.168V25.3859L151.529 25.3776Z" fill="white"/>
<path d="M83.8162 53.5694L84.3644 55.2185C84.6747 55.3455 84.9976 55.4395 85.3278 55.4989C85.642 55.5633 85.962 55.5965 86.2829 55.5978C86.623 55.6011 86.9608 55.5424 87.2795 55.4247C87.563 55.3131 87.8203 55.1447 88.0353 54.9299C88.2216 54.761 88.3714 54.5562 88.4755 54.328C88.5717 54.124 88.6226 53.9018 88.625 53.6766C88.6285 53.469 88.5873 53.2631 88.5042 53.0725C88.4212 52.882 88.2981 52.7112 88.1433 52.5717C87.6264 52.1371 87.0704 51.7507 86.4822 51.4173C85.8953 51.0757 85.3395 50.6839 84.8212 50.2464C84.5576 50.0099 84.3358 49.7311 84.1651 49.4218C84.018 49.1303 83.944 48.8079 83.9491 48.4818C83.9558 48.0814 84.0736 47.6905 84.2896 47.3522C84.5455 46.9499 84.9074 46.6248 85.3361 46.4122C85.878 46.1484 86.477 46.0209 87.0802 46.0411C87.3958 46.0411 87.728 46.0411 88.0768 46.0824L88.8077 46.1236H89.3724H89.5635L89.605 48.3911H89.5136L89.0568 46.8575C88.5038 46.6136 87.9091 46.4765 87.3044 46.4534C86.9198 46.4472 86.538 46.5202 86.1832 46.6678C85.8765 46.7928 85.6096 46.998 85.4108 47.2615C85.2339 47.5006 85.1379 47.7893 85.1368 48.0861C85.1416 48.422 85.2752 48.7434 85.5105 48.9848C85.8058 49.3074 86.1472 49.5853 86.5237 49.8094L87.9024 50.634C88.3222 50.8691 88.7173 51.1453 89.0818 51.4585C89.3432 51.6858 89.5526 51.966 89.6959 52.2803C89.8391 52.5946 89.9129 52.9358 89.9123 53.2808C89.9041 53.7033 89.79 54.1171 89.5801 54.4847C89.3182 54.9356 88.9282 55.2998 88.4589 55.5318C87.8249 55.8428 87.1223 55.9903 86.4158 55.9606C86.1168 55.9606 85.768 55.9606 85.3444 55.9111C84.9208 55.8617 84.6135 55.8617 84.4142 55.8617H84.1983H83.9657H83.7747L83.6584 53.5282H83.7664L83.8162 53.5694ZM87.3543 46.1978H87.1217C86.6169 46.1919 86.1163 46.2902 85.6517 46.4864C85.2288 46.6608 84.8614 46.9458 84.5886 47.311C84.3298 47.6624 84.1929 48.0877 84.1983 48.5231C84.2152 48.8293 84.2981 49.1283 84.4414 49.4C84.5847 49.6717 84.785 49.9097 85.0288 50.098C85.2399 50.2864 85.4617 50.4626 85.6932 50.6257C85.9009 50.7659 86.2082 50.9638 86.6234 51.2276L87.62 51.8625C87.8376 52.0021 88.0432 52.1593 88.2346 52.3325C88.575 52.6011 88.8002 52.9878 88.865 53.4147C88.9297 53.8415 88.8291 54.2769 88.5834 54.6331C88.3771 54.9528 88.091 55.2141 87.7529 55.3917C87.3382 55.5981 86.8797 55.7028 86.4158 55.6968V55.7545C86.9545 55.7806 87.4919 55.6818 87.9855 55.4659C88.4045 55.2888 88.7686 55.0042 89.0402 54.6413C89.2717 54.3369 89.3997 53.9673 89.4057 53.5859C89.4057 53.3028 89.3492 53.0226 89.2396 52.7613C89.0996 52.4463 88.8928 52.1651 88.6333 51.9368C88.3463 51.6988 88.0408 51.4837 87.7197 51.2936L86.3909 50.469C86.0451 50.2621 85.7148 50.0306 85.4025 49.7764C85.1744 49.5921 84.9888 49.3612 84.8584 49.0994C84.728 48.8377 84.6558 48.5511 84.6468 48.2592C84.6566 47.9966 84.7232 47.7392 84.8422 47.5044C84.9611 47.2696 85.1296 47.063 85.3361 46.8987C85.9274 46.4351 86.6683 46.2006 87.4207 46.239V46.1731L87.3543 46.1978Z" fill="white"/>
<path d="M89.9621 46.0656H94.9452C95.5775 46.0464 96.2094 46.1158 96.8222 46.2718C97.2364 46.3896 97.6174 46.6013 97.9351 46.8902C98.182 47.1206 98.3748 47.4021 98.4998 47.7148C98.6317 48.0455 98.6993 48.398 98.6992 48.7537C98.7008 49.2752 98.5477 49.7857 98.259 50.2214C97.9487 50.6878 97.5186 51.0635 97.0132 51.3098C96.4427 51.5882 95.8133 51.7267 95.1778 51.7139C94.6822 51.7181 94.1873 51.6767 93.6994 51.5902V51.549H94.1562C94.6666 51.553 95.1734 51.4635 95.6512 51.2851C96.0919 51.122 96.4756 50.8356 96.7558 50.4606C97.0437 50.0598 97.1898 49.5755 97.171 49.0835C97.1664 48.4252 96.9414 47.787 96.5315 47.2695C96.3076 46.9891 96.0179 46.7674 95.6879 46.6237C95.3578 46.48 94.9974 46.4186 94.6379 46.4449C94.2779 46.4406 93.9185 46.4765 93.5666 46.5521C93.5333 46.7335 93.4973 47.1815 93.4586 47.8962C93.4198 48.6108 93.4004 49.111 93.4004 49.3969V52.6127C93.4004 52.7446 93.4004 53.0497 93.4004 53.5279C93.4004 54.0062 93.442 54.4102 93.4669 54.7565C93.4845 55.0498 93.5206 55.3417 93.5749 55.6305L95.3771 55.8779L95.3023 55.9604H89.9123V55.8697L91.6563 55.6305C91.7062 55.2513 91.7477 54.8555 91.7809 54.4349C91.8141 54.0144 91.8308 53.5032 91.8557 52.9095C91.8806 52.3158 91.8557 51.8705 91.8557 51.582V49.9823C91.8557 49.4326 91.8363 48.7922 91.7975 48.0611C91.7588 47.33 91.7117 46.7803 91.6563 46.412L89.8707 46.1728L89.9621 46.0656ZM92.1547 46.3213V55.6883H92.6613V46.3213H92.1547ZM95.0449 46.2306H94.7874V46.2965C95.2917 46.3132 95.7822 46.4641 96.2076 46.7335C96.6008 46.9847 96.9168 47.3385 97.1212 47.756C97.3267 48.1745 97.4318 48.6345 97.4285 49.1C97.4471 49.5808 97.3167 50.0557 97.0547 50.4606C96.8342 50.7957 96.5274 51.0662 96.1661 51.2439C95.8423 51.3988 95.4938 51.4965 95.1362 51.5325V51.6314H95.2691C95.6183 51.6152 95.9628 51.5456 96.2907 51.4253C96.7385 51.2585 97.132 50.9734 97.4285 50.6007C97.8024 50.1346 97.9862 49.546 97.9434 48.9516C97.9387 48.5108 97.8426 48.0758 97.661 47.6735C97.4534 47.2617 97.1304 46.9181 96.7308 46.6841C96.2245 46.375 95.6391 46.2176 95.0449 46.2306Z" fill="white"/>
<path d="M104.97 55.9606H99.9865V55.8946L101.598 55.6473C101.672 55.0866 101.731 54.4022 101.764 53.6106C101.797 52.819 101.822 52.0357 101.822 51.2771V50.1309C101.838 48.8719 101.771 47.6132 101.623 46.3627L99.9616 46.1236V46.0576H104.945V46.1236L103.284 46.3627C103.234 46.7997 103.201 47.1873 103.176 47.5501C103.151 47.9129 103.176 48.3334 103.118 48.8364C103.059 49.3394 103.118 49.8094 103.118 50.2546V51.7471C103.118 52.0219 103.118 52.47 103.118 53.0911C103.118 53.7178 103.159 54.2455 103.201 54.6743C103.242 55.1031 103.267 55.4329 103.3 55.6473L104.961 55.8864L104.97 55.9606ZM101.988 46.3297V55.6967H102.453V46.3297H101.988Z" fill="white"/>
<path d="M106.714 51.9367V49.8423C106.714 49.3064 106.714 48.6962 106.664 47.9953C106.614 47.2944 106.581 46.7585 106.531 46.3462L104.97 46.1071V46.0411H109.247C109.931 46.0057 110.61 46.1814 111.19 46.5441C111.627 46.825 111.975 47.2222 112.195 47.6902C112.363 48.0388 112.459 48.4173 112.478 48.8034C112.493 49.2135 112.398 49.6204 112.203 49.9825C112.033 50.3138 111.782 50.5974 111.473 50.8071C111.198 50.9964 110.882 51.1179 110.551 51.1616C110.827 51.2658 111.079 51.4258 111.29 51.6316C111.482 51.8398 111.657 52.0631 111.813 52.2995C112.004 52.5881 112.27 52.9757 112.585 53.4704C112.901 53.9651 113.167 54.3527 113.358 54.633C113.52 54.8743 113.701 55.1031 113.898 55.3174C114.029 55.4805 114.192 55.6152 114.378 55.7131C114.564 55.8109 114.768 55.8699 114.977 55.8864V55.9523H113.848C113.568 55.9659 113.288 55.92 113.028 55.8176C112.767 55.7152 112.531 55.5588 112.336 55.3586C112.176 55.1889 112.028 55.0069 111.896 54.8144L111.207 53.7837C110.891 53.3055 110.625 52.9097 110.376 52.5964C110.222 52.3614 110.049 52.1381 109.861 51.9285C109.717 51.7671 109.542 51.6354 109.346 51.5409C109.128 51.465 108.897 51.4314 108.665 51.442C108.451 51.4379 108.237 51.4545 108.026 51.4914C108.011 51.7661 108.011 52.0414 108.026 52.316V53.5693C108.04 54.2673 108.096 54.9639 108.192 55.6555L109.853 55.8946V55.9606H104.978V55.8946L106.506 55.6555C106.573 55.1992 106.625 54.5588 106.664 53.7342C106.697 52.9179 106.714 52.316 106.714 51.9367ZM106.88 46.3297V55.6967H107.345V46.3297H106.88ZM108.018 48.8034V49.9825C108.018 50.37 108.018 50.7411 108.018 51.0792C108.264 51.0973 108.511 51.0973 108.757 51.0792C109.224 51.0998 109.688 50.9974 110.102 50.7823C110.422 50.6068 110.678 50.3355 110.833 50.0072C110.981 49.678 111.055 49.3206 111.049 48.96C111.051 48.6204 110.986 48.2837 110.856 47.9695C110.726 47.6553 110.535 47.3697 110.293 47.1295C110.078 46.9151 109.824 46.7418 109.546 46.6183C109.285 46.4997 109.002 46.4378 108.715 46.4369C108.517 46.432 108.319 46.4514 108.126 46.4946C108.126 46.7585 108.051 47.1295 108.018 47.616C107.984 48.1025 108.018 48.523 108.018 48.8446V48.8034ZM108.665 46.173V46.239C109.199 46.2343 109.721 46.3926 110.16 46.6925C110.545 46.955 110.849 47.3172 111.041 47.7397C111.217 48.1259 111.31 48.5443 111.315 48.9683C111.338 49.3688 111.243 49.7673 111.041 50.1146C110.838 50.4619 110.538 50.7427 110.177 50.9225C110.619 50.8058 111.006 50.5406 111.273 50.1721C111.565 49.7757 111.717 49.2944 111.705 48.8034C111.711 48.4146 111.631 48.0291 111.473 47.6737C111.325 47.3568 111.109 47.0755 110.841 46.8492C110.312 46.4037 109.642 46.1584 108.948 46.1565L108.665 46.173ZM110.326 52.1593L111.738 54.2867C111.989 54.684 112.293 55.0448 112.644 55.3586C112.908 55.5742 113.24 55.6909 113.582 55.6885V55.6225C113.242 55.5235 112.801 55.0618 112.262 54.2455L111.124 52.5551C110.932 52.2534 110.703 51.9764 110.443 51.7306C110.221 51.5376 109.952 51.4067 109.662 51.3513V51.409C109.949 51.6201 110.187 51.8901 110.36 52.2006L110.326 52.1593Z" fill="white"/>
<path d="M121.256 55.9606H116.273V55.8946L117.884 55.6473C117.959 55.0866 118.017 54.4022 118.05 53.6106C118.084 52.819 118.108 52.0357 118.108 51.2771V50.1309C118.124 48.8719 118.058 47.6132 117.909 46.3627L116.248 46.1236V46.0576H121.231V46.1236L119.57 46.3627C119.52 46.7997 119.487 47.1873 119.462 47.5501C119.437 47.9129 119.462 48.3334 119.404 48.8364C119.346 49.3394 119.404 49.8094 119.404 50.2546V51.7471C119.404 52.0219 119.404 52.47 119.404 53.0911C119.404 53.7178 119.446 54.2455 119.487 54.6743C119.529 55.1031 119.554 55.4329 119.587 55.6473L121.248 55.8864L121.256 55.9606ZM118.275 46.3297V55.6967H118.74V46.3297H118.275Z" fill="white"/>
<path d="M122.668 46.1892H128.831C129.204 46.1892 129.545 46.1892 129.86 46.1892L131.065 46.0903L131.231 48.2506H131.148L130.624 46.684C130.177 46.6116 129.724 46.5757 129.271 46.5768C128.902 46.5743 128.533 46.5935 128.166 46.6345C127.805 46.6791 127.448 46.7452 127.095 46.8324C127.095 47.2447 127.028 47.6569 127.012 48.028C126.995 48.399 127.012 48.7701 126.97 49.0999C126.929 49.4298 126.97 49.6524 126.97 49.7678V51.9612C126.97 52.5438 126.992 53.1952 127.037 53.9154C127.078 54.641 127.128 55.2182 127.194 55.6469L128.947 55.8943V55.9603H123.582V55.8943L125.309 55.6469C125.47 54.4637 125.545 53.2705 125.533 52.0766V49.6606C125.533 49.1576 125.533 48.6712 125.533 48.1847C125.533 47.6982 125.467 47.2364 125.409 46.7994C125.095 46.7201 124.776 46.6622 124.454 46.6262C124.088 46.585 123.739 46.5603 123.416 46.552C122.904 46.5523 122.393 46.5937 121.887 46.6757L121.372 48.2671H121.256L121.414 46.082L122.029 46.148C122.241 46.1747 122.454 46.1885 122.668 46.1892ZM125.741 46.4366V55.7047H126.239V46.4366H125.741Z" fill="white"/>
<path d="M79.9626 50.6006H54.9473V51.4251H79.9626V50.6006Z" fill="white"/>
<path d="M158.754 50.6006H133.739V51.4251H158.754V50.6006Z" fill="white"/>
<path d="M56.1931 51.0132L54.9473 52.25L53.6932 51.0132L54.9473 49.7764L56.1931 51.0132Z" fill="white"/>
<path d="M160 51.0132L158.746 52.25L157.5 51.0132L158.746 49.7764L160 51.0132Z" fill="white"/>
<path d="M23.7114 24.7589C20.5777 24.7605 17.5147 25.6846 14.9099 27.4144C12.3051 29.1441 10.2753 31.6017 9.07721 34.4766C7.87911 37.3515 7.56648 40.5146 8.17886 43.5659C8.79123 46.6172 10.3011 49.4197 12.5176 51.6191C14.7341 53.8185 17.5576 55.3161 20.6313 55.9225C23.705 56.5289 26.8907 56.2168 29.7858 55.0258C32.6808 53.8348 35.1552 51.8183 36.8961 49.2313C38.6369 46.6442 39.5661 43.6028 39.5661 40.4915C39.5595 36.3196 37.8867 32.3205 34.9146 29.3712C31.9424 26.422 27.9135 24.7633 23.7114 24.7589ZM23.7114 55.6305C21.6888 55.6285 19.6867 55.2277 17.8214 54.4513C15.956 53.6749 14.2646 52.5384 12.8453 51.1078C11.4259 49.6771 10.3069 47.9808 9.55322 46.1173C8.79952 44.2539 8.42613 42.2603 8.45473 40.2524C8.45473 32.1635 15.4477 25.3361 23.7197 25.3444C25.7227 25.3444 27.7061 25.736 29.5566 26.4971C31.4071 27.2581 33.0886 28.3735 34.5049 29.7797C35.9212 31.1858 37.0447 32.8552 37.8112 34.6924C38.5777 36.5297 38.9722 38.4988 38.9722 40.4874C38.9722 42.476 38.5777 44.4452 37.8112 46.2824C37.0447 48.1197 35.9212 49.789 34.5049 51.1952C33.0886 52.6014 31.4071 53.7168 29.5566 54.4778C27.7061 55.2388 25.7227 55.6305 23.7197 55.6305H23.7114ZM23.7114 24.7589C20.5777 24.7605 17.5147 25.6846 14.9099 27.4144C12.3051 29.1441 10.2753 31.6017 9.07721 34.4766C7.87911 37.3515 7.56648 40.5146 8.17886 43.5659C8.79123 46.6172 10.3011 49.4197 12.5176 51.6191C14.7341 53.8185 17.5576 55.3161 20.6313 55.9225C23.705 56.5289 26.8907 56.2168 29.7858 55.0258C32.6808 53.8348 35.1552 51.8183 36.8961 49.2313C38.6369 46.6442 39.5661 43.6028 39.5661 40.4915C39.5595 36.3196 37.8867 32.3205 34.9146 29.3712C31.9424 26.422 27.9135 24.7633 23.7114 24.7589ZM23.7114 55.6305C21.6888 55.6285 19.6867 55.2277 17.8214 54.4513C15.956 53.6749 14.2646 52.5384 12.8453 51.1078C11.4259 49.6771 10.3069 47.9808 9.55322 46.1173C8.79952 44.2539 8.42613 42.2603 8.45473 40.2524C8.45473 32.1635 15.4477 25.3361 23.7197 25.3444C25.7227 25.3444 27.7061 25.736 29.5566 26.4971C31.4071 27.2581 33.0886 28.3735 34.5049 29.7797C35.9212 31.1858 37.0447 32.8552 37.8112 34.6924C38.5777 36.5297 38.9722 38.4988 38.9722 40.4874C38.9722 42.476 38.5777 44.4452 37.8112 46.2824C37.0447 48.1197 35.9212 49.789 34.5049 51.1952C33.0886 52.6014 31.4071 53.7168 29.5566 54.4778C27.7061 55.2388 25.7227 55.6305 23.7197 55.6305H23.7114ZM23.9689 16.9998C19.2772 16.977 14.6846 18.3389 10.7742 20.9127C6.86374 23.4865 3.81193 27.156 2.00626 31.4552C0.200604 35.7544 -0.277441 40.4894 0.632835 45.059C1.54311 49.6285 3.80064 53.8263 7.11875 57.1194C10.4369 60.4126 14.6659 62.6524 19.2687 63.5546C23.8716 64.4567 28.6406 63.9804 32.9703 62.1862C37.3 60.392 40.9949 57.3608 43.5859 53.4775C46.1769 49.5942 47.5471 45.0341 47.5225 40.3761C47.4984 34.1823 45.0089 28.249 40.5967 23.8701C36.1845 19.4911 30.2075 17.0215 23.9689 16.9998ZM23.7114 63.4803C19.1325 63.4771 14.6574 62.126 10.8517 59.598C7.04611 57.07 4.08087 53.4785 2.33088 49.2775C0.58088 45.0766 0.124704 40.4549 1.02002 35.9966C1.91533 31.5383 4.12194 27.4436 7.36087 24.2302C10.5998 21.0168 14.7257 18.829 19.2168 17.9433C23.708 17.0576 28.3628 17.5138 32.5929 19.2543C36.8229 20.9947 40.4382 23.9413 42.9818 27.7214C45.5254 31.5015 46.883 35.9455 46.883 40.4915C46.872 46.5881 44.4266 52.4315 40.083 56.7408C35.7394 61.0502 29.852 63.4738 23.7114 63.4803ZM23.7114 17.8244C19.1982 17.8276 14.7873 19.1593 11.0363 21.6511C7.28531 24.1429 4.36265 27.6829 2.6378 31.8235C0.912945 35.9642 0.463347 40.5196 1.34584 44.9139C2.22834 49.3083 4.4033 53.3442 7.59578 56.5114C10.7883 59.6787 14.8549 61.8351 19.2816 62.7081C23.7084 63.581 28.2964 63.1313 32.4657 61.4159C36.6351 59.7004 40.1985 56.7961 42.7056 53.0702C45.2126 49.3443 46.5508 44.9641 46.5508 40.4833C46.5398 34.4743 44.1294 28.7147 39.8481 24.4672C35.5668 20.2197 29.7639 17.8309 23.7114 17.8244ZM41.7503 27.4635L44.9562 33.5982L39.6408 35.3958L37.2655 30.7122L41.7503 27.4635ZM30.5632 19.4735L36.842 22.6398C35.7291 24.1735 33.5614 27.1254 33.5614 27.1254C33.5614 27.1254 30.3473 25.4763 28.8856 24.7012L30.5632 19.4735ZM23.7779 18.4015C23.7779 20.2815 23.7779 23.8849 23.7779 23.8849L18.5206 24.7094L16.7766 19.5477L23.7779 18.4015ZM10.5726 22.5244L13.8033 26.9358L9.87492 30.5886L5.45654 27.3975L10.5726 22.5244ZM2.49158 33.6889L7.82353 35.338C7.55776 37.0449 7.3003 38.7517 6.99301 40.3679H1.44512C1.80225 38.1745 2.15107 36.0224 2.49158 33.6889ZM5.714 53.4784L2.54141 47.3519L7.86506 45.5791L10.232 50.2544L5.714 53.4784ZM16.9177 61.5261L10.6307 58.3186L13.9528 53.8494L18.6286 56.2407L16.9177 61.5261ZM7.52454 40.4915C7.52783 37.3138 8.47996 34.2083 10.2606 31.5676C12.0412 28.927 14.5704 26.8697 17.5285 25.6559C20.4865 24.4421 23.7406 24.1262 26.8795 24.7481C30.0183 25.3701 32.901 26.902 35.1631 29.1502C37.4252 31.3983 38.9652 34.2619 39.5885 37.3789C40.2117 40.4958 39.8902 43.7263 38.6645 46.6618C37.4389 49.5974 35.3642 52.1063 32.7026 53.8715C30.0411 55.6366 26.9122 56.5787 23.7114 56.5787C21.5846 56.5777 19.4789 56.1607 17.5144 55.3517C15.5499 54.5426 13.7652 53.3573 12.2621 51.8635C10.759 50.3697 9.56702 48.5965 8.75415 46.6453C7.94127 44.6941 7.52345 42.6031 7.52454 40.4915ZM23.7197 62.5898C23.7197 60.7015 23.7197 57.1559 23.7197 57.1559L29.0184 56.3808L30.6795 61.4437L23.7197 62.5898ZM36.9084 58.467L33.6445 54.0556L37.4981 50.3698L42.0161 53.668L36.9084 58.467ZM39.6325 45.711C39.9066 44.0042 40.1807 42.2644 40.463 40.64H46.0441C45.7036 42.8663 45.3631 45.0184 44.9977 47.4179L39.6325 45.711ZM39.5661 40.5245C39.5759 37.4092 38.6545 34.361 36.9183 31.7659C35.1822 29.1709 32.7095 27.1456 29.8133 25.9466C26.9172 24.7477 23.7278 24.4289 20.649 25.0306C17.5702 25.6324 14.7405 27.1277 12.5182 29.3271C10.2959 31.5265 8.78094 34.3311 8.16514 37.3859C7.54933 40.4407 7.86038 43.6082 9.05891 46.4873C10.2574 49.3665 12.2895 51.8278 14.8979 53.5596C17.5062 55.2915 20.5735 56.2159 23.7114 56.2159C27.9121 56.2116 31.9397 54.554 34.9116 51.6066C37.8835 48.6591 39.5573 44.6621 39.5661 40.4915V40.5245ZM8.45473 40.2524C8.45473 32.1635 15.4477 25.3361 23.7197 25.3444C26.7447 25.348 29.7002 26.2448 32.2104 27.9207C34.7206 29.5966 36.672 31.9759 37.8164 34.7559C38.9608 37.5359 39.2465 40.5911 38.6372 43.5328C38.0278 46.4745 36.551 49.1698 34.3945 51.2759C32.238 53.3819 29.4993 54.8036 26.5267 55.3601C23.5541 55.9166 20.482 55.5827 17.7011 54.4009C14.9201 53.2191 12.5561 51.2428 10.9096 48.7234C9.26312 46.204 8.4086 43.2553 8.45473 40.2524Z" fill="white"/>
<path opacity="0.2" d="M23.7612 18.2368C10.6639 18.2368 0 28.5026 0 41.1184C0 53.7342 10.6639 64 23.7612 64C36.8586 64 47.5224 53.7342 47.5224 41.1184C47.5224 28.5026 36.8669 18.2368 23.7612 18.2368ZM23.7612 63.6701C10.8466 63.6701 0.340514 53.5528 0.340514 41.1184C0.340514 28.684 10.8466 18.5666 23.7612 18.5666C36.6758 18.5666 47.1819 28.684 47.1819 41.1184C47.1819 53.5528 36.6758 63.6701 23.7612 63.6701Z" fill="white"/>
<path opacity="0.2" d="M23.7612 24.4209C20.561 24.4339 17.4364 25.388 14.7819 27.1627C12.1273 28.9374 10.0619 31.4531 8.84631 34.3923C7.63072 37.3314 7.31947 40.5623 7.95184 43.6769C8.58422 46.7916 10.1319 49.6504 12.3994 51.8925C14.667 54.1346 17.5528 55.6594 20.6925 56.2745C23.8323 56.8896 27.0852 56.5673 30.0406 55.3484C32.996 54.1296 35.5214 52.0687 37.298 49.4259C39.0747 46.7832 40.0228 43.6772 40.0229 40.4999C40.0097 36.228 38.29 32.1359 35.2413 29.1215C32.1927 26.107 28.0639 24.4165 23.7612 24.4209ZM23.7612 56.249C20.6267 56.2359 17.5663 55.3012 14.9664 53.5628C12.3665 51.8243 10.3437 49.3601 9.15324 46.4812C7.96279 43.6023 7.65811 40.4378 8.27767 37.3871C8.89723 34.3364 10.4132 31.5364 12.6343 29.3404C14.8554 27.1445 17.682 25.6511 20.7573 25.0487C23.8326 24.4463 27.0187 24.7621 29.9134 25.956C32.8081 27.1499 35.2817 29.1685 37.0218 31.757C38.7619 34.3455 39.6906 37.3878 39.6907 40.4999C39.6775 44.6842 37.9928 48.6924 35.0064 51.645C32.0201 54.5976 27.9758 56.2534 23.7612 56.249Z" fill="white"/>
<path d="M26.2611 51.6314H21.278C21.741 51.2453 22.1294 50.7787 22.4241 50.2544C22.748 49.5198 22.9013 48.7223 22.8726 47.9209C23.5131 48.1596 24.19 48.2879 24.8741 48.3002C24.8708 48.9191 24.9918 49.5324 25.2299 50.1044C25.4681 50.6763 25.8186 51.1955 26.2611 51.6314Z" fill="white"/>
<path d="M25.115 47.9208H25.0651H24.6665C24.1306 47.8879 23.6021 47.7796 23.0968 47.5992L22.856 47.5085L22.5487 47.3766C22.0539 47.149 21.6017 46.8395 21.2115 46.4613C21.1409 46.3967 21.0743 46.3279 21.0122 46.2552L20.9208 46.1562C20.8837 46.1213 20.8503 46.0826 20.8212 46.0408L20.7132 45.8594V45.8099C20.6516 45.7318 20.596 45.6491 20.5471 45.5625C20.3345 45.2196 20.1671 44.8511 20.0488 44.4659C19.8678 43.8717 19.8135 43.2467 19.8893 42.6306C19.9651 42.0144 20.1693 41.4207 20.489 40.8873C20.6897 40.5487 20.9483 40.2474 21.253 39.9968C21.4254 39.853 21.6151 39.7311 21.8178 39.634C22.2612 39.4087 22.7575 39.3062 23.2546 39.3371H23.5121H23.5702H23.6449H23.728H23.7861C23.9595 39.3772 24.1291 39.4324 24.2928 39.502C24.6069 39.616 24.8909 39.7992 25.1233 40.038C25.3252 40.2543 25.4682 40.5183 25.5385 40.8048C25.6006 41.0762 25.6006 41.358 25.5385 41.6294C25.4811 41.8819 25.3676 42.1186 25.2063 42.322C25.0654 42.5032 24.887 42.6522 24.6831 42.759C24.324 42.9188 23.9382 43.0111 23.5453 43.0311C23.1882 43.0311 22.8643 43.0311 22.6317 43.0311H22.2663V43.0806C22.3093 43.1869 22.3621 43.289 22.4241 43.3857C22.6713 43.6554 22.9784 43.8644 23.321 43.9959C23.5719 44.0965 23.8395 44.1497 24.11 44.1526C24.4434 44.1544 24.7728 44.0811 25.0734 43.9382L25.2146 43.864C25.532 43.7105 25.8146 43.4945 26.0452 43.229C26.3409 42.8873 26.5565 42.4845 26.6764 42.0499C26.8176 41.5617 26.8376 41.0468 26.7345 40.5492C26.6286 40.0239 26.3916 39.5334 26.0452 39.1227L25.9372 38.999C25.6158 38.6566 25.2327 38.377 24.8077 38.1745C24.5824 38.0686 24.3492 37.9804 24.11 37.9106H24.0602H24.0021H23.919H23.836H23.7363C23.6076 37.8809 23.4773 37.8589 23.346 37.8447C22.8174 37.7798 22.2812 37.8191 21.768 37.9601L21.5188 38.0426C21.0779 38.1939 20.6654 38.4168 20.2979 38.7022L20.0986 38.8754C19.6921 39.2356 19.3545 39.6658 19.102 40.1452C17.9393 42.4457 18.0223 46.1315 21.1036 47.7806C20.6342 47.7003 20.1748 47.5704 19.7332 47.3931C18.9303 47.0413 18.216 46.5172 17.6416 45.8585C17.0671 45.1998 16.6469 44.4228 16.4111 43.5836C16.1261 42.3676 16.1546 41.0999 16.4942 39.8978C17.2748 37.0118 19.5754 34.8185 21.0537 33.1529C22.0399 31.9543 22.9417 30.6898 23.7529 29.3682C24.5506 30.7726 25.4973 32.0884 26.5767 33.2931C28.0467 34.9422 30.2559 37.0531 31.0283 39.8896C32.0332 43.5754 29.6413 47.9208 25.115 47.9208Z" fill="white"/>
</svg>
