<svg width="160" height="80" viewBox="0 0 160 80" fill="none" xmlns="http://www.w3.org/2000/svg">
<path d="M79.2018 75.0931H77.547V71.2378C76.2738 71.9984 75.3984 72.9485 74.2852 73.7273L71.0166 71.1259V75.0794H69.364V67.5562L74.2966 71.5187L79.2018 67.5607V75.0931Z" fill="#EFEFEF"/>
<path d="M47.5832 72.0898H44.918L44.6094 70.7697H49.3409C49.419 71.279 49.3817 71.7992 49.2318 72.2922C49.0819 72.7851 48.8231 73.2381 48.4746 73.6178C46.7489 75.6071 43.1968 75.6002 41.4139 74.1179C39.4551 72.4872 39.5396 69.9886 41.6174 68.5201C43.4048 67.2571 46.3009 67.2708 47.9374 68.7485L46.9797 69.6118C46.4604 69.3825 45.9257 69.1895 45.3797 69.0339C44.8415 68.9025 44.2788 68.9093 43.744 69.0539C43.2092 69.1985 42.7198 69.476 42.3214 69.8607C41.6699 70.466 41.4254 71.5074 41.8277 72.268C42.422 73.3711 43.4277 73.8324 44.6597 73.8347C45.8917 73.837 46.9203 73.3939 47.5832 72.0898Z" fill="#EFEFEF"/>
<path d="M104.32 75.0633V72.149H100.308V75.093H98.7083V67.6611H100.276V70.6508H104.306V67.6657H105.906V75.0633H104.32Z" fill="#EFEFEF"/>
<path d="M91.9723 69.2552L90.4957 69.6594C89.4511 68.6842 88.5208 68.6134 87.7825 69.463C87.7253 69.5325 87.6941 69.6197 87.6941 69.7097C87.6941 69.7996 87.7253 69.8868 87.7825 69.9563C88.1163 70.3766 88.6466 70.4633 89.1837 70.5661C89.8185 70.6589 90.4431 70.8118 91.0489 71.0229C92.4386 71.5779 92.3906 73.5352 91.5723 74.2752C90.2009 75.5313 87.5997 75.6113 86.242 74.3232C86.0013 74.0453 85.7848 73.7473 85.5951 73.4324L87.1494 72.8957C88.2237 74.0696 89.2066 74.2249 90.2077 73.4119C90.2941 73.3414 90.3593 73.2484 90.396 73.1432C90.4328 73.038 90.4396 72.9246 90.4157 72.8158C90.2969 72.2859 90.0363 72.0986 89.3231 71.9296C88.6991 71.7812 88.0728 71.6281 87.442 71.5048C86.5802 71.3358 86.1277 70.7625 85.9837 69.9609C85.8397 69.1592 86.2877 68.5905 86.898 68.1497C87.2966 67.8671 87.7499 67.6707 88.2288 67.573C88.7078 67.4754 89.2019 67.4787 89.6794 67.5828C90.157 67.6868 90.6076 67.8893 91.0025 68.1773C91.3973 68.4652 91.7276 68.8324 91.9723 69.2552Z" fill="#EFEFEF"/>
<path d="M63.1056 75.093H61.4851L58.9707 70.6782C58.6736 71.2697 58.2302 72.0097 57.9444 72.5784C58.2804 72.7017 58.7033 72.5784 59.0027 72.6766L59.6885 73.9031H55.5056L58.9342 67.5835C60.4336 70.0867 61.7136 72.5807 63.1056 75.093Z" fill="#EFEFEF"/>
<path d="M120 67.6385C119.061 68.9472 118.258 70.096 117.422 71.2197C117.06 71.6628 116.879 72.2251 116.912 72.7956C116.958 73.5448 116.912 74.3007 116.912 75.0978H115.223C115.223 74.4126 115.179 73.748 115.223 73.0811C115.26 72.7064 115.223 72.3279 115.113 71.9676C115.003 71.6073 114.823 71.2724 114.583 70.9822C113.769 69.9407 113.038 68.8353 112.206 67.666H114.085L116.073 70.3655L118.13 67.6385H120Z" fill="#EFEFEF"/>
<path d="M94.6306 17.9312L91.0557 59.6515L96.9803 56.148L101.911 13.2698L94.6306 17.9312Z" fill="url(#paint0_linear)"/>
<path d="M94.5894 18.2852C93.2179 19.1044 91.8465 19.9243 90.475 20.745C86.1664 23.3235 81.8761 25.9295 77.5469 28.4738C74.8428 30.0725 72.084 31.5593 69.3502 33.0987C69.2085 33.1786 69.0782 33.2814 68.8679 33.423C73.6396 35.8485 78.0519 38.923 81.9789 42.5587C82.0041 42.1019 82.0246 41.821 82.0338 41.5378C82.0795 40.2519 82.1549 38.9661 82.1481 37.6802C82.1329 37.332 81.981 37.0037 81.7252 36.7667C80.5823 35.8325 79.3823 34.9555 78.18 34.0419L88.6944 27.5099C88.8933 28.5446 87.0281 55.6935 86.699 56.1343C78.7812 45.9754 69.2588 38.016 56.55 34.2087C72.7605 25.5298 87.5767 14.8708 102.951 4.74615L101.906 13.4616C101.808 13.4616 101.677 13.5963 101.6 13.642C100.445 14.4163 99.2957 15.2019 98.146 15.9853L97.8054 16.248L97.2523 16.57L94.5894 18.2852Z" fill="#B40464"/>
<defs>
<linearGradient id="paint0_linear" x1="89.6591" y1="17.7257" x2="103.288" y2="55.2026" gradientUnits="userSpaceOnUse">
<stop stop-color="#3D1C1C"/>
<stop offset="0.39" stop-color="#B40464"/>
</linearGradient>
</defs>
</svg>
