<svg width="160" height="80" viewBox="0 0 160 80" fill="none" xmlns="http://www.w3.org/2000/svg">
<path d="M35.9135 64.9038C35.1497 62.7103 30.2722 55.0355 27.9858 52.0522C29.6013 51.3142 30.5974 51.0096 31.9135 49.3271C33.6219 47.4793 33.7613 44.2432 33.7613 42.5761C33.2606 36.3361 26.8348 33.8638 23.0464 33.9774C23.0464 33.9774 5.59094 33.9774 5.27094 33.9774C4.95094 33.9774 4.59998 34.5813 4.59998 34.9735C4.59998 34.9735 4.59998 64.878 4.59998 65.1361C4.59998 65.3942 4.75998 66.1322 5.19869 66.1064C5.19869 66.1064 12.8477 66.1064 13.4051 66.1064C13.9574 65.8071 14.0038 65.1361 14.0297 64.7645C14.0297 64.7645 14.1174 55.0871 14.1174 53.8225C14.1174 53.8225 15.1393 53.8535 16.7342 53.8535C18.329 53.8535 20.2026 56.7645 20.5484 57.1825L25.24 63.8871C25.24 63.8871 26.6955 66.0342 26.9226 66.0342C26.9226 66.0342 35.0413 66.0342 35.6451 66.0342C36.1458 65.8742 36.0787 65.4355 35.9135 64.9038ZM21.2503 46.3077C21.2503 46.3077 14.9329 46.3335 14.1742 46.3077V41.4303C14.1742 41.4303 20.1509 41.5129 21.338 41.5129C22.52 41.5129 24.3006 42.1632 24.3006 43.9077C24.3006 45.6522 22.0968 46.3077 21.2503 46.3077ZM64.7858 59.2625V65.2393C64.7858 65.7142 64.3935 66.1064 63.9187 66.1064H37.9471C37.4722 66.1064 37.08 65.7142 37.08 65.2393V64.1606V59.2625V52.2535V46.4316V40.5271V38.0651V34.9271C37.08 34.4522 37.4722 34.06 37.9471 34.06H63.4387C63.9135 34.06 64.3058 34.4522 64.3058 34.9271V40.5322C64.3058 41.0071 63.9135 41.3993 63.4387 41.3993H46.6232V45.5748H62.2516C62.7264 45.5748 63.1187 45.9671 63.1187 46.4419V52.2587C63.1187 52.7335 62.7264 53.1258 62.2516 53.1258H46.6232V58.4058H63.9187C64.3935 58.3955 64.7858 58.7825 64.7858 59.2625ZM93.209 37.8638C89.1264 33.6729 81.4826 33.9774 81.4826 33.9774L69.7716 34.029L68.0838 34.0548C67.609 34.0548 67.2168 34.4471 67.2168 34.9219V38.06V40.8419V59.3658V64.1554V65.2342C67.2168 65.709 67.609 66.1013 68.0838 66.1013H69.7767H79.9445C79.9445 66.1013 84.2438 66.1477 85.3535 65.869C90.4838 65.4045 92.9819 62.4471 94.1845 61.0638C95.5264 59.5361 97.7922 55.9335 97.7922 49.6471C97.7922 43.3606 95.8774 40.5993 93.209 37.8638ZM87.578 54.3696C86.6077 57.6522 83.3664 58.4832 82.6697 58.4367C82.6697 58.4367 77.6787 58.4367 76.6619 58.4367V41.7813C76.6619 41.7348 80.1768 41.8277 81.8387 41.8277C83.5006 41.8277 85.0903 42.4884 85.5032 42.8135C89.2968 45.7709 87.7638 53.5851 87.578 54.3696ZM153.994 15.629C153.854 14.798 152.698 4.63028 152.621 3.2419C152.388 0.976091 151.356 1.06899 150.066 1.1619C145.792 1.15157 115.165 1.30125 110.917 1.1619C107.501 1.04835 96.6361 0.0986713 95.6658 0.00576809C94.6955 -0.0871352 94.3238 1.3477 94.138 2.03932C94.138 2.03932 89.2864 19.4638 88.7755 21.2238C88.2645 22.9787 89.4206 23.5361 90.0709 23.8148C90.0709 23.8148 102.83 28.5735 103.893 28.8987C103.893 28.8987 104.77 29.2703 105.88 29.1309C106.99 28.9916 107.449 27.1438 107.542 27.0045C107.635 26.8651 108.234 24.9709 108.466 24.5529C109.854 21.9619 111.516 22.1013 112.626 22.0083L128.388 21.038C128.388 21.038 128.528 21.5025 128.574 21.8225C126.494 24.0884 120.161 32.5477 119.098 34.1632C115.124 39.8974 108.006 50.5245 105.369 61.1103C102.737 70.3077 103.15 76.3619 103.057 77.9361C102.964 79.5051 104.259 79.6909 104.997 79.6909C104.997 79.6909 126.768 79.4587 127.645 79.4122C128.523 79.3658 128.801 78.6277 128.801 78.1167C128.801 77.6058 128.848 75.3916 129.034 71.1387C129.266 64.3 130.422 59.2574 130.928 57.2703C133.653 46.7309 138.463 39.4277 140.357 36.1916C142.252 32.9554 145.534 28.5167 152.744 19.4587C153.575 18.4935 154.226 17.6625 153.994 15.629ZM100.837 19.8354L97.369 12.4393L101.637 6.19932L105.596 12.9503L100.837 19.8354Z" fill="#DA2128"/>
</svg>
