<svg width="161" height="80" viewBox="0 0 161 80" fill="none" xmlns="http://www.w3.org/2000/svg">
<path d="M32 32.3H33.6V39.1H42.2V32.3H43.8V48H42.2V40.6H33.6V48H32V32.3Z" fill="white"/>
<path d="M47.9 48H46.1L52.9 32.3H54.5L61.2 48H59.4L57.7 43.9H49.6L47.9 48ZM50.2 42.4H57.1L53.6 34L50.2 42.4Z" fill="white"/>
<path d="M65.1 48H63.5V32.3H68.1C68.9 32.3 69.6 32.4 70.2 32.5C71 32.7 71.5 32.9 72 33.3C72.5 33.6 72.9 34.1 73.1 34.6C73.4 35.1 73.5 35.8 73.5 36.6C73.5 37.2 73.4 37.7 73.2 38.2C73 38.7 72.7 39.1 72.4 39.4C72 39.7 71.6 40 71.1 40.2C70.6 40.4 70.1 40.5 69.5 40.6L74.1 48.1H72.1L67.7 40.7H65V48H65.1ZM65.1 39.3H67.9C69.2 39.3 70.2 39.1 70.9 38.6C71.6 38.1 71.9 37.4 71.9 36.5C71.9 36 71.8 35.5 71.6 35.2C71.4 34.8 71.1 34.6 70.8 34.3C70.5 34.1 70 33.9 69.6 33.8C69.1 33.7 68.6 33.6 68 33.6H65.2V39.3H65.1Z" fill="white"/>
<path d="M78.5 48H76.9V32.3H78.5V48Z" fill="white"/>
<path d="M90.2 34.8C89.9 34.3 89.4 33.9 88.9 33.7C88.4 33.4 87.7 33.3 87 33.3C86.6 33.3 86.2 33.4 85.8 33.5C85.4 33.6 85 33.8 84.7 34C84.4 34.2 84.1 34.6 83.9 34.9C83.7 35.3 83.6 35.7 83.6 36.2C83.6 36.7 83.7 37.1 83.9 37.4C84.1 37.7 84.3 38 84.7 38.2C85 38.4 85.4 38.6 85.8 38.8C86.2 38.9 86.6 39.1 87.1 39.2C87.6 39.4 88.2 39.6 88.8 39.8C89.4 40 89.9 40.3 90.3 40.6C90.7 40.9 91.1 41.4 91.4 41.9C91.7 42.4 91.8 43.1 91.8 43.8C91.8 44.6 91.6 45.3 91.4 45.8C91.1 46.4 90.7 46.8 90.2 47.2C89.7 47.6 89.2 47.8 88.6 48C88 48.2001 87.4 48.3 86.7 48.3C86.2 48.3 85.8 48.3001 85.3 48.2001C84.8 48.1 84.4 48 83.9 47.8C83.5 47.6 83.1 47.4 82.7 47.1C82.3 46.8 82 46.5 81.7 46.1L83.1 45.1C83.4 45.7 83.9 46.1 84.5 46.5C85.1 46.9 85.8 47.1 86.7 47.1C87.1 47.1 87.5 47 87.9 46.9C88.3 46.8 88.7 46.6 89 46.3C89.3 46 89.6 45.7 89.8 45.3C90 44.9 90.1 44.5 90.1 44C90.1 43.5 90 43 89.8 42.6C89.6 42.2 89.3 41.9 88.9 41.7C88.5 41.5 88.1 41.3 87.7 41.1C87.2 40.9 86.8 40.8 86.3 40.6C85.8 40.4 85.3 40.3 84.8 40C84.3 39.8 83.8 39.5 83.4 39.2C83 38.9 82.7 38.5 82.4 38C82.2 37.5 82 36.9 82 36.2C82 35.4 82.2 34.8 82.5 34.2C82.8 33.7 83.2 33.2 83.7 32.8C84.2 32.4 84.7 32.2 85.3 32C85.9 31.8 86.5 31.8 87.1 31.8C88.2 31.8 89.1 32 89.8 32.4C90.6 32.8 91.1 33.2 91.5 33.7L90.2 34.8Z" fill="white"/>
<path d="M102.9 45.3L108.2 32.3H110.6V48H109V34.4L103.3 48H102.5L96.8 34.3V48H95.2V32.3H97.6L102.9 45.3Z" fill="white"/>
<path d="M114.7 48H113L119.8 32.3H121.4L128.2 48H126.4L124.7 43.9H116.6L114.7 48ZM117 42.4H123.9L120.4 34L117 42.4Z" fill="white"/>
<path d="M134.1 48H132.5V33.7H127.2V32.3H139.3V33.7H134V48H134.1Z" fill="white"/>
<path d="M143.3 48H141.7V32.3H143.3V48Z" fill="white"/>
<path d="M160.7 45.5001C160.4 45.9001 160.1 46.3001 159.7 46.6001C159.3 47.0001 158.9 47.3001 158.4 47.5001C157.9 47.8001 157.4 48.0001 156.8 48.1001C156.2 48.3001 155.5 48.3001 154.8 48.3001C153.6 48.3001 152.5 48.1001 151.5 47.7001C150.5 47.3001 149.6 46.7001 148.9 46.0001C148.2 45.3001 147.6 44.4001 147.2 43.4001C146.8 42.4001 146.6 41.3001 146.6 40.1001C146.6 38.9001 146.8 37.8001 147.2 36.8001C147.6 35.8001 148.2 34.9001 148.9 34.2001C149.6 33.5001 150.5 32.9001 151.5 32.5001C152.5 32.1001 153.6 31.9001 154.8 31.9001C155.4 31.9001 155.9 32.0001 156.5 32.1001C157.1 32.2001 157.6 32.4001 158.1 32.6001C158.6 32.8001 159 33.1001 159.4 33.4001C159.8 33.7001 160.1 34.1001 160.4 34.4001L159.1 35.4001C158.9 35.1001 158.7 34.9001 158.4 34.6001C158.1 34.3001 157.8 34.1001 157.4 33.9001C157 33.7001 156.6 33.6001 156.2 33.4001C155.8 33.3001 155.3 33.2001 154.8 33.2001C153.8 33.2001 152.9 33.4001 152.1 33.8001C151.3 34.2001 150.6 34.7001 150 35.3001C149.4 35.9001 149 36.7001 148.7 37.5001C148.4 38.3001 148.3 39.2001 148.3 40.1001C148.3 41.0001 148.5 41.9001 148.8 42.7001C149.1 43.5001 149.5 44.3001 150.1 44.9001C150.7 45.5001 151.3 46.0001 152.2 46.4001C153 46.8001 153.9 47.0001 154.9 47.0001C155.8 47.0001 156.7 46.8001 157.5 46.4001C158.3 46.0001 159 45.4001 159.5 44.6001L160.7 45.5001Z" fill="white"/>
<path d="M15.8 33.2C18.6 31.8 22.3 32.2 24.8 34.5C23.7 33.2 22.2 32.4 20.5 32C18.8 31.7 17 31.8 15.5 32.5C13.9 33.2 12.6 34.4 11.7 35.9C10.8 37.4 10.4 39.2 10.5 40.9C10.7 42.6 11.4 44.3 12.5 45.7C13.6 47 15.2 48 16.9 48.4C18.6 48.8 20.4 48.7 22 48.1C23.6 47.5 24.9 46.3 25.8 44.9C23.7 47.5 20.2 48.6 17.2 47.7C14.2 46.8 11.8 44 11.6 40.9C11.2 37.7 13 34.6 15.8 33.2Z" fill="white"/>
<path d="M30.2 48.9999C29.9 49.2999 29.6 49.5999 29.3 49.8999C29.4 49.6999 29.6 49.5999 29.7 49.3999C29.5 49.6999 29.3 49.8999 29.1 50.1999C27.2 51.8999 25 53.1999 22.7 53.8999C21.2 54.2999 19.7 54.4999 18.2 54.4999C14.5 54.0999 11 52.1999 8.89998 49.0999C6.99998 46.3999 6.19998 42.9999 6.69998 39.6999C6.69998 40.3999 6.69998 41.1999 6.69998 41.8999C6.89998 43.8999 7.69998 45.8999 8.79998 47.4999C9.99998 49.0999 11.5 50.4999 13.4 51.3999C15.2 52.2999 17.2 52.7999 19.2 52.6999C23.2 52.5999 27 50.2999 28.8 46.9999C26.3 49.7999 22.7 51.3999 19.2 51.1999C15.7 50.9999 12.4 49.1999 10.4 46.3999C8.39998 43.5999 7.79998 39.8999 8.89998 36.4999C9.89998 33.0999 12.6 30.2999 16.1 28.8999C15.3 28.9999 14.5 29.2999 13.7 29.5999C10.1 30.6999 6.99998 33.5999 5.49998 37.2999C4.69998 39.3999 4.39998 41.6999 4.59998 43.9999C4.69998 44.5999 4.79998 45.2999 4.99998 45.8999C4.69998 45.1999 4.39998 44.3999 4.19998 43.6999C4.09998 43.2999 4.09998 42.7999 3.99998 42.3999C3.99998 39.4999 4.59998 36.5999 5.99998 34.0999C6.69998 32.8999 7.59998 31.7999 8.59998 30.7999C9.59998 29.7999 10.8 28.9999 12.1 28.3999C14.7 27.1999 17.6 26.6999 20.4 27.1999C23.3 27.5999 26 28.9999 28.2 30.8999C26.2 28.6999 23.5 27.2999 20.6 26.6999C17.7 26.0999 14.6 26.4999 11.8 27.6999C10.4 28.2999 9.19998 29.0999 8.09998 30.0999C9.19998 28.9999 10.4 28.0999 11.8 27.3999C13.1 26.7999 14.5 26.2999 15.9 25.9999C17.3 25.6999 18.8 25.6999 20.3 25.7999C23.3 26.0999 26.1 27.3999 28.6 29.2999C26.6 26.8999 23.8 25.0999 20.6 24.2999C17.4 23.5999 14 23.7999 10.9 25.1999C9.29998 25.7999 7.89998 26.6999 6.59998 27.8999C5.29998 28.9999 4.19998 30.2999 3.29998 31.7999C1.49998 34.6999 0.799983 38.1999 0.999983 41.5999C1.19998 43.2999 1.59998 44.9999 2.19998 46.4999C2.89998 48.0999 3.79998 49.4999 4.89998 50.7999C7.09998 53.2999 10.1 55.1999 13.4 55.9999C16.7 56.7999 20.1 56.4999 23.1 55.1999C23.2 55.0999 23.4 55.0999 23.5 54.9999C24.1 54.7999 24.6 54.4999 25.2 54.1999C26.6 53.2999 27.9 52.1999 28.9 50.8999C29.4 50.3999 29.9 49.6999 30.2 48.9999Z" fill="white"/>
</svg>
