<svg width="160" height="80" viewBox="0 0 160 80" fill="none" xmlns="http://www.w3.org/2000/svg">
<path d="M4.79385 32.3382H7.84891C9.50216 32.3382 10.694 32.4866 11.4244 32.7834C12.1434 33.0667 12.7492 33.5643 13.1531 34.2031C13.5745 34.8602 13.7852 35.6474 13.7852 36.5648C13.7852 37.5789 13.5092 38.4239 12.9572 39.0999C12.4052 39.776 11.6558 40.2455 10.7091 40.5084C10.1536 40.6606 9.14187 40.7366 7.67404 40.7366V46.9061H4.79385V32.3382ZM7.67404 38.0332H8.58634C9.30621 38.0332 9.80696 37.9835 10.0886 37.8841C10.3589 37.7929 10.5916 37.6205 10.7523 37.3923C10.9185 37.1459 11.0027 36.8565 10.9935 36.5628C10.9935 35.9996 10.767 35.589 10.314 35.3307C9.98465 35.1387 9.37434 35.0427 8.4831 35.0427H7.67404V38.0332ZM16.5011 32.3382H19.3918V41.7588C19.3918 42.57 19.4655 43.1446 19.613 43.4827C19.7599 43.8213 20.0158 44.1057 20.3431 44.2939C20.7151 44.5043 21.1411 44.6097 21.5725 44.5981C22.0342 44.61 22.4897 44.4931 22.884 44.2615C23.2279 44.0635 23.4953 43.763 23.6457 43.4056C23.7861 43.0595 23.8564 42.3983 23.8564 41.4221V32.3382H26.7482V41.0236C26.7482 42.4892 26.6625 43.506 26.4911 44.0739C26.2939 44.6851 25.9582 45.2465 25.5082 45.7176C25.0517 46.2268 24.4797 46.6283 23.8364 46.8909C23.136 47.1574 22.3876 47.2871 21.6346 47.2722C20.5369 47.2722 19.5818 47.0295 18.7692 46.5441C17.9566 46.0587 17.3754 45.4503 17.0257 44.7188C16.6745 43.9893 16.499 42.7566 16.499 41.0205L16.5011 32.3382ZM38.034 34.3187L35.9007 36.1298C35.1513 35.1265 34.3886 34.6249 33.6126 34.6249C33.2771 34.6114 32.9478 34.7152 32.6855 34.917C32.4453 35.1117 32.3252 35.331 32.3252 35.5751C32.3281 35.8276 32.419 36.0718 32.5833 36.2687C32.8172 36.5594 33.5213 37.1834 34.6955 38.1406C35.7946 39.0256 36.4618 39.5833 36.6971 39.8138C37.2807 40.3817 37.6948 40.9245 37.9392 41.4424C38.1864 41.9767 38.3111 42.556 38.3047 43.1409C38.3047 44.3362 37.8756 45.3232 37.0174 46.102C36.1591 46.8807 35.0397 47.2708 33.6589 47.2722C32.5809 47.2722 31.6419 47.018 30.8419 46.5096C30.042 46.0012 29.3572 45.2025 28.7877 44.1134L31.2106 42.7069C31.9389 43.9914 32.7768 44.6336 33.7242 44.6336C34.1786 44.647 34.6222 44.499 34.9705 44.2178C35.3069 43.9407 35.4751 43.6206 35.4751 43.2575C35.4635 42.8961 35.3296 42.5482 35.0937 42.2668C34.8395 41.9396 34.2787 41.436 33.4113 40.7559C31.7623 39.4619 30.6973 38.4634 30.2162 37.7604C29.7351 37.0573 29.4945 36.3559 29.4945 35.6562C29.4945 34.6462 29.8945 33.7799 30.6944 33.0572C31.4944 32.3345 32.4825 31.9728 33.6589 31.9722C34.41 31.9718 35.15 32.1457 35.8164 32.4792C36.4977 32.8172 37.2368 33.4304 38.034 34.3187ZM41.0332 32.3382H43.9545V37.8344H49.0059V32.3382H51.9176V46.9061H49.0111V40.5176H43.9597V46.9061H41.0332V32.3382Z" fill="#8F8585"/>
<path d="M73.5548 34.7152L71.5269 36.6419C70.2431 35.3344 68.7468 34.6807 67.0381 34.6807C65.5485 34.6807 64.3008 35.156 63.2951 36.1065C62.8076 36.5529 62.4218 37.092 62.1621 37.6895C61.9024 38.287 61.7745 38.93 61.7865 39.5776C61.7746 40.2455 61.9076 40.9084 62.1772 41.5239C62.4468 42.1395 62.8469 42.694 63.352 43.1521C64.3956 44.129 65.683 44.6174 67.214 44.6174C68.2099 44.6174 69.0492 44.4146 69.7318 44.009C70.4144 43.6034 70.9654 42.973 71.3847 42.1178H67.0023V39.5177H74.6157L74.6368 40.1312C74.6363 41.4062 74.2809 42.6576 73.6075 43.7555C72.9214 44.898 72.0333 45.7694 70.9433 46.3697C69.8533 46.97 68.574 47.2705 67.1055 47.2712C65.5351 47.2712 64.1344 46.9426 62.9032 46.2855C61.6753 45.6316 60.6631 44.6586 59.9819 43.4776C59.27 42.2812 58.8989 40.9249 58.9063 39.5461C58.8795 37.6879 59.5892 35.8897 60.8911 34.5175C62.4615 32.8206 64.5052 31.9722 67.0223 31.9722C68.2902 31.9627 69.5469 32.2018 70.7157 32.6749C71.6828 33.0711 72.6292 33.7512 73.5548 34.7152ZM81.8962 32.3383H84.8175L90.6379 46.9051H87.645L86.4609 43.9045H80.2855L79.0539 46.9051H76.06L81.8962 32.3383ZM83.3711 36.2008L81.3442 41.2001H85.3927L83.3711 36.2008ZM94.3387 32.3383H97.1452L100.653 42.4991L104.189 32.3383H106.994L109.533 46.9051H106.747L105.124 37.7056L101.909 46.9051H99.3701L96.1834 37.7056L94.522 46.9051H91.7135L94.3387 32.3383ZM111.616 32.3383H114.476V46.9061H111.616V32.3383ZM117.731 32.3383H120.494L126.969 41.9241V32.3383H129.849V46.9061H127.078L120.611 37.3467V46.9031H117.731V32.3383ZM147.278 34.7152L145.25 36.6419C143.967 35.3378 142.47 34.6858 140.76 34.6858C139.27 34.6858 138.023 35.161 137.017 36.1116C136.53 36.5574 136.145 37.0957 135.885 37.6923C135.625 38.2889 135.497 38.9308 135.508 39.5776C135.496 40.2455 135.629 40.9084 135.899 41.5239C136.169 42.1395 136.569 42.694 137.074 43.1521C138.117 44.129 139.405 44.6174 140.936 44.6174C141.932 44.6174 142.771 44.4146 143.454 44.009C144.136 43.6034 144.687 42.973 145.106 42.1178H140.724V39.5177H148.337L148.359 40.1312C148.358 41.4062 148.003 42.6577 147.329 43.7555C146.643 44.898 145.755 45.7694 144.665 46.3697C143.575 46.97 142.296 47.2705 140.827 47.2712C139.257 47.2712 137.856 46.9426 136.625 46.2855C135.397 45.6316 134.385 44.6586 133.704 43.4776C132.992 42.2812 132.621 40.9249 132.628 39.5461C132.601 37.6879 133.311 35.8897 134.613 34.5175C136.184 32.8206 138.228 31.9722 140.745 31.9722C142.013 31.9627 143.27 32.2018 144.439 32.6749C145.406 33.0711 146.352 33.7512 147.278 34.7152Z" fill="#ED2B24"/>
<path d="M149.079 32.3322H150.975V32.9528H150.35V35.64H149.686V32.9528H149.076L149.079 32.3322ZM151.76 32.3322H152.398L153.194 34.6391L153.998 32.3322H154.63L155.206 35.64H154.574L154.205 33.551L153.475 35.64H152.899L152.175 33.551L151.798 35.64H151.161L151.76 32.3322Z" fill="#8F8585"/>
</svg>
