<svg width="160" height="80" viewBox="0 0 160 80" fill="none" xmlns="http://www.w3.org/2000/svg">
<path d="M104.533 29.5483C103.952 25.9112 102.151 24.0489 99.1577 23.9326C95.9323 23.8162 94.0435 25.4747 93.1427 29.3737C91.6026 29.4319 90.0335 29.5192 88.29 29.6065C88.9003 25.3001 90.3532 21.663 94.4503 19.9753C99.4192 17.9385 103.691 19.0733 106.974 23.5543C107.323 23.1469 107.614 22.8269 107.904 22.5068C110.607 19.4807 113.948 18.4914 117.842 19.3352C121.619 20.179 123.799 22.7687 124.932 26.3185C125.949 29.5192 125.92 29.5483 122.607 29.5483C122.026 29.5483 121.445 29.5483 120.806 29.5483C120.719 29.0537 120.632 28.5881 120.515 28.1517C119.847 25.3292 117.9 23.8744 114.994 23.9326C112.088 24.0198 110.054 25.6493 109.56 28.4426C109.415 29.3155 109.037 29.5774 108.224 29.5483C107.003 29.4901 105.812 29.5483 104.533 29.5483Z" fill="#F1EA26"/>
<path d="M25.6411 31.0613C27.2684 31.0613 28.8084 31.0613 30.3485 31.0613C31.0168 36.7644 33.109 39.0049 37.7292 38.9467C42.3785 38.9176 44.616 36.5316 45.1971 31.0613C46.7372 31.0613 48.2773 31.0613 49.9336 31.0613C50.1079 35.3968 48.9456 39.2377 45.2552 41.7109C40.7512 44.708 35.8405 44.6498 31.104 42.2347C27.3846 40.3143 25.2343 35.6878 25.6411 31.0613Z" fill="#F1EA26"/>
<path d="M49.9917 29.4901C48.2773 29.4901 46.7663 29.4901 45.1681 29.4901C44.7613 27.6279 43.9767 25.9984 42.2332 25.0091C40.606 24.078 38.8044 23.8453 36.9737 23.9907C33.2834 24.2526 31.3656 25.8239 30.3776 29.4028C28.8375 29.4028 27.2393 29.4028 25.6411 29.4028C25.9898 24.369 29.8545 19.888 34.8816 19.3643C37.7583 19.0733 40.7513 18.8114 43.5408 20.1499C47.4346 22.0121 49.3234 25.2128 49.9917 29.4901Z" fill="#F1EA26"/>
<path d="M20.7885 29.4895C18.9869 29.4895 17.4758 29.4895 15.9067 29.4895C15.7905 28.9366 15.7324 28.4129 15.6161 27.8891C15.064 25.6778 13.6402 24.3102 11.4027 24.0774C9.94984 23.9319 8.49695 23.9901 7.04405 23.9319C6.69535 23.9319 6.34666 23.9319 5.82362 23.9319C5.82362 25.8232 5.82362 27.6273 5.82362 29.4604C4.13826 29.4604 2.59819 29.4604 1 29.4604C1 26.056 1 22.6807 1 19.2473C1.26152 19.2182 1.5521 19.16 1.84268 19.16C4.63224 19.16 7.4218 19.1309 10.2404 19.16C14.8897 19.2182 19.0159 22.0988 20.2073 26.2015C20.4979 27.2199 20.585 28.2965 20.7885 29.4895Z" fill="#F1EA26"/>
<path d="M55.5127 30.8578C57.1109 30.8578 58.6219 30.8578 60.2491 30.8578C60.2491 33.5056 60.2491 36.1535 60.2491 38.9468C63.707 38.9468 67.0487 38.9468 70.4484 38.9468C70.4484 40.6345 70.4484 42.1766 70.4484 43.8061C65.4795 43.8061 60.5397 43.8061 55.5417 43.8061C55.5127 39.4997 55.5127 35.2515 55.5127 30.8578Z" fill="#F1EA26"/>
<path d="M141.989 19.0734C147.365 19.0734 152.653 19.0734 158 19.0734C158 20.6447 158 22.1868 158 23.9036C156.227 23.9036 154.426 23.9036 152.508 23.9036C152.508 25.5039 152.479 26.9297 152.508 28.3845C152.537 29.2866 152.159 29.6066 151.288 29.5484C150.096 29.4902 148.905 29.5484 147.597 29.5484C147.597 27.6571 147.597 25.8531 147.597 23.9618C145.65 23.9618 143.82 23.9618 141.931 23.9618C141.989 22.2741 141.989 20.732 141.989 19.0734Z" fill="#F1EA26"/>
<path d="M120.777 30.8578C122.404 30.8578 123.944 30.8578 125.542 30.8578C125.542 35.1933 125.542 39.4706 125.542 43.8061C123.944 43.8061 122.404 43.8061 120.777 43.8061C120.777 39.4997 120.777 35.2224 120.777 30.8578Z" fill="#F1EA26"/>
<path d="M76.8412 43.8352C76.8412 39.4415 76.8412 35.1642 76.8412 30.8578C78.4394 30.8578 79.9794 30.8578 81.6067 30.8578C81.6067 35.1933 81.6067 39.4997 81.6067 43.8352C80.0085 43.8352 78.4975 43.8352 76.8412 43.8352Z" fill="#F1EA26"/>
<path d="M109.299 43.8933C107.846 43.8933 106.48 43.9224 105.115 43.8642C104.882 43.8642 104.504 43.3114 104.504 43.0204C104.475 39.0923 104.475 35.1641 104.475 31.1196C106.103 31.1196 107.701 31.1196 109.299 31.1196C109.299 35.3096 109.299 39.5578 109.299 43.8933Z" fill="#F1EA26"/>
<path d="M15.7905 31.0323C17.4759 31.0323 19.0159 31.0323 20.6141 31.0323C20.6141 35.3096 20.6141 39.5287 20.6141 43.8642C19.1322 43.8642 17.7374 43.8933 16.3135 43.8351C16.1392 43.8351 15.7905 43.4278 15.7905 43.2241C15.7905 39.2087 15.7905 35.1933 15.7905 31.0323Z" fill="#F1EA26"/>
<path d="M147.655 31.0613C149.283 31.0613 150.852 31.0613 152.45 31.0613C152.45 35.3095 152.45 39.5577 152.45 43.8932C151.026 43.8932 149.631 43.9223 148.295 43.8641C148.062 43.8641 147.713 43.3695 147.713 43.1076C147.655 39.1213 147.655 35.135 147.655 31.0613Z" fill="#F1EA26"/>
<path d="M93.1136 43.806C91.5155 43.806 89.9754 43.806 88.4062 43.806C88.4062 39.5287 88.4062 35.3387 88.4062 31.0905C89.9754 31.0905 91.5155 31.0905 93.1136 31.0905C93.1136 35.3387 93.1136 39.5578 93.1136 43.806Z" fill="#F1EA26"/>
<path d="M1.02905 30.8578C2.56912 30.8578 4.08014 30.8578 5.70738 30.8578C5.70738 35.106 5.70738 39.3542 5.70738 43.6606C4.16731 43.6606 2.6563 43.6606 1.02905 43.6606C1.02905 39.4124 1.02905 35.1933 1.02905 30.8578Z" fill="#F1EA26"/>
<path d="M131.557 31.0905C133.155 31.0905 134.696 31.0905 136.294 31.0905C136.294 35.3387 136.294 39.5578 136.294 43.8351C134.725 43.8351 133.185 43.8351 131.557 43.8351C131.557 39.5869 131.557 35.3678 131.557 31.0905Z" fill="#F1EA26"/>
<path d="M76.8702 19.1024C78.4684 19.1024 80.0085 19.1024 81.6357 19.1024C81.6357 22.565 81.6357 25.9985 81.6357 29.461C80.0375 29.461 78.4975 29.461 76.8702 29.461C76.8702 26.0276 76.8702 22.6232 76.8702 19.1024Z" fill="#F1EA26"/>
<path d="M60.1619 29.4902C58.6509 29.4902 57.1399 29.4902 55.5127 29.4902C55.5127 26.0567 55.5127 22.6232 55.5127 19.1315C57.0237 19.1315 58.5347 19.1315 60.1619 19.1315C60.1619 22.5359 60.1619 25.9694 60.1619 29.4902Z" fill="#F1EA26"/>
<path d="M131.499 29.5484C131.499 26.0567 131.499 22.7396 131.499 19.3353C133.097 19.3353 134.666 19.3353 136.323 19.3353C136.323 22.536 136.352 25.6785 136.294 28.821C136.294 29.0537 135.829 29.4902 135.567 29.4902C134.26 29.5775 132.923 29.5484 131.499 29.5484Z" fill="#F1EA26"/>
<path d="M40.8675 52.8263C40.8094 53.0009 40.7803 53.1755 40.7222 53.35C40.606 53.6119 40.4897 53.8738 40.3445 54.1939C39.124 53.8156 37.8164 53.1464 36.7994 54.543C36.102 55.5032 36.0439 57.6564 36.7413 58.6166C37.8164 60.0715 39.2112 59.315 40.5188 59.0822C40.7222 60.6826 40.6641 60.7407 39.124 60.9444C37.09 61.2063 35.579 60.5371 34.8816 59.0531C33.9808 57.1618 34.3585 54.3684 35.6952 53.1464C36.9447 51.9534 39.1821 51.837 40.8675 52.8263Z" fill="#F6F6F6"/>
<path d="M120.021 60.7988C119.266 60.7988 118.714 60.7988 117.929 60.7988C118.83 57.4235 116.505 55.1249 115.314 52.4188C116.999 52.0115 117.057 52.0406 117.813 53.4954C118.162 54.1938 118.539 54.8921 118.975 55.7359C119.382 54.9503 119.789 54.3683 120.021 53.6991C120.457 52.4188 121.3 51.9533 122.666 52.3897C121.474 55.0376 119.091 57.3654 120.021 60.7988Z" fill="#F6F6F6"/>
<path d="M87.5636 53.7864C87.5636 53.2044 87.5636 52.7971 87.5636 52.3024C89.6848 52.3024 91.777 52.3024 93.9563 52.3024C93.9563 52.7389 93.9563 53.2044 93.9563 53.7282C93.2589 53.7282 92.5616 53.7282 91.7189 53.7282C91.7189 56.1142 91.7189 58.4129 91.7189 60.7697C91.0506 60.7697 90.5275 60.7697 89.9173 60.7697C89.9173 58.442 89.9173 56.1433 89.9173 53.7573C89.0746 53.7864 88.3772 53.7864 87.5636 53.7864Z" fill="#F6F6F6"/>
<path d="M63.5036 52.2733C64.0848 52.2733 64.5787 52.2733 65.1599 52.2733C65.1599 55.0957 65.1599 57.9181 65.1599 60.7988C64.6078 60.7988 64.0848 60.7988 63.5036 60.7988C63.5036 57.9763 63.5036 55.183 63.5036 52.2733Z" fill="#F6F6F6"/>
</svg>
