<svg width="160" height="80" viewBox="0 0 160 80" fill="none" xmlns="http://www.w3.org/2000/svg">
<path d="M0 32.9718C0.456607 32.9718 0.919469 32.9906 1.37608 32.9655C1.68257 32.953 1.76388 33.0656 1.76388 33.3596C1.75137 35.9866 1.75137 38.6074 1.75137 41.2345C1.75137 42.3166 1.75137 43.3987 1.75137 44.5433C1.1509 44.5433 0.57545 44.5433 0 44.5433C0 40.6903 0 36.8311 0 32.9718Z" fill="white"/>
<path d="M9.8015 40.1465C9.8015 40.5531 9.8015 40.8658 9.8015 41.1723C9.8015 42.1856 9.79524 43.1926 9.80775 44.2059C9.80775 44.4436 9.75146 44.5437 9.49501 44.5312C9.13222 44.5124 8.76319 44.5124 8.4004 44.5312C8.15021 44.5437 8.0814 44.4561 8.0814 44.2122C8.09391 42.661 8.0814 41.1035 8.09391 39.5523C8.09391 39.2771 8.0126 39.152 7.74364 39.0707C6.70533 38.7517 5.7108 38.8142 4.7538 39.3209C4.5599 39.4209 4.45982 39.3959 4.366 39.202C4.22839 38.9268 4.06576 38.6641 3.90314 38.3764C4.54739 37.9761 5.21666 37.6946 5.93598 37.6571C6.64278 37.6195 7.34958 37.7071 8.09391 37.7384C8.09391 37.6696 8.09391 37.5445 8.09391 37.4194C8.09391 36.0558 8.10017 34.686 8.08766 33.3224C8.08766 33.041 8.16897 32.9534 8.44419 32.9722C8.7882 32.9909 9.13222 32.9909 9.47624 32.9722C9.73269 32.9596 9.82026 33.0472 9.81401 33.3099C9.8015 34.9362 9.82026 36.5625 9.8015 38.1887C9.8015 38.5077 9.89532 38.6954 10.1643 38.8705C10.746 39.2521 11.3027 39.6774 11.8719 40.084C11.9532 40.1465 12.0407 40.2028 12.1658 40.2904C12.1408 39.9213 12.1095 39.5961 12.0908 39.2771C11.9594 36.3498 14.0486 33.6852 16.9884 33.0847C19.5529 32.5593 22.255 33.8854 23.506 36.2247C25.42 39.7962 23.3371 44.1997 19.2902 45.0066C17.3511 45.3944 15.6123 44.8752 14.0923 43.5805C12.8539 42.5296 11.5779 41.5226 10.3144 40.503C10.1768 40.3842 10.0267 40.2966 9.8015 40.1465ZM18.158 34.6985C15.8312 34.6172 13.7984 36.6313 13.7984 38.9894C13.7984 41.3975 15.7249 43.3553 18.1268 43.3678C20.4911 43.3803 22.4676 41.41 22.4802 39.0457C22.4864 36.625 20.416 34.636 18.158 34.6985Z" fill="white"/>
<path d="M58.3706 37.219C57.0821 39.8273 55.7873 42.4293 54.4676 45.1001C52.8538 41.3284 51.2713 37.6255 49.6638 33.8726C50.1642 33.6662 50.6458 33.4535 51.14 33.2721C51.19 33.2534 51.3339 33.391 51.3714 33.4848C51.9031 34.7608 52.4285 36.0431 52.9539 37.3253C53.4292 38.4887 53.9109 39.6521 54.3862 40.8155C54.43 40.9281 54.4863 41.0344 54.5739 41.2158C55.8624 38.4762 57.1196 35.8054 58.4206 33.0532C59.7092 35.8054 60.9664 38.4762 62.2611 41.2409C62.5551 40.5215 62.8178 39.9023 63.0743 39.2768C63.8561 37.3691 64.6443 35.4676 65.4136 33.5599C65.5199 33.2909 65.62 33.2033 65.9077 33.3472C66.3081 33.5411 66.7271 33.6912 67.1837 33.8726C65.595 37.6068 64.0125 41.3097 62.3988 45.0939C61.0727 42.4293 59.7717 39.821 58.4707 37.219C58.4332 37.219 58.4019 37.219 58.3706 37.219Z" fill="white"/>
<path d="M88.1628 45.1067C84.7663 45.1442 81.9829 42.4171 82.033 38.9393C82.083 35.5992 84.8477 32.9722 88.1252 32.9722C91.4654 32.9659 94.23 35.8932 94.1988 39.1082C94.1612 42.4546 91.359 45.1942 88.1628 45.1067ZM92.4724 39.0269C92.4724 36.6438 90.5084 34.6985 88.094 34.7048C85.7296 34.7048 83.7468 36.6813 83.7343 39.0394C83.728 41.3913 85.7359 43.3803 88.119 43.3803C90.5271 43.3803 92.4724 41.4288 92.4724 39.0269Z" fill="white"/>
<path d="M74.3332 32.9781C77.5795 32.9468 80.4193 35.5926 80.4005 39.0578C80.3817 42.5605 77.5795 45.1125 74.327 45.1C70.9556 45.0813 68.2534 42.3792 68.2597 39.014C68.266 35.6802 70.9868 32.9718 74.3332 32.9781ZM69.961 39.039C69.9548 41.4222 71.9063 43.3737 74.2894 43.3799C76.6851 43.3862 78.6429 41.4534 78.6741 39.0516C78.7054 36.6809 76.7476 34.7107 74.3645 34.7044C71.9313 34.6982 69.9673 36.6372 69.961 39.039Z" fill="white"/>
<path d="M96.3378 38.7576C96.3378 36.9625 96.344 35.1736 96.3315 33.3784C96.3315 33.0719 96.3941 32.9593 96.7256 32.9656C98.0579 32.9906 99.3964 32.9468 100.729 32.9969C103.381 33.1032 105.833 35.0172 106.195 37.9757C106.514 40.5715 105.201 42.9734 102.905 44.0117C102.199 44.3307 101.454 44.5184 100.672 44.5246C99.3401 44.5309 98.0016 44.5246 96.6693 44.5371C96.4066 44.5371 96.3002 44.4621 96.3378 44.1994C96.3378 44.1868 96.3378 44.1806 96.3378 44.1681C96.3378 42.3667 96.3378 40.559 96.3378 38.7576ZM99.5465 34.6982C99.1712 34.6982 98.7959 34.7169 98.4206 34.6919C98.1454 34.6794 98.0391 34.7545 98.0453 35.0485C98.0641 35.8178 98.0516 36.5934 98.0516 37.3628C98.0516 39.0516 98.0579 40.7404 98.0453 42.4292C98.0453 42.7357 98.1392 42.8295 98.4394 42.8108C98.8772 42.792 99.3151 42.8233 99.7529 42.7983C100.353 42.767 100.966 42.767 101.548 42.6294C103.049 42.2666 104.306 41.0719 104.5 39.0641C104.663 37.3565 103.75 35.7365 102.18 35.0547C101.329 34.6919 100.447 34.6732 99.5465 34.6982Z" fill="white"/>
<path d="M26.4144 38.758C26.4144 36.9565 26.4206 35.1551 26.4081 33.3537C26.4081 33.0472 26.5019 32.9472 26.7959 32.9722C27.0836 32.9972 27.3776 32.9784 27.6716 32.9784C28.1345 32.9784 28.1345 32.9784 28.1345 33.4288C28.1345 35.4679 28.1345 37.5132 28.1345 39.5523C28.1345 40.5218 28.1407 41.4913 28.1282 42.4608C28.1219 42.7361 28.2158 42.8174 28.491 42.8174C30.0297 42.8049 31.5747 42.8174 33.1134 42.8049C33.3886 42.8049 33.4886 42.8799 33.4699 43.1551C33.4511 43.5179 33.4574 43.887 33.4636 44.2497C33.4699 44.4436 33.4073 44.5312 33.1947 44.5312C31.018 44.525 28.8413 44.525 26.6646 44.5312C26.3893 44.5312 26.4019 44.3811 26.4019 44.1934C26.4144 42.3795 26.4144 40.5719 26.4144 38.758Z" fill="white"/>
<path d="M36.047 38.7264C36.047 36.9313 36.0532 35.1424 36.0407 33.3472C36.0407 33.0407 36.1345 32.9469 36.4348 32.9657C36.7788 32.9907 37.1228 32.9844 37.4668 32.9657C37.6983 32.9532 37.7733 33.0345 37.7733 33.2722C37.7608 34.0978 37.7671 34.9172 37.7671 35.7428C37.7671 37.9633 37.7733 40.1838 37.7608 42.4043C37.7608 42.717 37.8421 42.8171 38.1611 42.8171C39.6936 42.8046 41.226 42.8171 42.7585 42.8046C43.0149 42.8046 43.1087 42.8734 43.0962 43.1361C43.0775 43.5114 43.0837 43.8867 43.09 44.262C43.09 44.4371 43.0524 44.531 42.846 44.531C40.6568 44.5247 38.4676 44.5247 36.2784 44.531C36.0094 44.531 36.0407 44.3621 36.0407 44.1994C36.047 42.373 36.047 40.5528 36.047 38.7264Z" fill="white"/>
<path d="M49.0259 37.0691C49.3012 37.6007 49.5513 38.0573 49.764 38.5265C49.8266 38.6578 49.8328 38.8517 49.789 38.9893C49.4513 39.9463 49.0697 40.8971 48.7445 41.8603C48.6194 42.2231 48.5693 42.6234 48.5318 43.0112C48.4943 43.424 48.513 43.8431 48.5255 44.2622C48.5318 44.4811 48.4442 44.5562 48.2316 44.5499C47.8563 44.5374 47.481 44.5374 47.1057 44.5499C46.8805 44.5562 46.7929 44.4874 46.7992 44.2497C46.818 43.7618 46.8242 43.2677 46.7929 42.7798C46.7804 42.5421 46.7241 42.2856 46.6053 42.0792C45.1104 39.4897 43.6029 36.9127 42.1018 34.3357C42.0517 34.2481 42.0017 34.1543 41.9329 34.0292C42.3832 33.6852 42.8273 33.3537 43.3152 32.9846C44.7663 35.5366 46.1987 38.0573 47.6874 40.6719C48.1503 39.4272 48.5756 38.2763 49.0259 37.0691Z" fill="white"/>
<path d="M57.2072 48.9279C56.5817 49.6723 55.9937 50.3666 55.3745 51.1109C54.9554 50.4104 54.5551 49.7411 54.1548 49.0718C54.1298 49.0781 54.0985 49.0781 54.0735 49.0843C54.0422 49.2594 54.0047 49.4283 53.9859 49.6035C53.9109 50.1727 53.8421 50.7356 53.7795 51.3048C53.7357 51.6989 53.6919 51.7364 53.2604 51.6238C53.4292 50.2602 53.5981 48.8904 53.7795 47.4268C54.3675 48.4275 54.9116 49.3595 55.4871 50.3478C56.294 49.3845 57.0696 48.4713 57.8389 47.5519C57.864 47.5581 57.8827 47.5706 57.9077 47.5769C57.8577 48.0335 57.8077 48.4901 57.7514 48.9467C57.6575 49.7411 57.5512 50.5354 57.4699 51.3298C57.4449 51.5738 57.3886 51.7051 57.1196 51.6738C56.8319 51.6363 56.9507 51.4362 56.9695 51.2923C57.0571 50.573 57.1509 49.8474 57.2447 49.1281C57.251 49.0906 57.2322 49.0468 57.2072 48.9279Z" fill="white"/>
<path d="M42.2516 47.8648C42.1828 47.9962 42.1203 48.115 42.089 48.1838C41.6574 48.1025 41.2571 47.9837 40.8505 47.9711C39.9998 47.9399 39.2743 48.6342 39.1992 49.4848C39.0929 50.6795 40.175 51.5427 41.3197 51.1674C41.4197 51.1361 41.5198 50.9985 41.5448 50.8922C41.6011 50.6733 41.6074 50.4418 41.6324 50.1729C41.3447 50.1604 41.0945 50.1479 40.8443 50.1353C40.788 49.7413 40.8255 49.6975 41.1883 49.6912C41.5073 49.6912 41.8326 49.6912 42.2016 49.6912C42.1766 49.9102 42.1578 50.0853 42.1391 50.2667C42.1015 50.5857 42.0765 50.911 42.014 51.2237C41.9889 51.3425 41.8826 51.4927 41.7763 51.5364C41.0695 51.8179 40.3564 51.8429 39.6683 51.4802C38.7801 51.011 38.4611 50.1103 38.7989 49.0407C39.2493 47.5896 40.9756 46.9829 42.2516 47.8648Z" fill="white"/>
<path d="M29.9046 51.186C29.9296 51.6301 29.8984 51.6677 29.5356 51.6677C28.8288 51.6677 28.1157 51.6614 27.4089 51.6739C27.1712 51.6739 27.0837 51.6301 27.1274 51.3549C27.2838 50.2541 27.4027 49.147 27.5403 48.0461C27.5403 48.0336 27.5403 48.0273 27.5403 48.0148C27.584 47.4832 27.584 47.4832 28.1032 47.4832C28.7162 47.4832 29.3354 47.4832 29.9484 47.4832C30.061 47.4832 30.1736 47.4957 30.2862 47.5019C30.33 47.7834 30.2611 47.9273 29.9672 47.9147C29.4543 47.9022 28.9476 47.921 28.4347 47.9085C28.1908 47.9022 28.0469 47.9585 28.0281 48.24C28.0094 48.5778 27.9468 48.9218 27.903 49.3096C28.5723 49.3096 29.2041 49.3096 29.8421 49.3096C29.8483 49.7662 29.8296 49.785 29.4418 49.7912C29.0039 49.7912 28.5661 49.7975 28.1282 49.7912C27.9093 49.785 27.8155 49.8725 27.803 50.0977C27.7842 50.448 27.7217 50.792 27.6779 51.1798C28.441 51.186 29.1665 51.186 29.9046 51.186Z" fill="white"/>
<path d="M64.8821 47.5023C64.9134 47.84 64.782 47.9339 64.5005 47.9213C63.9814 47.9026 63.4622 47.9213 62.9368 47.9151C62.7554 47.9151 62.6491 47.9651 62.6303 48.1715C62.599 48.5406 62.5427 48.9096 62.4927 49.3162C63.1432 49.3162 63.7499 49.3162 64.3504 49.3162C64.4505 49.754 64.4255 49.7916 64.0377 49.7916C63.5998 49.7916 63.162 49.7978 62.7241 49.7916C62.5177 49.7916 62.3989 49.8416 62.3864 50.0855C62.3676 50.4358 62.305 50.7861 62.255 51.1801C63.0181 51.1801 63.7499 51.1801 64.4818 51.1801C64.4755 51.6618 64.4755 51.668 64.0627 51.668C63.3621 51.668 62.6678 51.6618 61.9673 51.6743C61.7171 51.6805 61.6608 51.5742 61.6921 51.3553C61.8422 50.1919 61.9923 49.0285 62.1299 47.8651C62.1674 47.5773 62.2738 47.4647 62.5865 47.4773C63.2308 47.5023 63.875 47.4835 64.5255 47.4835C64.6381 47.4898 64.7507 47.496 64.8821 47.5023Z" fill="white"/>
<path d="M49.3385 51.6176C48.8131 51.7364 48.7881 51.7239 48.663 51.2736C48.4691 50.5918 48.4691 50.6418 47.7436 50.573C47.0368 50.5105 46.5364 50.6669 46.3237 51.3987C46.2424 51.6739 46.036 51.7302 45.7233 51.6176C46.4926 50.204 47.2495 48.8029 48.0501 47.333C48.4942 48.7966 48.9132 50.1977 49.3385 51.6176ZM47.9375 48.5965C47.9062 48.5902 47.8749 48.584 47.8437 48.584C47.581 49.0781 47.3183 49.5785 47.0305 50.1164C47.4996 50.1164 47.8999 50.1164 48.3503 50.1164C48.2002 49.5848 48.0688 49.0906 47.9375 48.5965Z" fill="white"/>
<path d="M71.1183 48.1339C70.6429 48.0651 70.2426 47.9712 69.8423 47.9587C69.5546 47.9525 69.3419 48.1464 69.2794 48.4529C69.2168 48.7594 69.3857 48.947 69.6296 49.0846C69.8798 49.2285 70.1425 49.3536 70.399 49.4974C70.768 49.7101 71.062 49.9853 71.0307 50.4544C70.9932 50.9861 70.7555 51.3864 70.2489 51.5991C69.6359 51.8555 68.779 51.6866 68.2285 51.1925C68.2973 51.0862 68.3724 50.9798 68.4037 50.9298C68.829 51.0486 69.2043 51.1863 69.5921 51.2425C69.7735 51.2676 70.0049 51.18 70.1738 51.0799C70.5866 50.8422 70.6242 50.3168 70.2489 50.0353C69.9611 49.8164 69.6234 49.6601 69.3106 49.4849C68.8978 49.2535 68.6852 48.9282 68.7602 48.4341C68.8228 48.0213 69.0667 47.7586 69.4295 47.5959C69.9549 47.3583 70.7868 47.4896 71.2684 47.8962C71.1996 48.0025 71.1371 48.1026 71.1183 48.1339Z" fill="white"/>
<path d="M20.0971 47.5522C20.5913 47.4021 20.6726 47.4459 20.7977 47.8837C21.0103 48.6343 21.2167 49.3849 21.4294 50.1355C21.4607 50.2418 21.4982 50.3481 21.5545 50.5295C21.6421 50.3794 21.7046 50.2918 21.7547 50.1918C22.155 49.4036 22.5553 48.6155 22.9556 47.8274C23.1495 47.4459 23.1808 47.4334 23.6874 47.5397C22.9243 48.9408 22.1675 50.3356 21.3731 51.7868C20.929 50.3294 20.5099 48.9408 20.0971 47.5522Z" fill="white"/>
<path d="M8.55025 51.6555C8.63156 50.9237 8.71287 50.2106 8.79419 49.5038C8.86299 48.9471 8.93179 48.3905 9.00685 47.84C9.06315 47.4522 9.0694 47.4522 9.51975 47.5335C9.38215 48.7407 9.23828 49.9479 9.09442 51.1926C9.82624 51.1926 10.508 51.1926 11.1773 51.1926C11.2899 51.6242 11.2586 51.6743 10.8771 51.6743C10.214 51.6743 9.54477 51.6743 8.88176 51.6743C8.78168 51.6743 8.6816 51.6617 8.55025 51.6555Z" fill="white"/>
<path d="M16.0939 47.5273C16.0126 48.2153 15.9438 48.8971 15.8562 49.5726C15.7812 50.1918 15.6811 50.8048 15.6248 51.424C15.5998 51.6742 15.4622 51.6742 15.287 51.668C15.0493 51.6617 15.1056 51.5116 15.1244 51.3615C15.262 50.2481 15.3996 49.1348 15.5372 48.0214C15.5435 47.9588 15.556 47.8963 15.556 47.8337C15.5622 47.5022 15.7436 47.4209 16.0939 47.5273Z" fill="white"/>
<path d="M18.139 40.0275C18.6675 40.0275 19.096 39.5991 19.096 39.0705C19.096 38.542 18.6675 38.1135 18.139 38.1135C17.6105 38.1135 17.182 38.542 17.182 39.0705C17.182 39.5991 17.6105 40.0275 18.139 40.0275Z" fill="#CBA25B"/>
<path d="M118.517 29V48.5027H139.978L155.359 29H118.517ZM127.875 45.0751H125.661V34.5731H122.22V32.4214H141.511L139.703 34.5731H127.875V45.0751ZM137.282 45.0751L133.442 36.4683L136.031 36.5246L137.801 40.6278L144.363 32.4214H146.99L137.282 45.0751Z" fill="#CBA25B"/>
<path d="M159.962 29L152.263 38.8577L160 48.4965L159.962 29Z" fill="#CBA25B"/>
</svg>
