<svg width="161" height="80" viewBox="0 0 161 80" fill="none" xmlns="http://www.w3.org/2000/svg">
<path d="M9.87338 39.8908C9.87338 38.263 9.87338 36.6352 9.87338 35.0074C9.87338 34.531 9.95279 34.0149 10.1116 33.5385C10.5086 32.3077 11.66 31.6725 12.9305 31.9901C13.4069 32.1092 13.923 32.3077 14.3597 32.5856C17.0992 34.1737 19.8783 35.7618 22.5781 37.3896C23.1339 37.7072 23.6501 38.1836 24.0074 38.6998C24.5632 39.4938 24.5632 40.4069 23.9677 41.1613C23.6104 41.6774 23.0942 42.1141 22.5781 42.4715C19.7989 44.139 17.0198 45.7271 14.2406 47.3548C13.7642 47.6328 13.2084 47.8313 12.6922 47.9107C11.4615 48.1092 10.4689 47.4739 10.1116 46.2829C9.95279 45.8065 9.87338 45.2903 9.87338 44.8139C9.87338 43.1464 9.87338 41.5186 9.87338 39.8908Z" fill="white"/>
<path d="M11.1041 47.6328C10.6674 47.3549 10.3101 46.8785 10.1513 46.2829C10.0719 46.0447 10.0322 45.8065 9.99249 45.5286L0.186035 39.8909C0.186035 41.9554 0.305142 44.0199 0.543355 46.0844C1.05948 50.5708 2.13144 54.938 3.71953 59.1465C3.87834 59.5435 3.95775 59.742 4.07685 59.7817L11.1041 47.6328Z" fill="url(#paint0_linear)"/>
<path d="M10.1513 33.5384C10.3498 32.9826 10.6674 32.5458 11.0644 32.2679L4.03715 20.0793C3.95775 20.119 3.87834 20.2382 3.83864 20.3573C2.01234 25.0818 0.860973 29.9652 0.424249 35.0074C0.26544 36.6352 0.186035 38.263 0.186035 39.8908L9.95278 34.253C10.0322 34.0148 10.0719 33.7369 10.1513 33.5384Z" fill="url(#paint1_linear)"/>
<path d="M38.3796 39.7319C37.0297 38.2232 35.7195 36.5954 34.2902 35.1661C30.9552 31.7914 27.2232 28.9726 23.1736 26.6301V37.8262C23.4912 38.1041 23.8088 38.4217 24.0471 38.7393C24.325 39.1363 24.4838 39.5731 24.4441 40.0098H38.5384C38.4987 39.851 38.459 39.7716 38.3796 39.7319Z" fill="url(#paint2_linear)"/>
<path d="M19.521 24.6848C14.7567 22.3821 9.71456 20.8337 4.43416 20C4.23565 19.9602 4.11654 20 4.03714 20.0794L11.0644 32.2679C11.5806 31.9106 12.2555 31.7915 12.9701 31.99C13.1687 32.0297 13.3672 32.1091 13.526 32.1885L23.1736 26.6302C22.0222 25.9156 20.7915 25.2803 19.521 24.6848Z" fill="url(#paint3_linear)"/>
<path d="M23.1736 26.5906L13.526 32.1489C13.8436 32.268 14.1215 32.3871 14.3994 32.5459C17.1389 34.134 19.918 35.7221 22.6178 37.3499C22.8163 37.469 22.9751 37.5881 23.1736 37.7469V26.5906Z" fill="url(#paint4_linear)"/>
<path d="M12.732 47.9107C12.0967 48.0298 11.5409 47.9107 11.1042 47.6328L4.07687 59.7817C4.19598 59.8214 4.39449 59.8214 4.75181 59.742C4.91062 59.7023 5.06943 59.7023 5.26794 59.6626C10.6277 58.7891 15.7096 57.1216 20.5136 54.6601C21.4267 54.1837 22.3399 53.7073 23.2133 53.1911L13.6451 47.6725C13.3275 47.7916 13.0496 47.871 12.732 47.9107Z" fill="#D61F2B"/>
<path d="M24.4838 39.9705C24.4838 40.3675 24.325 40.8042 24.0471 41.1615C23.8089 41.4791 23.5309 41.7968 23.2133 42.0747V53.231C27.7394 50.6504 31.789 47.3948 35.4019 43.5834C36.4739 42.432 37.5061 41.2012 38.5781 40.0102L24.4838 39.9705Z" fill="url(#paint5_linear)"/>
<path d="M23.1736 42.0745C23.0148 42.2333 22.8163 42.3524 22.6178 42.4715C19.8387 44.139 17.0595 45.7271 14.2803 47.3549C14.0818 47.474 13.8436 47.5931 13.6054 47.6725L23.1736 53.2705V42.0745Z" fill="#E31D2F"/>
<path d="M9.91308 44.8137C9.87338 43.1859 9.91308 41.5184 9.91308 39.8906C9.91308 38.2629 9.91308 36.6351 9.91308 35.0073C9.91308 34.7691 9.95278 34.4911 9.99249 34.2529L0.186035 39.8906L9.95278 45.5284C9.91308 45.2902 9.91308 45.0519 9.91308 44.8137Z" fill="#ED1B31"/>
<path d="M52.99 46.9181L49.4168 41.598H47.8287V47.3151H44.7716V32.2283H50.2505C52.196 32.2283 53.5855 32.5856 54.4987 33.2605C55.4118 33.9752 55.8486 35.0868 55.8486 36.6749C55.8486 37.9454 55.5706 38.9777 55.0545 39.732C54.4987 40.4863 53.7443 40.9628 52.7518 41.201L56.7617 47.2754H53.7046C53.387 47.2754 53.1488 47.1563 52.99 46.9181ZM52.7121 36.8337C52.7121 36.0794 52.5136 35.5633 52.1166 35.2853C51.7195 35.0074 51.0843 34.8883 50.2108 34.8883H47.8287V38.8982H50.0917C50.7667 38.8982 51.3225 38.8188 51.6798 38.6997C52.0371 38.5806 52.3151 38.3821 52.4739 38.1042C52.6327 37.8263 52.7121 37.3896 52.7121 36.8337Z" fill="#C72031"/>
<path d="M71.1339 41.0025C71.1339 43.3449 70.6575 45.0521 69.7046 46.0843C68.7518 47.1166 67.1637 47.6327 64.9404 47.6327C62.7568 47.6327 61.1687 47.1166 60.2158 46.0843C59.263 45.0521 58.7468 43.3846 58.7468 41.0025V32.2283H61.8039V40.7643C61.8039 41.7965 61.8833 42.5906 62.0818 43.1861C62.2803 43.7816 62.5979 44.2183 63.0347 44.4963C63.4714 44.7742 64.0669 44.8933 64.9007 44.8933C66.052 44.8933 66.8858 44.5757 67.3622 43.9801C67.8386 43.3449 68.0769 42.3126 68.0769 40.8437V32.2283H71.1339V41.0025Z" fill="#C72031"/>
<path d="M85.9031 42.9082C85.9031 44.4169 85.387 45.5285 84.3548 46.2035C83.3225 46.9181 81.8932 47.2357 80.0272 47.2357H74.3498V32.2283H79.6699C81.6153 32.2283 82.9652 32.5062 83.7989 33.062C84.6327 33.6179 85.0694 34.531 85.0694 35.7221C85.0694 36.6749 84.8312 37.4293 84.3945 37.9851C83.9577 38.5806 83.2431 38.938 82.2505 39.1365C83.521 39.2953 84.4342 39.6923 84.99 40.3275C85.6252 41.0025 85.9031 41.8362 85.9031 42.9082ZM82.0123 36.397C82.0123 35.8412 81.8138 35.4442 81.3771 35.2059C80.9404 34.9677 80.3051 34.8883 79.4317 34.8883H77.4863V38.1042H79.3523C80.2654 38.1042 80.9404 37.9851 81.3771 37.7072C81.7741 37.469 82.0123 37.0322 82.0123 36.397ZM82.7667 42.6303C82.7667 41.9553 82.5285 41.4789 82.0917 41.201C81.6153 40.9231 80.7816 40.7643 79.5111 40.7643H77.4466V44.536H78.995C80.186 44.536 81.0198 44.4963 81.4565 44.3772C81.8932 44.2581 82.2505 44.0595 82.449 43.7816C82.6873 43.5037 82.7667 43.1464 82.7667 42.6303Z" fill="#C72031"/>
<path d="M94.3201 41.5186V47.2754H91.2233V41.598L86.4987 32.2283H89.3176C89.6352 32.2283 89.9528 32.4268 90.0719 32.7047L92.7717 39.3747L95.5508 32.7047C95.7096 32.4268 95.9876 32.2283 96.3052 32.2283H99.0049L94.3201 41.5186Z" fill="#C72031"/>
<path d="M116.315 37.2705C116.315 39.0968 115.878 40.4466 115.045 41.3201C114.211 42.1935 112.821 42.6303 110.876 42.6303H108.375V47.2754H105.318V32.2283H110.995C112.702 32.2283 114.012 32.6253 114.925 33.4193C115.878 34.2134 116.315 35.4839 116.315 37.2705ZM113.139 37.2705C113.139 36.4367 112.901 35.8015 112.424 35.4442C111.948 35.0868 111.114 34.8883 109.883 34.8883H108.335V39.9305H109.605C110.717 39.9305 111.511 39.8511 111.948 39.6923C112.385 39.5335 112.702 39.2556 112.861 38.8982C113.059 38.5409 113.139 38.0248 113.139 37.2705Z" fill="white"/>
<path d="M118.816 47.2754V32.2283H121.873V44.4963H128.226L127.114 47.3151H118.816V47.2754Z" fill="white"/>
<path d="M128.782 47.2754L133.784 32.2283H137.794L142.717 47.2754H140.176C139.819 47.2754 139.501 47.0372 139.382 46.6799L138.588 44.2184H132.791L131.997 46.6799C131.878 47.0372 131.561 47.2754 131.203 47.2754H128.782ZM133.665 41.5186H137.715L135.69 35.2853L133.665 41.5186Z" fill="white"/>
<path d="M149.784 41.5186V47.2754H146.687V41.598L141.963 32.2283H144.782C145.099 32.2283 145.417 32.4268 145.536 32.7047L148.236 39.3747L151.015 32.7047C151.174 32.4268 151.452 32.2283 151.769 32.2283H154.469L149.784 41.5186Z" fill="white"/>
<path d="M158.36 35.8413L157.685 34.8487H157.407V35.8413H156.891V33.2209H157.844C158.161 33.2209 158.439 33.3004 158.598 33.4195C158.757 33.5386 158.836 33.7371 158.836 34.015C158.836 34.2532 158.796 34.412 158.677 34.5311C158.598 34.6502 158.439 34.7296 158.28 34.7693L158.995 35.8413H158.36ZM158.28 34.015C158.28 33.8959 158.241 33.7768 158.161 33.7371C158.082 33.6974 157.963 33.6577 157.844 33.6577H157.447V34.3723H157.844C157.963 34.3723 158.042 34.3723 158.122 34.3326C158.201 34.2929 158.241 34.2929 158.28 34.2135C158.28 34.1738 158.28 34.0944 158.28 34.015Z" fill="white"/>
<path d="M157.883 36.8337C156.613 36.8337 155.581 35.8015 155.581 34.531C155.581 33.2605 156.613 32.2283 157.883 32.2283C159.154 32.2283 160.186 33.2605 160.186 34.531C160.186 35.8015 159.154 36.8337 157.883 36.8337ZM157.883 32.7047C156.891 32.7047 156.057 33.4987 156.057 34.531C156.057 35.5236 156.851 36.3573 157.883 36.3573C158.916 36.3573 159.71 35.5633 159.71 34.531C159.67 33.5384 158.876 32.7047 157.883 32.7047Z" fill="white"/>
<defs>
<linearGradient id="paint0_linear" x1="8.62947" y1="51.9416" x2="-7.51822" y2="46.7272" gradientUnits="userSpaceOnUse">
<stop stop-color="#B31F24"/>
<stop offset="1" stop-color="#CE2029"/>
</linearGradient>
<linearGradient id="paint1_linear" x1="7.65938" y1="26.7472" x2="-6.21758" y2="35.4097" gradientUnits="userSpaceOnUse">
<stop stop-color="#B51F26"/>
<stop offset="1" stop-color="#DF1E2D"/>
</linearGradient>
<linearGradient id="paint2_linear" x1="30.8915" y1="39.9571" x2="30.8915" y2="27.0019" gradientUnits="userSpaceOnUse">
<stop stop-color="#EB1B33"/>
<stop offset="1" stop-color="#D5202A"/>
</linearGradient>
<linearGradient id="paint3_linear" x1="17.242" y1="29.7805" x2="9.50453" y2="16.0717" gradientUnits="userSpaceOnUse">
<stop stop-color="#9C1C20"/>
<stop offset="1" stop-color="#A21E22"/>
</linearGradient>
<linearGradient id="paint4_linear" x1="18.3094" y1="29.2044" x2="21.6175" y2="39.5771" gradientUnits="userSpaceOnUse">
<stop stop-color="#AE1F24"/>
<stop offset="1" stop-color="#D81F2B"/>
</linearGradient>
<linearGradient id="paint5_linear" x1="30.8908" y1="39.9715" x2="30.8908" y2="53.05" gradientUnits="userSpaceOnUse">
<stop stop-color="#B31F24"/>
<stop offset="1" stop-color="#CE2029"/>
</linearGradient>
</defs>
</svg>
