<svg width="160" height="80" viewBox="0 0 160 80" fill="none" xmlns="http://www.w3.org/2000/svg">
<path d="M57.2206 34.7367V32.6376C57.2206 31.7046 56.7541 31.2382 55.8211 31.2382H55.3547C54.4217 31.2382 54.033 31.7046 54.033 32.6376V36.5248C54.033 36.9913 54.1108 37.2245 54.2662 37.38C54.4217 37.5355 54.7327 37.7688 55.1214 38.002L58.0758 39.6347C58.6977 40.0234 59.1642 40.3344 59.4752 40.4899C59.7862 40.7231 59.9417 40.9563 60.0971 41.2673C60.2526 41.5783 60.3304 42.1225 60.3304 42.9777V48.0312C60.3304 50.6745 59.0865 51.9962 56.5209 51.9962H54.5772C52.0894 51.9962 50.7677 50.519 50.7677 47.6424V46.4762H53.9553V47.7202C53.9553 48.6531 54.4217 49.1196 55.3547 49.1196H55.9766C56.8318 49.1196 57.2206 48.6531 57.2206 47.7202V43.6774C57.2206 43.2109 57.1428 42.9777 56.9873 42.8222C56.8318 42.6667 56.5209 42.4335 56.1321 42.2003L53.1778 40.4899C52.5558 40.1011 52.0116 39.8679 51.7784 39.6347C51.4674 39.4014 51.2342 39.0904 51.1564 38.7017C51.0009 38.313 50.9232 37.8465 50.9232 37.2245V32.4043C50.9232 29.6832 52.1671 28.3616 54.7327 28.3616H56.6763C59.1642 28.3616 60.4859 29.6832 60.4859 32.4043V34.7367H57.2206ZM62.9737 51.9962V28.4393H66.1613V52.0739H62.9737V51.9962ZM75.5685 42.278L78.5228 28.4393H82.0213V52.0739H78.8338L79.1448 36.6026L76.8124 47.7979H74.4023L72.0699 36.6026L72.3032 51.9962H69.1156V28.4393H72.6141L75.5685 42.278ZM84.8979 28.4393H90.6511C93.2167 28.4393 94.4606 29.761 94.4606 32.4821V39.4792C94.4606 42.1225 93.2167 43.5219 90.6511 43.5219H88.0077V52.0739H84.8202L84.8979 28.4393ZM88.0855 40.6453H90.1069C90.9621 40.6453 91.3508 40.1789 91.3508 39.2459V32.6376C91.3508 31.7046 90.8843 31.2382 89.9514 31.2382H88.0855V40.6453ZM104.49 51.9962H97.0262V28.4393H100.214V49.1973H104.567V51.9962H104.49ZM106.278 51.9962V28.4393H114.13V31.3159H109.465V38.4685H113.586V41.3451H109.465V49.1973H114.13V52.0739H106.278V51.9962Z" fill="white"/>
<path d="M40.1166 36.6025L31.8756 31.86L25.1118 27.9728L6.76385 38.4684V25.1739L11.5063 27.895V31.7823L18.2702 27.895V24.0077L5.36443 16.4664C2.95432 15.1448 0 16.8552 0 19.5763V50.2857L25.1118 35.7473L31.8756 39.6346L17.0262 48.2643L6.76385 54.1729V50.2857L0 54.1729V59.8484C0.0777454 62.4917 3.03207 64.1244 5.36443 62.8027L40.1944 42.7444C42.5267 41.4227 42.5267 37.9242 40.1166 36.6025Z" fill="#EF3340"/>
<path d="M117.085 28.4392H122.838C125.403 28.4392 126.647 29.7609 126.647 32.482V39.4791C126.647 42.1224 125.403 43.5218 122.838 43.5218H120.194V52.0738H117.007V28.4392H117.085ZM120.194 40.6452H122.216C123.071 40.6452 123.46 40.1788 123.46 39.2458V32.6375C123.46 31.7045 122.993 31.238 122.06 31.238H120.194V40.6452Z" fill="#EF3340"/>
<path d="M136.599 51.9961H129.135V28.4392H132.323V49.1972H136.676V51.9961H136.599Z" fill="#FFB81C"/>
<path d="M141.419 51.9961H138.231V32.482C138.231 29.7609 139.475 28.4392 142.041 28.4392H144.373C146.861 28.4392 148.183 29.7609 148.183 32.482V52.0738H144.995V43.3663H141.341V51.9961H141.419ZM145.073 40.4897V32.6375C145.073 31.86 144.451 31.238 143.673 31.238H142.818C142.041 31.238 141.419 31.86 141.419 32.6375V40.4897H145.073Z" fill="#00AB84"/>
<path d="M156.19 51.9961H153.003V43.3663L149.116 28.4392H152.225L154.558 38.7016H154.636L156.735 28.4392H159.845L156.035 43.3663V51.9961H156.19Z" fill="#009FDF"/>
</svg>
