<svg width="160" height="80" viewBox="0 0 160 80" fill="none" xmlns="http://www.w3.org/2000/svg">
<path d="M13.6048 50.2109H14.5546C16.5982 50.2109 17.0875 49.653 17.6631 47.0861L21.8078 28.3372C21.9805 27.556 22.0381 26.9608 22.0381 26.5516C22.0381 25.5099 21.5488 25.1752 20.4263 25.1752H19.1598L19.3037 24.4684H33.436L33.2921 25.1752H32.3999C30.3563 25.1752 29.867 25.8075 29.3201 28.3372L25.1754 47.0861C25.0027 47.8301 24.9164 48.4253 24.9164 48.8345C24.9164 49.8761 25.4344 50.2109 26.557 50.2109H27.7371L27.5931 50.9177H13.4609L13.6048 50.2109Z" fill="white"/>
<path d="M45.9562 49.7645C45.1503 53.1126 44.4595 55.4561 43.3369 56.9814C41.869 58.9902 39.4513 60.2178 36.7169 60.2178C33.263 60.2178 31.3633 58.5437 31.3633 55.7538C31.3633 54.0053 32.2844 52.7777 33.7236 52.7777C35.1051 52.7777 35.9974 53.8938 35.9974 55.5678C35.9974 57.1673 35.1627 58.2834 34.0402 58.2834C33.7811 58.2834 33.522 58.2461 33.263 58.1717C33.5796 58.953 34.5295 59.511 35.5656 59.511C38.4727 59.511 38.7893 56.5722 40.6889 48.3881L41.207 46.1561C39.624 49.6901 37.9834 51.3641 35.8247 51.3641C33.3782 51.3641 31.6512 48.7601 31.6512 44.8913C31.6512 41.2829 32.8601 37.9348 35.0188 35.5912C36.6306 33.8428 38.5302 32.9128 40.1709 32.9128C42.1856 32.9128 43.2218 34.3636 43.3082 37.1536L44.258 33.3592H49.9282L45.9562 49.7645ZM37.2638 47.5325C37.1199 48.0905 37.0336 48.4997 37.0336 48.7973C37.0336 49.3553 37.3214 49.7273 37.7531 49.7273C38.3 49.7273 39.1923 48.8717 40.1421 47.0861C41.8978 43.7381 42.7901 40.204 42.7901 37.3769C42.7901 35.4052 42.2144 34.2892 41.5524 34.2892C40.8041 34.2892 40.286 35.1076 39.8255 37.0048L37.2638 47.5325Z" fill="white"/>
<path d="M53.8883 36.5213C53.9746 36.1492 54.0034 35.8144 54.0034 35.5912C54.0034 35.0332 53.8307 34.7728 53.4853 34.7728C52.9672 34.7728 51.7583 36.67 50.5783 40.7248L50.0889 40.5016C51.5856 35.3681 53.1399 32.9128 55.5864 32.9128C57.5149 32.9128 58.6086 34.3636 58.6086 37.1164C58.6086 37.9348 58.4935 39.274 58.292 41.0597C60.0765 35.5168 61.0839 32.9128 63.4153 32.9128C64.9696 32.9128 65.9194 34.2892 65.9194 36.5584C65.9194 38.9021 64.9984 40.3528 63.5304 40.3528C62.1777 40.3528 61.2854 39.0508 61.2854 37.0048C61.2854 36.0004 61.5157 35.2564 62.005 34.4752H61.9762C61.0839 34.4752 58.4935 40.018 56.1909 50.9177H50.4631L53.8883 36.5213Z" fill="white"/>
<path d="M82.987 41.1712C82.987 46.4537 78.9286 51.3641 73.7189 51.3641C69.2288 51.3641 66.2642 47.8301 66.2642 43.0312C66.2642 37.4513 70.2937 32.9128 75.4459 32.9128C79.9072 32.9128 82.987 36.484 82.987 41.1712ZM77.806 35.4424C77.806 34.4008 77.2304 33.694 76.3093 33.694C75.2732 33.694 74.6687 34.5868 74.237 36.4096L71.7041 47.1977C71.5602 47.8301 71.4163 48.3509 71.4163 48.8345C71.4163 49.8761 72.0207 50.5829 72.8842 50.5829C73.9491 50.5829 74.5824 49.6901 75.0141 47.8673L77.547 37.0792C77.6909 36.4096 77.806 35.8516 77.806 35.4424Z" fill="white"/>
<path d="M90.2527 50.6201C92.1523 50.6201 93.1597 49.6529 93.1597 47.9045C93.1597 45.8213 91.7494 45.5237 89.1589 43.9241C86.7699 42.4733 85.5899 41.2456 85.5899 39.0136C85.5899 35.6284 88.2667 32.9128 92.7568 32.9128C96.6136 32.9128 98.9451 35.1076 98.9451 37.5257C98.9451 38.9021 98.2543 39.7577 96.9878 39.7577C95.4623 39.7577 94.4262 38.716 94.4262 37.2652C94.4262 35.926 95.0594 35.0704 96.182 35.0704C96.3834 35.0704 96.6712 35.1076 97.0454 35.182C96.4986 34.3636 95.117 33.694 93.3612 33.694C91.5191 33.694 90.5405 34.7356 90.5405 36.3725C90.5405 38.3069 91.9221 38.8648 93.9657 40.1297C96.4122 41.6177 97.6786 42.9197 97.6786 45.3376C97.6786 48.6857 95.0881 51.3641 90.6557 51.3641C86.6549 51.3641 84.1796 49.0577 84.1796 46.4537C84.1796 44.8913 84.9567 43.9241 86.367 43.9241C87.9213 43.9241 88.8999 44.9285 88.8999 46.4537C88.8999 47.9789 88.2091 48.9461 86.9715 48.9461C86.6261 48.9461 86.2807 48.8345 85.8777 48.7229C86.2519 49.5785 87.9788 50.6201 90.2527 50.6201Z" fill="white"/>
<path d="M116.852 41.1712C116.852 46.4537 112.794 51.3641 107.584 51.3641C103.094 51.3641 100.129 47.8301 100.129 43.0312C100.129 37.4513 104.159 32.9128 109.311 32.9128C113.772 32.9128 116.852 36.484 116.852 41.1712ZM111.671 35.4424C111.671 34.4008 111.095 33.694 110.174 33.694C109.138 33.694 108.534 34.5868 108.102 36.4096L105.569 47.1977C105.425 47.8301 105.281 48.3509 105.281 48.8345C105.281 49.8761 105.886 50.5829 106.749 50.5829C107.814 50.5829 108.447 49.6901 108.879 47.8673L111.412 37.0792C111.556 36.4096 111.671 35.8516 111.671 35.4424Z" fill="white"/>
<path d="M121.461 60.2178H114.208L114.409 59.511C115.647 59.4366 116.021 58.023 116.798 55.047L122.152 34.4008H119.043L119.273 33.3592H122.411C124.195 27.5187 126.872 24.4684 130.038 24.4684C132.168 24.4684 133.636 26.1796 133.636 28.1884C133.636 29.788 132.773 30.9784 131.564 30.9784C130.326 30.9784 129.463 29.8996 129.463 28.3372C129.463 26.812 130.211 25.6216 131.305 25.6216C131.333 25.6216 131.333 25.6216 131.362 25.6216C130.959 25.324 130.585 25.1752 130.153 25.1752C128.34 25.1752 127.822 27.8536 126.872 33.3592H130.326L130.067 34.4008H126.699C125.174 43.5149 123.533 52.1082 121.461 60.2178Z" fill="white"/>
<path d="M130.517 34.4008L130.747 33.3591H133.453L135.496 24.7287H140.994L138.95 33.3591H141.771L141.512 34.4008H138.72L135.698 47.1604C135.582 47.6813 135.496 48.0904 135.496 48.4253C135.496 49.1321 135.813 49.5413 136.216 49.5413C137.108 49.5413 138.346 47.4952 139.67 43.3661L140.101 43.5893C138.576 48.9089 136.82 51.3641 133.913 51.3641C131.697 51.3641 130.43 49.9133 130.43 47.4208C130.43 46.2676 130.718 44.854 131.15 43.0685L133.222 34.4008H130.517Z" fill="white"/>
<path d="M156.652 45.5257C156.453 46.4664 156.153 47.3869 155.789 48.2831C155.609 48.7328 155.405 49.1729 155.191 49.6084C155.084 49.8264 154.971 50.0408 154.859 50.2565C154.742 50.469 154.624 50.6823 154.502 50.8919C153.527 52.5762 152.335 54.1341 151.01 55.5592C150.348 56.2717 149.649 56.9493 148.931 57.6034C148.214 58.2591 147.473 58.8865 146.718 59.4946C145.204 60.7079 143.622 61.8297 141.992 62.8732C140.36 63.9118 138.68 64.8714 136.968 65.7629C135.255 66.653 133.511 67.4812 131.738 68.2379C129.966 68.9968 128.171 69.6961 126.358 70.3435C124.546 70.9921 122.712 71.5765 120.868 72.1202C113.486 74.2875 105.907 75.6831 98.287 76.5386C94.4756 76.9643 90.6506 77.2513 86.8215 77.4141C84.9069 77.4944 82.9913 77.5446 81.0755 77.5638C79.1589 77.5816 77.2368 77.5663 75.3178 77.5132C67.6402 77.2983 59.9687 76.4504 52.4267 74.8905C48.6553 74.1147 44.9186 73.1504 41.2373 71.9907C39.3971 71.4043 37.5788 70.7847 35.7714 70.1123C33.9647 69.4426 32.1712 68.732 30.3987 67.9662C28.6255 67.2027 26.8714 66.3869 25.1482 65.5025C23.4244 64.6196 21.7244 63.681 20.073 62.6521C18.4217 61.6234 16.8074 60.5253 15.2644 59.3198L14.6873 58.8661L14.1188 58.3999L13.8349 58.1666L13.5558 57.9264L12.9997 57.444C12.2668 56.7892 11.5495 56.1149 10.8616 55.4074C10.1755 54.6977 9.50935 53.9666 8.88223 53.1979C8.72259 53.0087 8.57279 52.8097 8.41791 52.6161L8.18769 52.3237L7.96266 52.0191C7.66126 51.6143 7.37912 51.1956 7.10825 50.7708C6.56627 49.921 6.09221 49.0302 5.68118 48.1151C5.27087 47.1997 4.92401 46.2585 4.65314 45.299C4.5187 44.819 4.39584 44.3368 4.29922 43.8494C4.19588 43.364 4.11528 42.8745 4.04865 42.3848C3.92093 41.4041 3.86465 40.4185 3.87962 39.4391C3.88659 39.194 3.89311 38.9496 3.90611 38.7057C3.92128 38.4617 3.93622 38.2184 3.96183 37.9758C4.00203 37.4905 4.07465 37.0085 4.15233 36.5309C4.32074 35.5763 4.55906 34.6392 4.88331 33.7382L4.89382 33.7403C4.85273 34.6969 4.84419 35.641 4.89599 36.5761C4.9483 37.5109 5.0495 38.4345 5.20237 39.3434C5.35851 40.2519 5.5638 41.1452 5.81632 42.0193C5.95041 42.4546 6.08245 42.8881 6.2378 43.3135L6.35299 43.6324L6.47661 43.948C6.55542 44.1592 6.64588 44.3662 6.73134 44.5742C7.43738 46.2309 8.33309 47.7879 9.39498 49.2104C10.447 50.6218 11.718 51.9417 13.0445 53.1769L13.5503 53.6346C13.7172 53.7886 13.8947 53.9329 14.0653 54.0833C14.4054 54.3855 14.7628 54.671 15.1127 54.9631L15.6502 55.3886L15.9186 55.6016L16.1918 55.8096L16.7381 56.2252L17.294 56.6299L17.5718 56.8322L17.8534 57.0303L18.4164 57.4265L18.9879 57.8122C19.1778 57.9415 19.3689 58.0692 19.5623 58.1941L20.1402 58.5717L20.7249 58.94C21.1134 59.1873 21.5094 59.4246 21.9032 59.6646C25.0711 61.5609 28.3893 63.2423 31.8069 64.7166C33.5162 65.4528 35.2479 66.1433 37.0001 66.783C38.7517 67.4195 40.5257 68.0188 42.3054 68.5628C44.0878 69.1036 45.8861 69.5968 47.6967 70.0455C49.5069 70.4955 51.3315 70.8923 53.163 71.2561C56.8269 71.9823 60.5286 72.5298 64.2459 72.946C66.1047 73.1532 67.9679 73.328 69.8345 73.4643C71.7008 73.6061 73.5706 73.7058 75.4418 73.7772C77.3137 73.8501 79.1848 73.884 81.0611 73.8895C82.9382 73.8943 84.8152 73.8687 86.6912 73.8136C90.4428 73.7014 94.1902 73.4675 97.9228 73.0981C101.655 72.7285 105.373 72.2237 109.062 71.5686C112.751 70.9156 116.41 70.1074 120.02 69.1318C121.825 68.6438 123.615 68.1038 125.391 67.5252C127.166 66.945 128.924 66.3147 130.657 65.6272C132.389 64.9367 134.103 64.2016 135.782 63.3976C137.461 62.5948 139.106 61.7243 140.707 60.7835C142.31 59.8455 143.866 58.8325 145.356 57.7332C146.1 57.1822 146.83 56.6129 147.536 56.0169C148.244 55.4232 148.927 54.802 149.598 54.1678C150.936 52.8969 152.203 51.5543 153.384 50.1219C153.973 49.4043 154.541 48.6655 155.083 47.8991C155.628 47.1343 156.14 46.34 156.652 45.5257Z" fill="white"/>
<path d="M3.34814 34.5047C3.64132 33.5975 4.00413 32.7155 4.40572 31.8494C4.80922 30.9844 5.25433 30.1354 5.75049 29.3151C6.24474 28.4937 6.77298 27.6887 7.35052 26.9176C7.92769 26.1465 8.54234 25.4007 9.19394 24.686C9.84986 23.9752 10.5436 23.2982 11.2606 22.6452C11.9757 22.0031 12.7091 21.3823 13.4575 20.7806C14.9563 19.58 16.5174 18.4605 18.1254 17.4169C19.734 16.3736 21.3914 15.4103 23.0788 14.5069C24.7684 13.6077 26.487 12.7644 28.2368 11.9943C29.9838 11.2173 31.7585 10.5075 33.5479 9.84011C35.3384 9.17543 37.1507 8.57355 38.9742 8.01168C40.7995 7.45598 42.6367 6.94055 44.4865 6.47781C46.3361 6.01443 48.1966 5.59751 50.0642 5.21873C51.9316 4.83876 53.8081 4.50662 55.6899 4.21183C57.5717 3.91742 59.4589 3.65967 61.3503 3.44107C68.9176 2.56569 76.5399 2.28279 84.1512 2.4979C91.7628 2.72928 99.369 3.4789 106.88 4.8637C108.758 5.21009 110.628 5.60359 112.49 6.0336C114.353 6.46248 116.206 6.93991 118.047 7.4653C121.729 8.51332 125.363 9.75863 128.912 11.2372C132.46 12.7167 135.921 14.4388 139.222 16.4613C142.514 18.4926 145.659 20.822 148.435 23.5926C149.82 24.9779 151.098 26.4856 152.208 28.118C153.318 29.7484 154.262 31.5047 154.952 33.3582C155.297 34.2843 155.578 35.2338 155.786 36.1959C155.834 36.4379 155.884 36.6784 155.929 36.9199C155.967 37.163 156.007 37.4051 156.041 37.6477C156.07 37.8917 156.102 38.1343 156.127 38.3775C156.148 38.6215 156.169 38.865 156.183 39.1085C156.293 41.0578 156.092 43.0049 155.558 44.8317L155.532 44.8282C155.518 43.8778 155.466 42.9409 155.354 42.0189C155.326 41.7885 155.29 41.5591 155.259 41.3306C155.225 41.1022 155.183 40.8751 155.146 40.6486L155.01 39.9735C154.962 39.7497 154.906 39.5275 154.855 39.3056L154.678 38.6455C154.616 38.4268 154.547 38.2099 154.483 37.9931C154.413 37.7774 154.336 37.5637 154.265 37.3497C154.189 37.1367 154.108 36.9256 154.03 36.7144C153.704 35.8731 153.328 35.0559 152.908 34.2633C152.07 32.6777 151.059 31.1925 149.929 29.8003L149.717 29.5391C149.647 29.4524 149.572 29.3677 149.5 29.282C149.354 29.1114 149.212 28.9387 149.06 28.7727C148.766 28.4339 148.459 28.105 148.151 27.7774C147.533 27.124 146.886 26.4953 146.222 25.8837C145.558 25.2724 144.875 24.6779 144.171 24.1065C143.466 23.5359 142.743 22.9858 142.004 22.4542C141.266 21.9222 140.511 21.4105 139.744 20.9152C139.362 20.6659 138.973 20.4264 138.585 20.1853C138.192 19.9497 137.802 19.7118 137.405 19.4839C134.242 17.6381 130.909 16.0581 127.495 14.6639C125.784 13.9746 124.056 13.32 122.306 12.7234C120.558 12.1203 118.792 11.564 117.013 11.0471C115.233 10.5323 113.441 10.0516 111.638 9.61475C109.834 9.17702 108.02 8.77969 106.197 8.41744C102.551 7.69499 98.8729 7.11647 95.1745 6.6861C91.4764 6.25268 87.7591 5.9616 84.0348 5.81218C80.3112 5.65987 76.5775 5.64956 72.8506 5.76587C69.1234 5.88374 65.4005 6.13301 61.6945 6.52966C57.9885 6.92423 54.2979 7.45795 50.6395 8.15159C46.98 8.84005 43.3539 9.69335 39.7778 10.712C37.9909 11.225 36.2192 11.7873 34.4616 12.3878C32.7068 12.9956 30.9662 13.6444 29.254 14.3582C25.8255 15.7748 22.4869 17.4074 19.3212 19.321C17.7359 20.2731 16.1962 21.2984 14.7166 22.4012C13.9779 22.9541 13.2535 23.5252 12.5466 24.1167C11.85 24.707 11.1783 25.3269 10.5207 25.9644C9.86807 26.6068 9.23295 27.2696 8.61207 27.9497L8.15067 28.4643L7.69667 28.987C7.54226 29.1592 7.39584 29.338 7.24708 29.5153C7.09888 29.693 6.94873 29.8697 6.8033 30.0503C5.62068 31.4825 4.52223 32.9943 3.3954 34.5288L3.34814 34.5047Z" fill="white"/>
<path d="M149.237 9.50468C149.002 9.50468 148.826 9.50468 148.356 9.50468H147.886V7.21697H148.532C149.16 7.20661 149.531 7.21697 149.942 7.39294C150.295 7.56893 150.53 7.92088 150.53 8.3315C150.53 8.97676 149.991 9.50127 149.403 9.50127C149.345 9.50126 149.403 9.50127 149.237 9.50468ZM151.94 8.39015C151.94 7.68624 151.646 7.04099 151.118 6.63037C150.471 6.10244 149.825 6.10244 148.885 6.10244H146.534V13.3762H147.886V10.6779H149.12L150.589 13.3762H152.117L150.471 10.4432C151.353 10.1499 151.94 9.3287 151.94 8.39015ZM149.002 15.4293C145.888 15.4293 143.361 12.9069 143.361 9.79798C143.361 6.68903 145.888 4.16667 149.002 4.16667C152.117 4.16667 154.643 6.68903 154.643 9.79798C154.643 12.9069 152.117 15.4293 149.002 15.4293ZM149.002 2.75885C145.124 2.75885 141.951 5.92645 141.951 9.79798C141.951 13.6695 145.124 16.8371 149.002 16.8371C152.88 16.8371 156.053 13.6695 156.053 9.79798C156.053 5.92646 152.88 2.75885 149.002 2.75885Z" fill="white"/>
</svg>
